SplineFontDB: 3.0
FontName: Amiri-Regular
FullName: Amiri
FamilyName: Amiri
Weight: Regular
Copyright: Copyright (c) 2010, 2012, Khaled Hosny <khaledhosny@eglug.org>.\nPortions copyright (c) 2010, Sebastian Kosch <sebastian@aldusleaf.org>\n\nThis Font Software is licensed under the Open Font License, Version 1.1.
UComments: "2010-5-8: Created." 
Version: VERSION
ItalicAngle: 0
UnderlinePosition: -1100
UnderlineWidth: 102
Ascent: 1638
Descent: 410
LayerCount: 2
Layer: 0 1 "Back"  1
Layer: 1 1 "Fore"  0
FSType: 0
OS2Version: 4
OS2_WeightWidthSlopeOnly: 0
OS2_UseTypoMetrics: 1
CreationTime: 1273266481
ModificationTime: 1356941548
PfmFamily: 17
TTFWeight: 400
TTFWidth: 5
LineGap: 0
VLineGap: 0
Panose: 0 0 5 0 0 0 0 0 0 0
OS2TypoAscent: 2300
OS2TypoAOffset: 0
OS2TypoDescent: -1300
OS2TypoDOffset: 0
OS2TypoLinegap: 0
OS2WinAscent: 100
OS2WinAOffset: 1
OS2WinDescent: 100
OS2WinDOffset: 1
HheadAscent: 2300
HheadAOffset: 0
HheadDescent: -1300
HheadDOffset: 0
OS2Vendor: 'BLQ '
Lookup: 259 9 0 "'curs' Cursive Attachment"  {"'curs' Cursive Attachment-1"  } ['curs' ('DFLT' <'dflt' > 'arab' <'dflt' 'ARA ' 'URD ' 'SND ' > ) ]
Lookup: 260 0 0 "'mark' Generic Mark Anchor"  {"'mark' Generic Mark Anchor-1"  "'mark' Generic Mark Anchor-2"  } ['mark' ('DFLT' <'dflt' > 'arab' <'dflt' 'ARA ' 'URD ' 'SND ' > 'latn' <'dflt' 'TRK ' > ) ]
Lookup: 260 0 0 "'mark' Dot Above"  {"'mark' Dot Above-1"  } ['mark' ('DFLT' <'dflt' > 'arab' <'dflt' 'ARA ' 'URD ' 'SND ' > ) ]
Lookup: 260 0 0 "'mark' Dot Below"  {"'mark' Dot Below-1"  } ['mark' ('DFLT' <'dflt' > 'arab' <'dflt' 'ARA ' 'URD ' 'SND ' > ) ]
Lookup: 260 0 0 "'mark' Dot Below Alt"  {"'mark' Dot Below Alt-1"  } ['mark' ('DFLT' <'dflt' > 'arab' <'dflt' 'ARA ' 'URD ' 'SND ' > ) ]
Lookup: 260 0 0 "'mark' Dot Alt"  {"'mark' Dot Alt-1"  } ['mark' ('DFLT' <'dflt' > 'arab' <'dflt' 'ARA ' 'URD ' 'SND ' > ) ]
Lookup: 260 0 0 "'mark' Two Dots Above"  {"'mark' Two Dots Above-1"  } ['mark' ('DFLT' <'dflt' > 'arab' <'dflt' 'ARA ' 'URD ' 'SND ' > ) ]

StartChar: aAlf.fina.alt
Encoding: 65536 -1 0
Width: 1613
Flags: W
AnchorPoint: "TashkilBelow" 477 -670 basechar 0
AnchorPoint: "TashkilAbove" 750 1500 basechar 0
LayerCount: 2
Fore
SplineSet
344 1638 m 0,0,1
 373 1638 373 1638 369 1609 c 2,2,-1
 353 1482 l 2,3,4
 349 1450 349 1450 321 1447 c 0,5,6
 253 1440 253 1440 229.5 1427.5 c 128,-1,7
 206 1415 206 1415 203 1386 c 128,-1,8
 200 1357 200 1357 200 1280 c 0,9,10
 203 717 203 717 270 554 c 24,11,12
 399 243 399 243 872 188 c 1,13,14
 1174 154 1174 154 1613 185 c 0,15,16
 1683 190 1683 190 1673 127 c 0,17,18
 1653 6 1653 6 1613 0 c 0,19,20
 1525 -15 1525 -15 1166 -14 c 0,21,22
 498 -13 498 -13 289 227 c 24,23,24
 184 348 184 348 154 608 c 0,25,26
 138 745 138 745 136 821 c 0,27,28
 123 1314 123 1314 144 1464 c 0,29,30
 153 1527 153 1527 211 1594 c 0,31,32
 249 1637 249 1637 344 1638 c 0,0,1
EndSplineSet
EndChar

StartChar: aAlf.fina
Encoding: 65537 -1 1
Width: 470
Flags: W
AnchorPoint: "DigitAbove" -24 1290 basechar 0
AnchorPoint: "HighHamza" 526 1540 basechar 0
AnchorPoint: "TashkilBelow" 250 -670 basechar 0
AnchorPoint: "TashkilAbove" 500 1400 basechar 0
AnchorPoint: "HamzaAbove" 126 1540 basechar 0
AnchorPoint: "HamzaBelow" 250 -110 basechar 0
LayerCount: 2
Fore
SplineSet
157 1475 m 2,0,1
 179 1511 179 1511 188 1444 c 0,2,3
 226 1127 226 1127 237 901 c 24,4,5
 258 474 258 474 265 386 c 0,6,7
 280 196 280 196 470 185 c 0,8,9
 523 182 523 182 511 110 c 0,10,11
 492 0 492 0 470 0 c 0,12,13
 201 0 201 0 182 249 c 0,14,15
 166 459 166 459 160 671.5 c 152,-1,16
 154 884 154 884 135.5 1015.5 c 128,-1,17
 117 1147 117 1147 86 1316 c 0,18,19
 80 1349 80 1349 92 1369 c 2,20,-1
 157 1475 l 2,0,1
EndSplineSet
EndChar

StartChar: aAlf.isol
Encoding: 65538 -1 2
Width: 446
AnchorPoint: "DigitAbove" -34 1280 basechar 0
AnchorPoint: "HighHamza" 566 1630 basechar 0
AnchorPoint: "TashkilBelow" 250 -670 basechar 0
AnchorPoint: "TashkilAbove" 200 1550 basechar 0
AnchorPoint: "HamzaAbove" 166 1630 basechar 0
AnchorPoint: "HamzaBelow" 330 -80 basechar 0
LayerCount: 2
Fore
SplineSet
190 1388 m 2,0,1
 220 1460 220 1460 228 1392 c 0,2,3
 275 874 l 0,4,5
 354 184 354 184 266 14 c 0,6,7
 254 -9 254 -9 244.5 2.5 c 128,-1,8
 235 14 235 14 236 36 c 24,9,10
 241 278 241 278 222.5 423 c 128,-1,11
 204 568 204 568 178 813 c 2,12,-1
 134 1214 l 2,13,14
 130 1248 130 1248 145 1283 c 2,15,-1
 190 1388 l 2,0,1
EndSplineSet
EndChar

StartChar: aAyn.fina
Encoding: 65539 -1 3
Width: 1010
Flags: W
AnchorPoint: "DotBelow" 600 -200 basechar 0
AnchorPoint: "TashkilBelow" 700 -50 basechar 0
AnchorPoint: "TashkilAbove" 600 1640 basechar 0
AnchorPoint: "TwoDotsAbove" 490 950 basechar 0
AnchorPoint: "DotAbove" 600 950 basechar 0
LayerCount: 2
Fore
SplineSet
856 526 m 24,0,1
 949 470 949 470 944.5 418 c 128,-1,2
 940 366 940 366 898.5 324.5 c 128,-1,3
 857 283 857 283 808 260 c 1,4,5
 795 256 795 256 811 246 c 0,6,7
 908 188 908 188 1010 185 c 0,8,9
 1085 183 1085 183 1080 110 c 24,10,11
 1072 0 1072 0 1010 0 c 0,12,13
 865 0 865 0 646 188 c 0,14,15
 635 197 635 197 619 188 c 0,16,17
 221 -46 221 -46 206 -396 c 0,18,19
 189 -798 189 -798 646 -914 c 1,20,21
 905 -981 905 -981 1482 -933 c 0,22,23
 1504 -931 1504 -931 1507 -942.5 c 128,-1,24
 1510 -954 1510 -954 1489 -968 c 0,25,26
 1422 -1013 1422 -1013 1274 -1068.5 c 128,-1,27
 1126 -1124 1126 -1124 1052 -1128 c 0,28,29
 769 -1145 769 -1145 563 -1095 c 0,30,31
 60 -972 60 -972 142 -391 c 0,32,33
 192 -39 192 -39 447 210 c 0,34,35
 490 251 490 251 508 265 c 128,-1,36
 526 279 526 279 518 286 c 0,37,38
 465 331 465 331 388 338 c 0,39,40
 330 343 330 343 343 375 c 24,41,42
 382 472 382 472 462 523 c 24,43,44
 657 647 657 647 856 526 c 24,0,1
EndSplineSet
EndChar

StartChar: aAyn.init
Encoding: 65540 -1 4
Width: 978
Flags: W
AnchorPoint: "DotBelow" 490 -200 basechar 0
AnchorPoint: "TashkilBelow" 490 -670 basechar 0
AnchorPoint: "TashkilAbove" 400 1640 basechar 0
AnchorPoint: "TwoDotsAbove" 190 1100 basechar 0
AnchorPoint: "HamzaAbove" 300 1100 basechar 0
AnchorPoint: "DotAbove" 300 1100 basechar 0
LayerCount: 2
Fore
SplineSet
848 515 m 2,0,1
 806 351 l 2,2,3
 801 333 801 333 771 322 c 0,4,5
 650 278 650 278 471 204 c 0,6,7
 0 0 l 1,8,9
 -45 0 -45 0 -61.5 75.5 c 128,-1,10
 -78 151 -78 151 0 185 c 0,11,12
 10 189 10 189 142 244 c 1,13,14
 48 325 48 325 69 431 c 24,15,16
 122 700 122 700 393 813 c 0,17,18
 443 834 443 834 526.5 791 c 128,-1,19
 610 748 610 748 671 678 c 0,20,21
 692 654 692 654 677.5 635 c 128,-1,22
 663 616 663 616 636 627 c 0,23,24
 516 676 516 676 369 642 c 128,-1,25
 222 608 222 608 186 522 c 0,26,27
 172 489 172 489 231 436.5 c 128,-1,28
 290 384 290 384 346 375 c 0,29,30
 510 350 510 350 726 488 c 0,31,32
 770 516 770 516 804 534 c 24,33,34
 861 567 861 567 848 515 c 2,0,1
EndSplineSet
EndChar

StartChar: aAyn.isol
Encoding: 65541 -1 5
Width: 1107
Flags: W
AnchorPoint: "DotBelow" 720 100 basechar 0
AnchorPoint: "TashkilBelow" 720 200 basechar 0
AnchorPoint: "TashkilAbove" 500 1640 basechar 0
AnchorPoint: "TwoDotsAbove" 259 1230 basechar 0
AnchorPoint: "DotAbove" 370 1230 basechar 0
AnchorPoint: "HamzaAbove" 370 1230 basechar 0
LayerCount: 2
Fore
SplineSet
445 940 m 24,0,1
 505 969 505 969 589.5 919.5 c 128,-1,2
 674 870 674 870 709 820 c 0,3,4
 731 789 731 789 682 799 c 0,5,6
 426 850 426 850 246 622 c 0,7,8
 237 610 237 610 251 596 c 0,9,10
 394 464 394 464 588 485 c 0,11,12
 621 489 621 489 684 527 c 24,13,14
 923 675 923 675 954 690 c 0,15,16
 992 708 992 708 973 655 c 0,17,18
 927 525 927 525 901 513 c 24,19,20
 735 439 735 439 495 263 c 0,21,22
 229 68 229 68 192 -268 c 0,23,24
 173 -444 173 -444 279 -579 c 0,25,26
 447 -792 447 -792 1039 -772 c 0,27,28
 1199 -767 1199 -767 1458 -720 c 0,29,30
 1480 -716 1480 -716 1484 -728 c 0,31,32
 1494 -759 1494 -759 1262 -875 c 0,33,34
 1132 -940 1132 -940 1060 -947 c 0,35,36
 759 -978 759 -978 566 -934 c 0,37,38
 116 -832 116 -832 131 -379 c 128,-1,39
 146 74 146 74 405 327 c 1,40,41
 244 391 244 391 193 462 c 0,42,43
 172 491 172 491 175 527 c 0,44,45
 183 623 183 623 226 702 c 0,46,47
 320 879 320 879 445 940 c 24,0,1
EndSplineSet
EndChar

StartChar: aAyn.medi
Encoding: 65542 -1 6
Width: 750
Flags: W
AnchorPoint: "DotBelow" 320 -200 basechar 0
AnchorPoint: "TashkilBelow" 300 -670 basechar 0
AnchorPoint: "TashkilAbove" 350 1640 basechar 0
AnchorPoint: "TwoDotsAbove" 149 1000 basechar 0
AnchorPoint: "HamzaAbove" 260 1000 basechar 0
AnchorPoint: "DotAbove" 260 1000 basechar 0
LayerCount: 2
Fore
SplineSet
750 185 m 0,0,1
 822 185 822 185 812 112 c 0,2,3
 796 3 796 3 750 0 c 0,4,5
 562 -13 562 -13 371 210 c 1,6,7
 117 -2 117 -2 0 0 c 0,8,9
 -49 1 -49 1 -63 78 c 0,10,11
 -81 182 -81 182 0 185 c 0,12,13
 127 190 127 190 242 269 c 1,14,15
 176 334 176 334 56 351 c 0,16,17
 42 353 42 353 46 373 c 0,18,19
 56 437 56 437 152 519 c 0,20,21
 328 661 328 661 547 528 c 0,22,23
 651 465 651 465 646 405 c 152,-1,24
 641 345 641 345 502 258 c 1,25,26
 575 185 575 185 750 185 c 0,0,1
EndSplineSet
EndChar

StartChar: aBaa.fina
Encoding: 65543 -1 7
Width: 1810
Flags: W
AnchorPoint: "DigitBelow" 900 -450 basechar 0
AnchorPoint: "VAbove" 945 870 basechar 0
AnchorPoint: "RingBelow" 876 -90 basechar 0
AnchorPoint: "TaaAbove" 945 670 basechar 0
AnchorPoint: "TashkilBelow" 1040 -670 basechar 0
AnchorPoint: "TashkilAbove" 945 1640 basechar 0
AnchorPoint: "TwoDotsBelow" 789 -360 basechar 0
AnchorPoint: "TwoDotsAbove" 834 870 basechar 0
AnchorPoint: "DotAbove" 945 870 basechar 0
AnchorPoint: "HamzaBelow" 900 -450 basechar 0
AnchorPoint: "HamzaAbove" 945 870 basechar 0
AnchorPoint: "DotBelow" 900 -450 basechar 0
LayerCount: 2
Back
SplineSet
2310 185 m 0,0,1
 2344 177 2344 177 2348 162 c 0,2,3
 2352 145 2352 145 2348 113 c 0,4,5
 2333 0 2333 0 2310 0 c 0,6,7
 2200 -1 2200 -1 2088 124 c 1,8,9
 1994 10 1994 10 1810 0 c 0,10,11
 1791 -1 1791 -1 1784 31 c 2,12,-1
 1766 116 l 2,13,14
 1761 138 1761 138 1774 159 c 0,15,16
 1788 183 1788 183 1810 185 c 0,17,18
 2038 202 2038 202 2114 319 c 0,19,20
 2125 336 2125 336 2138 336 c 0,21,22
 2159 336 2159 336 2160 322 c 0,23,24
 2162 298 2162 298 2165 292 c 0,25,26
 2229 204 2229 204 2310 185 c 0,0,1
EndSplineSet
Fore
SplineSet
245 520 m 0,0,1
 261 540 261 540 277 524.5 c 128,-1,2
 293 509 293 509 277 487 c 0,3,4
 204 385 204 385 220 316 c 0,5,6
 288 30 288 30 840 46 c 0,7,8
 1212 57 1212 57 1526 186 c 0,9,10
 1590 212 1590 212 1610 308 c 0,11,12
 1616 337 1616 337 1647 334 c 0,13,14
 1669 332 1669 332 1670 290 c 0,15,16
 1672 193 1672 193 1810 185 c 256,17,18
 1863 182 1863 182 1856 119 c 0,19,20
 1843 0 1843 0 1810 0 c 0,21,22
 1719 0 1719 0 1644 94 c 0,23,24
 1640 99 1640 99 1618 84 c 0,25,26
 1251 -161 1251 -161 749.5 -162 c 128,-1,27
 248 -163 248 -163 151 83 c 0,28,29
 104 203 104 203 151 332 c 128,-1,30
 198 461 198 461 245 520 c 0,0,1
EndSplineSet
EndChar

StartChar: aBaa.init
Encoding: 65544 -1 8
Width: 390
Flags: W
AnchorPoint: "HamzaAbove" 175 800 basechar 0
AnchorPoint: "DotAbove" 175 900 basechar 0
AnchorPoint: "TwoDotsAbove" 60 800 basechar 0
AnchorPoint: "TaaAbove" 175 700 basechar 0
AnchorPoint: "VAbove" 175 800 basechar 0
AnchorPoint: "HighHamza" 425 800 basechar 0
AnchorPoint: "DigitAbove" 175 900 basechar 0
AnchorPoint: "DigitBelow" 170 -350 basechar 0
AnchorPoint: "RingBelow" 220 150 basechar 0
AnchorPoint: "TashkilBelow" 170 -670 basechar 0
AnchorPoint: "TashkilAbove" 120 1640 basechar 0
AnchorPoint: "TwoDotsBelowAlt" 120 -750 basechar 0
AnchorPoint: "DotBelowAlt" 170 -750 basechar 0
AnchorPoint: "TwoDotsBelow" 120 -350 basechar 0
AnchorPoint: "DotBelow" 170 -350 basechar 0
LayerCount: 2
Back
SplineSet
-213 1475 m 2,0,1
 -191 1511 -191 1511 -182 1444 c 0,2,3
 -144 1127 -144 1127 -133 901 c 24,4,5
 -112 474 -112 474 -105 386 c 0,6,7
 -89 190 -89 190 0 185 c 0,8,9
 53 182 53 182 41 110 c 0,10,11
 22 0 22 0 0 0 c 0,12,13
 -169 0 -169 0 -188 249 c 0,14,15
 -204 459 -204 459 -210 671.5 c 152,-1,16
 -216 884 -216 884 -234.5 1015.5 c 128,-1,17
 -253 1147 -253 1147 -284 1316 c 0,18,19
 -290 1349 -290 1349 -278 1369 c 2,20,-1
 -213 1475 l 2,0,1
EndSplineSet
Fore
SplineSet
122 433 m 2,0,-1
 180 560 l 2,1,2
 198 599 198 599 218 561 c 24,3,4
 299 412 299 412 248 201 c 0,5,6
 199 0 199 0 0 0 c 0,7,8
 -22 0 -22 0 -43 104 c 0,9,10
 -59 187 -59 187 0 185 c 0,11,12
 121 180 121 180 182 250 c 0,13,14
 185 254 185 254 183 264 c 0,15,16
 171 323 171 323 128 383 c 0,17,18
 110 408 110 408 122 433 c 2,0,-1
EndSplineSet
EndChar

StartChar: aBaa.isol
Encoding: 65545 -1 9
Width: 1897
Flags: W
AnchorPoint: "DigitBelow" 1000 -400 basechar 0
AnchorPoint: "VAbove" 945 870 basechar 0
AnchorPoint: "RingBelow" 850 60 basechar 0
AnchorPoint: "TaaAbove" 945 670 basechar 0
AnchorPoint: "TashkilBelow" 1100 -670 basechar 0
AnchorPoint: "TashkilAbove" 945 1640 basechar 0
AnchorPoint: "TwoDotsBelow" 900 -300 basechar 0
AnchorPoint: "TwoDotsAbove" 834 870 basechar 0
AnchorPoint: "DotBelow" 1000 -400 basechar 0
AnchorPoint: "HamzaBelow" 1000 -300 basechar 0
AnchorPoint: "HamzaAbove" 945 870 basechar 0
AnchorPoint: "DotAbove" 945 870 basechar 0
LayerCount: 2
Fore
SplineSet
1681 761 m 0,0,1
 1739 695 1739 695 1759 576.5 c 128,-1,2
 1779 458 1779 458 1754.5 346.5 c 128,-1,3
 1730 235 1730 235 1673 202 c 0,4,5
 1345 11 1345 11 853.5 -13.5 c 128,-1,6
 362 -38 362 -38 194 170 c 0,7,8
 85 304 85 304 162 484 c 0,9,10
 194 559 194 559 272 644 c 0,11,12
 285 658 285 658 298 654 c 128,-1,13
 311 650 311 650 313.5 637 c 128,-1,14
 316 624 316 624 307 614 c 0,15,16
 270 573 270 573 248.5 525.5 c 128,-1,17
 227 478 227 478 237 443 c 0,18,19
 309 179 309 179 832.5 187 c 128,-1,20
 1356 195 1356 195 1690 388 c 1,21,22
 1683 465 1683 465 1592 583 c 0,23,24
 1586 591 1586 591 1596.5 638 c 128,-1,25
 1607 685 1607 685 1643 761 c 0,26,27
 1656 789 1656 789 1681 761 c 0,0,1
EndSplineSet
EndChar

StartChar: aBaa.medi
Encoding: 65546 -1 10
Width: 500
Flags: W
AnchorPoint: "DigitBelow" 260 -350 basechar 0
AnchorPoint: "DigitAbove" 250 870 basechar 0
AnchorPoint: "HighHamza" 350 740 basechar 0
AnchorPoint: "VAbove" 250 740 basechar 0
AnchorPoint: "RingBelow" 250 120 basechar 0
AnchorPoint: "TaaAbove" 250 670 basechar 0
AnchorPoint: "TashkilBelow" 240 -670 basechar 0
AnchorPoint: "TashkilAbove" 250 1640 basechar 0
AnchorPoint: "TwoDotsBelow" 160 -250 basechar 0
AnchorPoint: "TwoDotsAbove" 120 740 basechar 0
AnchorPoint: "HamzaAbove" 250 740 basechar 0
AnchorPoint: "DotBelow" 260 -350 basechar 0
AnchorPoint: "DotAbove" 250 870 basechar 0
LayerCount: 2
Fore
SplineSet
500 185 m 1,0,1
 534 177 534 177 538 161 c 128,-1,2
 542 145 542 145 538 113 c 0,3,4
 523 0 523 0 500 0 c 0,5,6
 390 -1 390 -1 278 124 c 1,7,8
 187 13 187 13 0 0 c 0,9,10
 -19 -1 -19 -1 -26 31 c 2,11,-1
 -44 116 l 2,12,13
 -49 137 -49 137 -35.5 160 c 128,-1,14
 -22 183 -22 183 0 185 c 0,15,16
 228 202 228 202 304 319 c 0,17,18
 315 336 315 336 332 336 c 128,-1,19
 349 336 349 336 350.5 317 c 128,-1,20
 352 298 352 298 355 292 c 1,21,22
 422 200 422 200 500 185 c 1,0,1
EndSplineSet
EndChar

StartChar: aDal.fina
Encoding: 65547 -1 11
Width: 965
Flags: W
AnchorPoint: "VAbove" 685 1200 basechar 0
AnchorPoint: "TashkilBelow" 500 -670 basechar 0
AnchorPoint: "TashkilAbove" 475 1640 basechar 0
AnchorPoint: "TwoDotsBelow" 389 -250 basechar 0
AnchorPoint: "TwoDotsAbove" 574 1300 basechar 0
AnchorPoint: "RingBelow" 420 120 basechar 0
AnchorPoint: "TaaAbove" 685 1200 basechar 0
AnchorPoint: "DotAbove" 685 1300 basechar 0
AnchorPoint: "HamzaBelow" 500 -250 basechar 0
AnchorPoint: "HamzaAbove" 685 1300 basechar 0
AnchorPoint: "DotBelow" 500 -250 basechar 0
LayerCount: 2
Fore
SplineSet
965 185 m 0,0,1
 996 177 996 177 1006 130.5 c 128,-1,2
 1016 84 1016 84 1003.5 41.5 c 128,-1,3
 991 -1 991 -1 965 0 c 0,4,5
 830 8 830 8 782 224 c 0,6,7
 767 292 767 292 766 293 c 0,8,9
 760 309 760 309 754 291 c 0,10,11
 690 118 690 118 590 77 c 0,12,13
 463 26 463 26 245 40 c 0,14,15
 75 51 75 51 158 310 c 0,16,17
 167 338 167 338 188 342 c 128,-1,18
 209 346 209 346 217 315 c 0,19,20
 234 256 234 256 273 247 c 0,21,22
 469 205 469 205 630 269 c 0,23,24
 710 301 710 301 735 382 c 0,25,26
 739 396 739 396 707.5 603 c 128,-1,27
 676 810 676 810 671 855.5 c 128,-1,28
 666 901 666 901 677 925 c 0,29,30
 711 996 711 996 724 1029 c 0,31,32
 730 1044 730 1044 745.5 1042 c 128,-1,33
 761 1040 761 1040 763 1022 c 0,34,35
 813 592 813 592 872 337 c 0,36,37
 903 201 903 201 965 185 c 0,0,1
EndSplineSet
EndChar

StartChar: aDal.isol
Encoding: 65548 -1 12
Width: 923
Flags: W
AnchorPoint: "VAbove" 420 1100 basechar 0
AnchorPoint: "TashkilBelow" 500 -670 basechar 0
AnchorPoint: "TashkilAbove" 420 1640 basechar 0
AnchorPoint: "TwoDotsBelow" 389 -300 basechar 0
AnchorPoint: "TwoDotsAbove" 309 1200 basechar 0
AnchorPoint: "RingBelow" 490 110 basechar 0
AnchorPoint: "TaaAbove" 420 1100 basechar 0
AnchorPoint: "HamzaBelow" 500 -300 basechar 0
AnchorPoint: "HamzaAbove" 420 1200 basechar 0
AnchorPoint: "DotBelow" 500 -300 basechar 0
AnchorPoint: "DotAbove" 420 1200 basechar 0
LayerCount: 2
Fore
SplineSet
349 659 m 0,0,1
 382 759 382 759 408 789 c 0,2,3
 425 809 425 809 454 793 c 0,4,5
 727 642 727 642 773 390 c 24,6,7
 799 248 799 248 761 140 c 0,8,9
 750 108 750 108 718 91 c 0,10,11
 523 -9 523 -9 288 -12 c 0,12,13
 125 -14 125 -14 174 196 c 0,14,15
 180 220 180 220 199 223 c 0,16,17
 211 224 211 224 230 208 c 0,18,19
 269 175 269 175 383 190 c 24,20,21
 631 222 631 222 708 268 c 0,22,23
 715 272 715 272 712 292 c 0,24,25
 674 497 674 497 379 612 c 0,26,27
 339 628 339 628 349 659 c 0,0,1
EndSplineSet
EndChar

StartChar: aFaa.fina
Encoding: 65549 -1 13
Width: 2060
Flags: W
AnchorPoint: "DotAlt" 900 -500 basechar 0
AnchorPoint: "TwoDotsBelow" 1600 -300 basechar 0
AnchorPoint: "DotBelow" 1700 -300 basechar 0
AnchorPoint: "TashkilBelow" 1000 -670 basechar 0
AnchorPoint: "TashkilAbove" 1400 1640 basechar 0
AnchorPoint: "HamzaAbove" 1400 1000 basechar 0
AnchorPoint: "TwoDotsAbove" 1300 1000 basechar 0
AnchorPoint: "DotAbove" 1400 1000 basechar 0
LayerCount: 2
Fore
SplineSet
1608 578 m 0,0,1
 1737 769 1737 769 1826 690 c 24,2,3
 1938 590 1938 590 1900 372 c 0,4,5
 1887 298 1887 298 1838 204 c 1,6,7
 1914 174 1914 174 2060 185 c 0,8,9
 2110 188 2110 188 2110 122 c 0,10,11
 2110 3 2110 3 2060 0 c 0,12,13
 1842 -15 1842 -15 1703 52 c 1,14,15
 1580 -32 1580 -32 1378 -94 c 0,16,17
 940 -227 940 -227 554 -174 c 0,18,19
 353 -146 353 -146 241.5 -65.5 c 128,-1,20
 130 15 130 15 130 143 c 128,-1,21
 130 271 130 271 251 469 c 0,22,23
 259 482 259 482 272.5 482 c 128,-1,24
 286 482 286 482 292.5 470.5 c 128,-1,25
 299 459 299 459 290 444 c 24,26,27
 208 299 208 299 243 234 c 0,28,29
 360 18 360 18 767 25 c 0,30,31
 1242 33 1242 33 1542 150 c 1,32,33
 1468 204 1468 204 1492.5 324 c 128,-1,34
 1517 444 1517 444 1608 578 c 0,0,1
1721 509 m 0,35,36
 1638 519 1638 519 1580 354 c 1,37,38
 1590 320 1590 320 1619 291.5 c 128,-1,39
 1648 263 1648 263 1677 253 c 128,-1,40
 1706 243 1706 243 1754 268 c 128,-1,41
 1802 293 1802 293 1817 320 c 1,42,43
 1812 499 1812 499 1721 509 c 0,35,36
EndSplineSet
EndChar

StartChar: aFaa.init
Encoding: 65550 -1 14
Width: 605
Flags: W
AnchorPoint: "TwoDotsBelow" 200 -300 basechar 0
AnchorPoint: "DotBelow" 300 -300 basechar 0
AnchorPoint: "TashkilBelow" 300 -670 basechar 0
AnchorPoint: "TashkilAbove" 160 1640 basechar 0
AnchorPoint: "TwoDotsAbove" 120 1150 basechar 0
AnchorPoint: "HamzaAbove" 160 1150 basechar 0
AnchorPoint: "DotAbove" 160 1150 basechar 0
LayerCount: 2
Fore
SplineSet
236 838 m 0,0,1
 263 838 263 838 302 804 c 0,2,3
 485 643 485 643 475 399 c 0,4,5
 470 270 470 270 412 194 c 0,6,7
 262 0 262 0 0 0 c 1,8,9
 -26 -1 -26 -1 -38 46.5 c 128,-1,10
 -50 94 -50 94 -39.5 138.5 c 128,-1,11
 -29 183 -29 183 0 185 c 0,12,13
 256 202 256 202 385 331 c 1,14,15
 380 392 380 392 366 412 c 128,-1,16
 352 432 352 432 343 430 c 128,-1,17
 334 428 334 428 331 421 c 0,18,19
 296 332 296 332 225 316 c 0,20,21
 0 268 0 268 19 490 c 0,22,23
 28 599 28 599 100 719 c 128,-1,24
 172 839 172 839 236 838 c 0,0,1
168 616 m 0,25,26
 121 614 121 614 112 537 c 0,27,28
 111 526 111 526 115 525 c 0,29,30
 155 513 155 513 198 519 c 128,-1,31
 241 525 241 525 253 544 c 1,32,33
 206 618 206 618 168 616 c 0,25,26
EndSplineSet
EndChar

StartChar: aFaa.isol
Encoding: 65551 -1 15
Width: 2015
Flags: W
AnchorPoint: "DotAlt" 1000 -300 basechar 0
AnchorPoint: "TwoDotsBelow" 1600 -100 basechar 0
AnchorPoint: "DotBelow" 1700 -100 basechar 0
AnchorPoint: "TashkilBelow" 1078 -670 basechar 0
AnchorPoint: "TashkilAbove" 1300 1640 basechar 0
AnchorPoint: "TwoDotsAbove" 1189 1350 basechar 0
AnchorPoint: "DotAbove" 1300 1350 basechar 0
AnchorPoint: "HamzaAbove" 1300 1350 basechar 0
LayerCount: 2
Fore
SplineSet
1631 1032 m 0,0,1
 1714 1058 1714 1058 1793 931.5 c 128,-1,2
 1872 805 1872 805 1885 576 c 0,3,4
 1890 492 1890 492 1865 434 c 24,5,6
 1811 306 1811 306 1612.5 203 c 128,-1,7
 1414 100 1414 100 1156 42 c 128,-1,8
 898 -16 898 -16 683 -17 c 0,9,10
 166 -20 166 -20 131 306 c 0,11,12
 125 362 125 362 146 464.5 c 128,-1,13
 167 567 167 567 234 661 c 0,14,15
 244 675 244 675 257 673.5 c 128,-1,16
 270 672 270 672 274.5 659.5 c 128,-1,17
 279 647 279 647 271 634 c 0,18,19
 125 399 125 399 270 295 c 0,20,21
 483 141 483 141 944 196 c 0,22,23
 1321 241 1321 241 1699 434 c 0,24,25
 1810 490 1810 490 1826 564 c 1,26,27
 1817 614 1817 614 1773 649 c 0,28,29
 1769 653 1769 653 1762 640 c 0,30,31
 1706 532 1706 532 1622 520 c 0,32,33
 1456 496 1456 496 1429 651 c 0,34,35
 1411 756 1411 756 1546 964 c 24,36,37
 1580 1016 1580 1016 1631 1032 c 0,0,1
1652 743 m 0,38,39
 1672 762 1672 762 1650 781 c 0,40,41
 1577 843 1577 843 1536 769 c 0,42,43
 1526 751 1526 751 1538 740 c 0,44,45
 1596 690 1596 690 1652 743 c 0,38,39
EndSplineSet
EndChar

StartChar: aFaa.medi
Encoding: 65552 -1 16
Width: 775
Flags: W
AnchorPoint: "TwoDotsBelow" 270 -300 basechar 0
AnchorPoint: "DotBelow" 370 -300 basechar 0
AnchorPoint: "TashkilBelow" 330 -670 basechar 0
AnchorPoint: "TashkilAbove" 450 1640 basechar 0
AnchorPoint: "TwoDotsAbove" 300 1200 basechar 0
AnchorPoint: "DotAbove" 485 1200 basechar 0
AnchorPoint: "HamzaAbove" 400 1200 basechar 0
LayerCount: 2
Fore
SplineSet
579 776 m 0,0,1
 591 776 591 776 599 772 c 0,2,3
 648 742 648 742 662 660 c 0,4,5
 689 503 689 503 627 367 c 0,6,7
 597 301 597 301 553 236 c 1,8,9
 680 189 680 189 775 185 c 0,10,11
 794 184 794 184 798 134 c 0,12,13
 810 3 810 3 775 0 c 0,14,15
 607 -17 607 -17 352 118 c 1,16,17
 278 82 278 82 157.5 41.5 c 128,-1,18
 37 1 37 1 0 0 c 0,19,20
 -25 -1 -25 -1 -36 44.5 c 128,-1,21
 -47 90 -47 90 -37 135.5 c 128,-1,22
 -27 181 -27 181 -0 185 c 0,23,24
 116 202 116 202 217 237 c 1,25,26
 202 328 202 328 241 432 c 0,27,28
 304 602 304 602 472 728 c 0,29,30
 536 776 536 776 579 776 c 0,0,1
487 560 m 1,31,32
 390 568 390 568 309 455 c 1,33,34
 286 426 286 426 331 365 c 128,-1,35
 376 304 376 304 436 304 c 128,-1,36
 496 304 496 304 571 382 c 1,37,38
 576 540 576 540 487 560 c 1,31,32
EndSplineSet
EndChar

StartChar: aHaa.fina
Encoding: 65553 -1 17
Width: 1310
Flags: W
AnchorPoint: "DigitBelow" 800 -70 basechar 0
AnchorPoint: "TaaBelow" 700 300 basechar 0
AnchorPoint: "TaaAbove" 700 900 basechar 0
AnchorPoint: "TashkilBelow" 800 -50 basechar 0
AnchorPoint: "TashkilAbove" 700 1640 basechar 0
AnchorPoint: "TwoDotsBelow" 689 -320 basechar 0
AnchorPoint: "TwoDotsAbove" 589 900 basechar 0
AnchorPoint: "DotBelow" 800 -320 basechar 0
AnchorPoint: "HamzaBelow" 800 -320 basechar 0
AnchorPoint: "HamzaAbove" 700 900 basechar 0
AnchorPoint: "DotAbove" 700 900 basechar 0
LayerCount: 2
Fore
SplineSet
428 533 m 0,0,1
 507 534 507 534 670 506 c 0,2,3
 977 454 977 454 1251 505 c 0,4,5
 1311 516 1311 516 1287 464 c 2,6,-1
 1240 358 l 2,7,8
 1232 341 1232 341 1217 339 c 0,9,10
 1070 320 1070 320 967 299 c 1,11,12
 980 252 980 252 1021 226 c 0,13,14
 1114 167 1114 167 1310 185 c 24,15,16
 1348 188 1348 188 1358 140 c 128,-1,17
 1368 92 1368 92 1351.5 47 c 128,-1,18
 1335 2 1335 2 1310 0 c 0,19,20
 933 -21 933 -21 890 142 c 0,21,22
 872 212 872 212 884 282 c 1,23,24
 667 231 667 231 536 146 c 0,25,26
 373 40 373 40 292 -126 c 128,-1,27
 211 -292 211 -292 235 -447 c 0,28,29
 273 -691 273 -691 521 -813 c 24,30,31
 686 -894 686 -894 1231 -848 c 0,32,33
 1495 -826 1495 -826 1499 -825 c 0,34,35
 1544 -822 1544 -822 1544 -844 c 128,-1,36
 1544 -866 1544 -866 1489 -884 c 0,37,38
 1401 -912 1401 -912 1321 -965.5 c 128,-1,39
 1241 -1019 1241 -1019 1223.5 -1027.5 c 128,-1,40
 1206 -1036 1206 -1036 1188 -1038 c 0,41,42
 562 -1109 562 -1109 318 -924 c 0,43,44
 110 -766 110 -766 131 -461 c 0,45,46
 170 95 170 95 643 323 c 1,47,48
 386 385 386 385 207 295 c 0,49,50
 195 289 195 289 182.5 294 c 128,-1,51
 170 299 170 299 170 310 c 0,52,53
 177 530 177 530 428 533 c 0,0,1
EndSplineSet
EndChar

StartChar: aHaa.init
Encoding: 65554 -1 18
Width: 1343
Flags: W
AnchorPoint: "DigitBelow" 620 -202 basechar 0
AnchorPoint: "TaaBelow" 620 198 basechar 0
AnchorPoint: "TaaAbove" 620 950 basechar 0
AnchorPoint: "TashkilBelow" 620 -670 basechar 0
AnchorPoint: "TashkilAbove" 620 1640 basechar 0
AnchorPoint: "TwoDotsBelow" 509 -202 basechar 0
AnchorPoint: "TwoDotsAbove" 520 950 basechar 0
AnchorPoint: "HamzaBelow" 620 -202 basechar 0
AnchorPoint: "HamzaAbove" 620 950 basechar 0
AnchorPoint: "DotBelow" 620 -202 basechar 0
AnchorPoint: "DotAbove" 620 950 basechar 0
LayerCount: 2
Back
SplineSet
12 447 m 0,0,1
 28 510 28 510 95 575 c 128,-1,2
 162 640 162 640 239 641 c 128,-1,3
 316 642 316 642 596 525 c 0,4,5
 698 482 698 482 855.5 452.5 c 128,-1,6
 1013 423 1013 423 1179 434 c 0,7,8
 1224 437 1224 437 1206 398 c 2,9,-1
 1149 272 l 2,10,11
 1138 248 1138 248 1105 253 c 0,12,13
 872 292 872 292 667 232 c 1,14,15
 414 148 414 148 263 73 c 128,-1,16
 112 -2 112 -2 20 0 c 0,17,18
 7 0 7 0 -1 20 c 0,19,20
 -25 83 -25 83 -11.5 133 c 128,-1,21
 2 183 2 183 20 185 c 0,22,23
 290 206 290 206 543 333 c 1,24,25
 271 489 271 489 45 418 c 0,26,27
 29 413 29 413 18.5 422.5 c 128,-1,28
 8 432 8 432 12 447 c 0,0,1
-80 51 m 0,0,1
 -114 95 -114 95 -136 153 c 0,2,3
 -141 166 -141 166 -146.5 169.5 c 128,-1,4
 -152 173 -152 173 -155.5 169.5 c 128,-1,5
 -159 166 -159 166 -160 159 c 0,6,7
 -169 106 -169 106 -200 48 c 0,8,9
 -232 -12 -232 -12 -254 -23 c 0,10,11
 -295 -43 -295 -43 -381 -13.5 c 128,-1,12
 -467 16 -467 16 -494 78 c 1,13,14
 -568 -39 -568 -39 -707 -37 c 0,15,16
 -780 -36 -780 -36 -820.5 7.5 c 128,-1,17
 -861 51 -861 51 -878 104 c 0,18,19
 -879 107 -879 107 -882.5 107.5 c 128,-1,20
 -886 108 -886 108 -888 105 c 0,21,22
 -930 59 -930 59 -965.5 35.5 c 128,-1,23
 -1001 12 -1001 12 -1055 0 c 0,24,25
 -1079 -5 -1079 -5 -1091 35 c 0,26,27
 -1112 103 -1112 103 -1087 160 c 0,28,29
 -1076 186 -1076 186 -1059 183 c 0,30,31
 -1030 178 -1030 178 -986 183 c 128,-1,32
 -942 188 -942 188 -873 223 c 128,-1,33
 -804 258 -804 258 -758 322 c 0,34,35
 -740 347 -740 347 -718 329 c 0,36,37
 -708 321 -708 321 -713 312 c 0,38,39
 -739 268 -739 268 -730 229 c 0,40,41
 -724 202 -724 202 -698 181 c 128,-1,42
 -672 160 -672 160 -642 161 c 0,43,44
 -569 163 -569 163 -503 210 c 128,-1,45
 -437 257 -437 257 -399 341 c 0,46,47
 -392 356 -392 356 -379.5 357 c 128,-1,48
 -367 358 -367 358 -358.5 348 c 128,-1,49
 -350 338 -350 338 -355 325 c 0,50,51
 -373 277 -373 277 -376 258 c 0,52,53
 -379 240 -379 240 -373 233 c 0,54,55
 -351 209 -351 209 -313.5 195.5 c 128,-1,56
 -276 182 -276 182 -247 182 c 0,57,58
 -223 182 -223 182 -211 202 c 0,59,60
 -198 223 -198 223 -176 275 c 0,61,62
 -154 326 -154 326 -152 334 c 0,63,64
 -143 352 -143 352 -129.5 348.5 c 128,-1,65
 -116 345 -116 345 -112 326 c 0,66,67
 -98 270 -98 270 -68 229.5 c 128,-1,68
 -38 189 -38 189 -1 185 c 0,69,70
 47 179 47 179 41 84 c 0,71,72
 35 -1 35 -1 0 0 c 1,73,74
 -42 0 -42 0 -80 51 c 0,0,1
EndSplineSet
Fore
SplineSet
12 447 m 0,0,1
 28 510 28 510 95 575 c 128,-1,2
 162 640 162 640 239 641 c 128,-1,3
 316 642 316 642 596 525 c 0,4,5
 698 482 698 482 855.5 452.5 c 128,-1,6
 1013 423 1013 423 1179 434 c 0,7,8
 1224 437 1224 437 1206 398 c 2,9,-1
 1149 272 l 2,10,11
 1138 248 1138 248 1105 253 c 0,12,13
 872 292 872 292 667 232 c 1,14,15
 414 148 414 148 263 73 c 0,16,17
 116 0 116 0 0 0 c 0,18,19
 -13 0 -13 0 -21 20 c 0,20,21
 -45 83 -45 83 -31.5 133 c 128,-1,22
 -18 183 -18 183 0 185 c 0,23,24
 294 206 294 206 543 333 c 1,25,26
 271 489 271 489 45 418 c 0,27,28
 29 413 29 413 18.5 422.5 c 128,-1,29
 8 432 8 432 12 447 c 0,0,1
EndSplineSet
EndChar

StartChar: aHaa.isol
Encoding: 65555 -1 19
Width: 1355
Flags: W
AnchorPoint: "DigitBelow" 800 -70 basechar 0
AnchorPoint: "TaaBelow" 800 300 basechar 0
AnchorPoint: "TaaAbove" 700 900 basechar 0
AnchorPoint: "TashkilBelow" 800 100 basechar 0
AnchorPoint: "TashkilAbove" 700 1640 basechar 0
AnchorPoint: "TwoDotsBelow" 689 -320 basechar 0
AnchorPoint: "TwoDotsAbove" 589 900 basechar 0
AnchorPoint: "HamzaBelow" 800 -320 basechar 0
AnchorPoint: "DotAbove" 700 900 basechar 0
AnchorPoint: "HamzaAbove" 700 900 basechar 0
AnchorPoint: "DotBelow" 800 -320 basechar 0
LayerCount: 2
Fore
SplineSet
1296 463 m 2,0,-1
 1247 353 l 2,1,2
 1239 336 1239 336 1224 334 c 0,3,4
 734 269 734 269 538 141 c 0,5,6
 153 -111 153 -111 237 -467 c 0,7,8
 283 -665 283 -665 533 -775 c 0,9,10
 668 -834 668 -834 961 -851.5 c 128,-1,11
 1254 -869 1254 -869 1505 -846 c 0,12,13
 1537 -843 1537 -843 1546 -854.5 c 128,-1,14
 1555 -866 1555 -866 1545.5 -880 c 128,-1,15
 1536 -894 1536 -894 1520 -899 c 0,16,17
 1396 -935 1396 -935 1325 -978 c 0,18,19
 1220 -1041 1220 -1041 1195 -1043 c 0,20,21
 593 -1096 593 -1096 326 -901 c 128,-1,22
 59 -706 59 -706 154 -290 c 128,-1,23
 249 126 249 126 650 318 c 1,24,25
 373 385 373 385 235 304 c 0,26,27
 223 297 223 297 211.5 299.5 c 128,-1,28
 200 302 200 302 200 313 c 0,29,30
 202 361 202 361 221 414 c 0,31,32
 259 521 259 521 418 530 c 0,33,34
 497 534 497 534 670 500 c 152,-1,35
 843 466 843 466 962.5 468 c 128,-1,36
 1082 470 1082 470 1257 500 c 0,37,38
 1317 510 1317 510 1296 463 c 2,0,-1
EndSplineSet
EndChar

StartChar: aHaa.medi
Encoding: 65556 -1 20
Width: 1250
Flags: W
AnchorPoint: "DigitBelow" 600 -190 basechar 0
AnchorPoint: "TaaBelow" 600 210 basechar 0
AnchorPoint: "TaaAbove" 650 950 basechar 0
AnchorPoint: "TashkilBelow" 600 -670 basechar 0
AnchorPoint: "TashkilAbove" 650 1640 basechar 0
AnchorPoint: "TwoDotsBelow" 489 -190 basechar 0
AnchorPoint: "TwoDotsAbove" 550 950 basechar 0
AnchorPoint: "DotAbove" 650 950 basechar 0
AnchorPoint: "DotBelow" 600 -190 basechar 0
AnchorPoint: "HamzaBelow" 600 -190 basechar 0
AnchorPoint: "HamzaAbove" 650 950 basechar 0
LayerCount: 2
Fore
SplineSet
284 639 m 0,0,1
 331 642 331 642 582 541 c 24,2,3
 711 489 711 489 886 463 c 128,-1,4
 1061 437 1061 437 1219 459 c 0,5,6
 1248 463 1248 463 1240 429 c 0,7,8
 1219 339 1219 339 1196 284 c 24,9,10
 1190 269 1190 269 1172 271 c 0,11,12
 1069 279 1069 279 994 281 c 1,13,14
 963 221 963 221 1043.5 197.5 c 128,-1,15
 1124 174 1124 174 1250 185 c 0,16,17
 1333 192 1333 192 1289 46 c 0,18,19
 1276 3 1276 3 1250 0 c 0,20,21
 1094 -20 1094 -20 994 14 c 0,22,23
 857 62 857 62 908 240 c 0,24,25
 916 268 916 268 918 277 c 1,26,27
 730 266 730 266 526 205 c 0,28,29
 442 180 442 180 262 90 c 128,-1,30
 82 0 82 0 0 0 c 0,31,32
 -28 0 -28 0 -44 40 c 128,-1,33
 -60 80 -60 80 -50 128 c 0,34,35
 -39 179 -39 179 0 185 c 0,36,37
 176 216 176 216 282 263 c 0,38,39
 416 325 416 325 476 342 c 0,40,41
 496 348 496 348 494 358 c 0,42,43
 494 366 494 366 478 373 c 0,44,45
 324 439 324 439 233.5 447 c 128,-1,46
 143 455 143 455 66 412 c 0,47,48
 48 402 48 402 32.5 406.5 c 128,-1,49
 17 411 17 411 24 436 c 0,50,51
 77 626 77 626 284 639 c 0,0,1
EndSplineSet
EndChar

StartChar: aHeh.fina
Encoding: 65557 -1 21
Width: 777
Flags: W
AnchorPoint: "TashkilBelow" 390 -670 basechar 0
AnchorPoint: "TashkilAbove" 290 1640 basechar 0
AnchorPoint: "TwoDotsAbove" 179 1100 basechar 0
AnchorPoint: "HamzaAbove" 400 1100 basechar 0
AnchorPoint: "DotAbove" 290 1100 basechar 0
LayerCount: 2
Fore
SplineSet
525 900 m 2,0,1
 553 938 553 938 558 882 c 0,2,3
 561 843 561 843 587 640.5 c 128,-1,4
 613 438 613 438 617 401 c 0,5,6
 633 237 633 237 687 203 c 0,7,8
 719 183 719 183 777 185 c 0,9,10
 813 186 813 186 818.5 142 c 128,-1,11
 824 98 824 98 810 50 c 128,-1,12
 796 2 796 2 777 0 c 24,13,14
 660 -10 660 -10 605.5 58 c 128,-1,15
 551 126 551 126 529 302 c 1,16,17
 470 191 470 191 410 167 c 0,18,19
 369 151 369 151 285.5 165.5 c 128,-1,20
 202 180 202 180 164 210 c 128,-1,21
 126 240 126 240 132 282.5 c 128,-1,22
 138 325 138 325 171 393.5 c 128,-1,23
 204 462 204 462 224 482 c 0,24,25
 333 585 333 585 482 666 c 1,26,27
 476 750 476 750 475.5 790.5 c 152,-1,28
 475 831 475 831 494 857 c 2,29,-1
 525 900 l 2,0,1
496 541 m 1,30,31
 337 496 337 496 267 403 c 0,32,33
 258 390 258 390 272 382 c 1,34,35
 356 341 356 341 494 371 c 0,36,37
 506 374 506 374 517 385 c 1,38,39
 510 450 510 450 496 541 c 1,30,31
EndSplineSet
EndChar

StartChar: aHeh.init
Encoding: 65558 -1 22
Width: 926
Flags: W
AnchorPoint: "TashkilBelow" 400 -670 basechar 0
AnchorPoint: "TashkilAbove" 300 1640 basechar 0
LayerCount: 2
Fore
SplineSet
176 659 m 0,0,1
 224 844 224 844 311.5 840 c 128,-1,2
 399 836 399 836 587 657 c 128,-1,3
 775 478 775 478 793 370 c 0,4,5
 816 236 816 236 729 132 c 0,6,7
 685 80 685 80 622 86 c 0,8,9
 460 103 460 103 272 175 c 1,10,11
 76 0 76 0 0 0 c 0,12,13
 -19 -1 -19 -1 -33 33 c 0,14,15
 -93 171 -93 171 0 184 c 0,16,17
 76 194 76 194 142 242 c 1,18,19
 85 289 85 289 110 367 c 0,20,21
 153 499 153 499 261 594 c 1,22,23
 240 627 240 627 194 633 c 0,24,25
 170 636 170 636 176 659 c 0,0,1
325 337 m 1,26,27
 393 371 393 371 393 392 c 1,28,29
 385 499 385 499 329 510 c 0,30,31
 246 527 246 527 176 439 c 24,32,33
 156 414 156 414 191 391 c 128,-1,34
 226 368 226 368 325 337 c 1,26,27
479 485 m 0,35,36
 471 491 471 491 472 482 c 0,37,38
 481 416 481 416 401 312 c 1,39,40
 640 237 640 237 682 262 c 0,41,42
 695 269 695 269 692 279 c 0,43,44
 653 375 653 375 479 485 c 0,35,36
EndSplineSet
EndChar

StartChar: aHeh.isol
Encoding: 65559 -1 23
Width: 756
Flags: W
AnchorPoint: "TashkilBelow" 410 -670 basechar 0
AnchorPoint: "TashkilAbove" 368 1640 basechar 0
AnchorPoint: "TwoDotsAbove" 257 1090 basechar 0
AnchorPoint: "DotAbove" 368 1090 basechar 0
AnchorPoint: "HamzaAbove" 368 1090 basechar 0
LayerCount: 2
Fore
SplineSet
324 667 m 0,0,1
 358 691 358 691 407 662 c 0,2,3
 540 584 540 584 594.5 464 c 128,-1,4
 649 344 649 344 620.5 218 c 152,-1,5
 592 92 592 92 516 22 c 128,-1,6
 440 -48 440 -48 337 -49 c 0,7,8
 198 -51 198 -51 153.5 48.5 c 128,-1,9
 109 148 109 148 151.5 314 c 128,-1,10
 194 480 194 480 309 612 c 0,11,12
 313 616 313 616 313 638 c 128,-1,13
 313 660 313 660 324 667 c 0,0,1
518 227 m 0,14,15
 543 246 543 246 508 288 c 0,16,17
 413 405 413 405 326 403 c 0,18,19
 282 402 282 402 251 345 c 128,-1,20
 220 288 220 288 229 251 c 0,21,22
 246 176 246 176 347.5 176 c 128,-1,23
 449 176 449 176 518 227 c 0,14,15
EndSplineSet
EndChar

StartChar: aHeh.medi
Encoding: 65560 -1 24
Width: 800
Flags: W
AnchorPoint: "TashkilBelow" 400 -670 basechar 0
AnchorPoint: "TashkilAbove" 400 1640 basechar 0
LayerCount: 2
Fore
SplineSet
581 717 m 24,0,1
 625 698 625 698 629 632 c 0,2,3
 650 324 650 324 434 135 c 1,4,5
 544 125 544 125 800 185 c 0,6,7
 817 189 817 189 828 163 c 0,8,9
 853 105 853 105 827 34 c 0,10,11
 816 4 816 4 800 0 c 0,12,13
 695 -23 695 -23 606 -18 c 1,14,15
 674 -90 674 -90 661 -259 c 0,16,17
 655 -332 655 -332 604 -401 c 128,-1,18
 553 -470 553 -470 482 -471 c 0,19,20
 261 -474 261 -474 216 -55 c 1,21,-1
 157 -47 l 1,22,-1
 158 51 l 1,23,24
 57 0 57 0 0 0 c 0,25,26
 -40 0 -40 0 -57 138 c 0,27,28
 -62 182 -62 182 0 185 c 0,29,30
 114 190 114 190 240 234 c 1,31,32
 322 455 322 455 480 639 c 0,33,34
 556 728 556 728 581 717 c 24,0,1
483 479 m 0,35,36
 466 479 466 479 455 473 c 0,37,38
 330 402 330 402 291 247 c 1,39,40
 486 324 486 324 546 411 c 0,41,42
 558 427 558 427 549 443 c 0,43,44
 528 480 528 480 483 479 c 0,35,36
299 -65 m 1,45,46
 335 -228 335 -228 431 -270 c 0,47,48
 509 -303 509 -303 589 -255 c 0,49,50
 612 -241 612 -241 596 -216 c 1,51,52
 520 -106 520 -106 299 -65 c 1,45,46
EndSplineSet
EndChar

StartChar: aKaf.fina
Encoding: 65561 -1 25
Width: 1685
Flags: W
AnchorPoint: "TwoDotsBelow" 620 -250 basechar 0
AnchorPoint: "DotBelow" 730 -250 basechar 0
AnchorPoint: "RingBelow" 750 40 basechar 0
AnchorPoint: "DotAbove" 1400 1650 basechar 0
AnchorPoint: "TwoDotsAbove" 1220 1650 basechar 0
AnchorPoint: "TashkilBelow" 800 -670 basechar 0
AnchorPoint: "TashkilAbove" 730 1640 basechar 0
AnchorPoint: "Dash" 1452 1451 basechar 0
AnchorPoint: "HamzaAbove" 730 626 basechar 0
LayerCount: 2
Fore
SplineSet
1413 1453 m 2,0,1
 1435 1486 1435 1486 1439.5 1445 c 152,-1,2
 1444 1404 1444 1404 1471 1048 c 0,3,4
 1516 461 1516 461 1551 362 c 0,5,6
 1603 214 1603 214 1685 185 c 1,7,8
 1726 172 1726 172 1734.5 126.5 c 128,-1,9
 1743 81 1743 81 1724 40.5 c 128,-1,10
 1705 0 1705 0 1685 0 c 0,11,12
 1486 0 1486 0 1448 358 c 1,13,14
 1413 276 1413 276 1345 192.5 c 128,-1,15
 1277 109 1277 109 1206 73 c 0,16,17
 971 -47 971 -47 685 -57 c 0,18,19
 264 -71 264 -71 158 128 c 0,20,21
 129 182 129 182 130 238 c 0,22,23
 136 439 136 439 258 586 c 0,24,25
 268 598 268 598 282 597 c 128,-1,26
 296 596 296 596 299.5 584.5 c 128,-1,27
 303 573 303 573 289 552 c 0,28,29
 200 415 200 415 213 353 c 24,30,31
 257 142 257 142 652 136 c 0,32,33
 924 132 924 132 1209 244 c 0,34,35
 1308 283 1308 283 1363 364 c 0,36,37
 1378 386 1378 386 1382.5 453.5 c 128,-1,38
 1387 521 1387 521 1358 857.5 c 128,-1,39
 1329 1194 1329 1194 1329 1195 c 0,40,41
 1316 1309 1316 1309 1344 1350 c 2,42,-1
 1413 1453 l 2,0,1
EndSplineSet
EndChar

StartChar: aKaf.init.alt
Encoding: 65562 -1 26
Width: 3346
Flags: W
AnchorPoint: "TashkilBelow" 1500 -670 basechar 0
AnchorPoint: "TashkilAbove" 564 1640 basechar 0
LayerCount: 2
Fore
SplineSet
0 185 m 1,0,1
 633 133 633 133 1485 195 c 0,2,3
 1883 224 1883 224 3067 348 c 0,4,5
 3088 350 3088 350 3075 373 c 0,6,7
 3001 510 3001 510 2881 522 c 0,8,9
 2706 540 2706 540 2288 500 c 128,-1,10
 1870 460 1870 460 1365.5 423.5 c 128,-1,11
 861 387 861 387 438 423 c 0,12,13
 212 441 212 441 171 526 c 0,14,15
 157 556 157 556 172 588 c 0,16,17
 226 703 226 703 291 770 c 0,18,19
 628 1112 628 1112 1236 1287 c 25,20,21
 1270 1295 1270 1295 1265 1269 c 2,22,-1
 1235 1123 l 1,23,24
 1230 1104 1230 1104 1208 1098 c 0,25,26
 933 1020 933 1020 689.5 903 c 128,-1,27
 446 786 446 786 314 664 c 0,28,29
 301 652 301 652 311 645 c 0,30,31
 418 570 418 570 1031 573 c 0,32,33
 1450 575 1450 575 2050 635.5 c 128,-1,34
 2650 696 2650 696 2892 693 c 0,35,36
 3031 691 3031 691 3119 610.5 c 128,-1,37
 3207 530 3207 530 3216 406 c 1,38,39
 3220 368 3220 368 3150.5 265 c 128,-1,40
 3081 162 3081 162 3030 159 c 1,41,42
 2882 146 2882 146 2190 86 c 0,43,44
 1498 21 1498 21 1416 16 c 24,45,46
 479 -46 479 -46 0 -1 c 1,47,48
 -37 0 -37 0 -52.5 46 c 128,-1,49
 -68 92 -68 92 -52.5 139 c 128,-1,50
 -37 186 -37 186 0 185 c 1,0,1
EndSplineSet
EndChar

StartChar: aKaf.init
Encoding: 65563 -1 27
Width: 1350
Flags: W
AnchorPoint: "Dash" 624 1406 basechar 0
AnchorPoint: "TashkilAbove" 650 1640 basechar 0
AnchorPoint: "TashkilBelow" 550 -670 basechar 0
AnchorPoint: "TwoDotsAbove" 172 1426 basechar 0
AnchorPoint: "DotAbove" 282 1426 basechar 0
AnchorPoint: "TwoDotsBelow" 160 -164 basechar 0
AnchorPoint: "DotBelow" 270 -164 basechar 0
AnchorPoint: "RingBelow" 620 1236 basechar 0
LayerCount: 2
Back
SplineSet
1174 1538 m 0,0,1
 1191 1545 1191 1545 1202 1545 c 0,2,3
 1221 1545 1221 1545 1220 1524 c 0,4,5
 1220 1516 1220 1516 1218 1506 c 2,6,-1
 1188 1376 l 2,7,8
 1182 1350 1182 1350 1156 1338 c 0,9,10
-198 776 m 0,0,1
 -186 776 -186 776 -178 772 c 0,2,3
 -129 742 -129 742 -115 660 c 0,4,5
 -88 503 -88 503 -150 367 c 0,6,7
 -180 301 -180 301 -224 236 c 1,8,9
 -97 189 -97 189 -2 185 c 0,10,11
 17 184 17 184 21 134 c 0,12,13
 33 3 33 3 -2 0 c 0,14,15
 -170 -17 -170 -17 -425 118 c 1,16,17
 -499 82 -499 82 -619.5 41.5 c 128,-1,18
 -740 1 -740 1 -777 0 c 0,19,20
 -802 -1 -802 -1 -813 44.5 c 128,-1,21
 -824 90 -824 90 -814 135.5 c 128,-1,22
 -804 181 -804 181 -777 185 c 0,23,24
 -661 202 -661 202 -560 237 c 1,25,26
 -575 328 -575 328 -536 432 c 0,27,28
 -473 602 -473 602 -305 728 c 0,29,30
 -241 776 -241 776 -198 776 c 0,0,1
-290 560 m 1,31,32
 -387 568 -387 568 -468 455 c 1,33,34
 -491 426 -491 426 -446 365 c 128,-1,35
 -401 304 -401 304 -341 304 c 128,-1,36
 -281 304 -281 304 -206 382 c 1,37,38
 -201 540 -201 540 -290 560 c 1,31,32
0 185 m 1,0,1
 34 177 34 177 38 161 c 128,-1,2
 42 145 42 145 38 113 c 0,3,4
 23 0 23 0 0 0 c 0,5,6
 -110 -1 -110 -1 -222 124 c 1,7,8
 -313 13 -313 13 -500 0 c 0,9,10
 -519 -1 -519 -1 -526 31 c 2,11,-1
 -544 116 l 2,12,13
 -549 137 -549 137 -535.5 160 c 128,-1,14
 -522 183 -522 183 -500 185 c 0,15,16
 -272 202 -272 202 -196 319 c 0,17,18
 -185 336 -185 336 -168 336 c 128,-1,19
 -151 336 -151 336 -149.5 317 c 128,-1,20
 -148 298 -148 298 -145 292 c 1,21,22
 -78 200 -78 200 0 185 c 1,0,1
1 880 m 0,0,1
 9 927 9 927 67 990 c 0,2,3
 233 1173 233 1173 1184 1505 c 1,4,5
 1229 1522 1229 1522 1217 1482 c 2,6,-1
 1183 1374 l 2,7,8
 1175 1345 1175 1345 1156 1338 c 0,9,10
 189 1023 189 1023 74 882 c 1,11,12
 66 874 66 874 78 868 c 1,13,14
 270 791 270 791 418.5 646 c 128,-1,15
 567 501 567 501 572 354 c 1,16,17
 575 39 575 39 276 1 c 0,18,19
 235 -4 235 -4 216 46 c 128,-1,20
 197 96 197 96 209.5 146.5 c 128,-1,21
 222 197 222 197 257 203 c 0,22,23
 414 228 414 228 526 328 c 0,24,25
 532 334 532 334 530 342 c 1,26,27
 378 576 378 576 13 719 c 0,28,29
 -24 733 -24 733 1 880 c 0,0,1
EndSplineSet
Fore
SplineSet
0 185 m 0,0,1
 336 137 336 137 526 327 c 0,2,3
 532 333 532 333 530 341 c 1,4,5
 404 545 404 545 102 697 c 1,6,7
 68 714 68 714 65 824 c 0,8,9
 60 979 60 979 127 1039 c 0,10,11
 418 1299 418 1299 1190 1540 c 0,12,13
 1206 1545 1206 1545 1214 1545 c 0,14,15
 1226 1545 1226 1545 1226 1531 c 0,16,17
 1226 1528 1226 1528 1223 1517 c 2,18,-1
 1183 1373 l 2,19,20
 1175 1343 1175 1343 1156 1337 c 0,21,22
 275 1022 275 1022 134 881 c 1,23,24
 126 873 126 873 138 867 c 1,25,26
 569 609 569 609 572 352 c 0,27,28
 573 209 573 209 512 126 c 0,29,30
 450 42 450 42 360 20 c 0,31,32
 147 -33 147 -33 -17 -3 c 0,33,34
 -44 2 -44 2 -50 50 c 0,35,36
 -56 100 -56 100 -56 122 c 0,37,38
 -56 193 -56 193 0 185 c 0,0,1
EndSplineSet
EndChar

StartChar: aKaf.isol
Encoding: 65564 -1 28
Width: 1347
Flags: W
AnchorPoint: "TwoDotsBelow" 490 -200 basechar 0
AnchorPoint: "DotBelow" 600 -200 basechar 0
AnchorPoint: "RingBelow" 600 100 basechar 0
AnchorPoint: "TwoDotsAbove" 840 1800 basechar 0
AnchorPoint: "DotAbove" 950 1800 basechar 0
AnchorPoint: "TashkilBelow" 700 -670 basechar 0
AnchorPoint: "TashkilAbove" 420 1640 basechar 0
AnchorPoint: "Dash" 1007 1614 basechar 0
AnchorPoint: "HamzaAbove" 420 620 basechar 0
LayerCount: 2
Fore
SplineSet
1007 1602 m 0,0,1
 1049 1512 1049 1512 1116 1459 c 0,2,3
 1133 1445 1133 1445 1117 1419 c 2,4,-1
 1080 1358 l 2,5,6
 1071 1344 1071 1344 1072 1337 c 0,7,8
 1216 639 1216 639 1217 458 c 1,9,10
 1217 358 l 1,11,12
 1215 230 1215 230 1158 101 c 0,13,14
 1109 -10 1109 -10 464 1 c 0,15,16
 282 4 282 4 149 24 c 0,17,18
 136 26 136 26 135 43 c 0,19,20
 127 171 127 171 131 220 c 0,21,22
 132 235 132 235 145 230 c 0,23,24
 226 198 226 198 420 194 c 0,25,26
 1011 183 1011 183 1139 271 c 1,27,28
 1152 342 1152 342 1062.5 825 c 152,-1,29
 973 1308 973 1308 958.5 1373 c 128,-1,30
 944 1438 944 1438 933.5 1468.5 c 128,-1,31
 923 1499 923 1499 938 1531 c 2,32,-1
 976 1609 l 2,33,34
 982 1622 982 1622 991 1620 c 128,-1,35
 1000 1618 1000 1618 1007 1602 c 0,0,1
EndSplineSet
EndChar

StartChar: aKaf.medi
Encoding: 65565 -1 29
Width: 1206
Flags: W
AnchorPoint: "Dash" 585 1580 basechar 0
AnchorPoint: "TashkilAbove" 559 1640 basechar 0
AnchorPoint: "TashkilBelow" 609 -670 basechar 0
AnchorPoint: "RingBelow" 651 1343 basechar 0
AnchorPoint: "DotBelow" 759 -200 basechar 0
AnchorPoint: "TwoDotsBelow" 649 -200 basechar 0
AnchorPoint: "DotAbove" 215 1450 basechar 0
AnchorPoint: "TwoDotsAbove" 105 1450 basechar 0
LayerCount: 2
Back
SplineSet
150 192 m 0,0,1
 363 146 363 146 537 307 c 1,2,3
 522 540 522 540 -13 712 c 0,4,5
 -88 736 -88 736 -32 891 c 0,6,7
 45 1103 45 1103 469 1345 c 0,8,9
 808 1539 808 1539 1113 1661 c 24,10,11
 1170 1684 1170 1684 1157 1629 c 2,12,-1
 1127 1499 l 2,13,14
 1120 1470 1120 1470 1095 1461 c 0,15,16
 869 1379 869 1379 506 1180.5 c 128,-1,17
 143 982 143 982 50 886 c 1,18,19
 382 763 382 763 650 556 c 0,20,21
 815 428 815 428 853 393 c 0,22,23
 1071 198 1071 198 1203 185 c 0,24,25
 1278 177 1278 177 1235 38 c 0,26,27
 1223 -1 1223 -1 1203 0 c 1,28,29
 1068 0 1068 0 775 284 c 1,30,31
 680 378 680 378 579 453 c 1,32,33
 585 390 585 390 575 300 c 1,34,35
 531 28 531 28 289 -17 c 0,36,37
 214 -31 214 -31 152 -22 c 128,-1,38
 90 -13 90 -13 100 96 c 0,39,40
 110 201 110 201 150 192 c 0,0,1
EndSplineSet
Fore
SplineSet
-11 186 m 0,0,1
 -6 186 -6 186 33 181 c 128,-1,2
 72 176 72 176 162.5 176 c 128,-1,3
 253 176 253 176 359 216.5 c 128,-1,4
 465 257 465 257 534 337 c 1,5,6
 486 522 486 522 111 698 c 1,7,8
 69 726 69 726 59 833 c 0,9,10
 50 953 50 953 80 995 c 0,11,12
 317 1332 317 1332 1114 1660 c 0,13,14
 1131 1667 1131 1667 1142 1667 c 0,15,16
 1161 1667 1161 1667 1160 1646 c 0,17,18
 1160 1637 1160 1637 1158 1628 c 2,19,-1
 1128 1498 l 2,20,21
 1122 1473 1122 1473 1096 1460 c 0,22,23
 384 1110 384 1110 139 874 c 1,24,25
 557 662 557 662 854 392 c 0,26,27
 1068 197 1068 197 1204 184 c 0,28,29
 1253 179 1253 179 1253 122 c 0,30,31
 1253 89 1253 89 1238.5 43.5 c 128,-1,32
 1224 -2 1224 -2 1204 -1 c 1,33,34
 1063 -1 1063 -1 776 283 c 0,35,36
 681 377 681 377 580 452 c 1,37,38
 586 370 586 370 576 299 c 0,39,40
 530 -13 530 -13 97 -13 c 0,41,42
 26 -13 26 -13 -15 -3.5 c 128,-1,43
 -56 6 -56 6 -56 122 c 0,44,45
 -56 186 -56 186 -11 186 c 0,0,1
EndSplineSet
EndChar

StartChar: aLam.fina
Encoding: 65566 -1 30
Width: 1320
Flags: W
AnchorPoint: "Stroke" 1006 912 basechar 0
AnchorPoint: "TwoDotsBelow" 600 -935 basechar 0
AnchorPoint: "TwoDotsAbove" 400 1000 basechar 0
AnchorPoint: "DotAbove" 600 1200 basechar 0
AnchorPoint: "TashkilBelow" 600 -770 basechar 0
AnchorPoint: "TashkilAbove" 600 1640 basechar 0
AnchorPoint: "VAbove" 614 1198 basechar 0
LayerCount: 2
Back
SplineSet
869 1174 m 1,34,-1
 906 1296 l 25,35,36
 935 1333 935 1333 947 1255 c 2,37,-1
 1032 721 l 2,38,39
 1110 229 1110 229 1320 185 c 257,40,41
 1375 175 1375 175 1357 74 c 1,42,43
 1345 0 1345 0 1320 0 c 0,44,45
 1179 0 1179 0 1057 194 c 1,46,47
 1062 132 1062 132 1071 64 c 0,48,49
 1135 -438 1135 -438 966 -566 c 0,50,51
 747 -732 747 -732 543.5 -736.5 c 128,-1,52
 340 -741 340 -741 224 -627 c 128,-1,53
 108 -513 108 -513 134.5 -314.5 c 128,-1,54
 161 -116 161 -116 314 87 c 0,55,56
 323 99 323 99 337 98.5 c 128,-1,57
 351 98 351 98 356.5 85.5 c 128,-1,58
 362 73 362 73 350 55 c 24,59,60
 177 -194 177 -194 246 -352 c 0,61,62
 326 -536 326 -536 613 -519 c 0,63,64
 849 -505 849 -505 1035 -321 c 1,65,-1
 865 1072 l 2,66,67
 858 1133 858 1133 869 1174 c 1,34,-1
1435 566 m 0,0,1
 1442 576 1442 576 1452 574 c 128,-1,2
 1462 572 1462 572 1468 561 c 0,3,4
 1538 425 1538 425 1498 201 c 0,5,6
 1467 23 1467 23 1320 0 c 0,7,8
 1299 -4 1299 -4 1277 104 c 0,9,10
 1270 139 1270 139 1278 158 c 0,11,12
 1288 182 1288 182 1320 185 c 0,13,14
 1399 192 1399 192 1432 250 c 0,15,16
 1435 254 1435 254 1433 264 c 0,17,18
 1422 319 1422 319 1378 383 c 0,19,20
 1362 407 1362 407 1372 433 c 0,21,22
 1419 543 1419 543 1435 566 c 0,0,1
EndSplineSet
Fore
SplineSet
1070 713 m 2,0,1
 1118 217 1118 217 1358 177 c 257,2,3
 1375 167 1375 167 1357 74 c 1,4,5
 1345 0 1345 0 1320 0 c 0,6,7
 1174 0 1174 0 1087 164 c 1,8,9
 1136 -441 1136 -441 966 -566 c 0,10,11
 737 -732 737 -732 544 -736 c 0,12,13
 340 -740 340 -740 224 -627 c 0,14,15
 108 -513 108 -513 134.5 -314.5 c 128,-1,16
 161 -116 161 -116 314 87 c 0,17,18
 323 99 323 99 337 98.5 c 128,-1,19
 351 98 351 98 356.5 85.5 c 128,-1,20
 362 73 362 73 350 55 c 24,21,22
 180 -200 180 -200 246 -352 c 0,23,24
 326 -536 326 -536 613 -519 c 0,25,26
 849 -505 849 -505 1035 -321 c 1,27,-1
 935 1072 l 2,28,29
 930 1140 930 1140 939 1174 c 0,30,-1
 976 1296 l 0,31,32
 1009 1334 1009 1334 1017 1255 c 2,33,-1
 1070 713 l 2,0,1
EndSplineSet
EndChar

StartChar: aLam.init
Encoding: 65567 -1 31
Width: 360
Flags: W
AnchorPoint: "Stroke" 120 1072 basechar 0
AnchorPoint: "TwoDotsBelow" 80 -100 basechar 0
AnchorPoint: "TwoDotsAbove" -40 1667 basechar 0
AnchorPoint: "DotAbove" 80 1667 basechar 0
AnchorPoint: "TashkilBelow" 140 -670 basechar 0
AnchorPoint: "TashkilAbove" 80 1640 basechar 0
AnchorPoint: "VAbove" 80 1567 basechar 0
LayerCount: 2
Fore
SplineSet
32 1352 m 24,0,1
 63 1427 63 1427 69 1444.5 c 128,-1,2
 75 1462 75 1462 90 1462 c 128,-1,3
 105 1462 105 1462 112 1441 c 0,4,5
 143 1350 143 1350 201 1292 c 0,6,7
 221 1272 221 1272 198 1245 c 1,8,-1
 153 1182 l 1,9,10
 166 1067 166 1067 179 968 c 0,11,12
 248 462 248 462 226 350 c 0,13,14
 162 26 162 26 0 0 c 0,15,16
 -36 -5 -36 -5 -31 135 c 0,17,18
 -30 182 -30 182 0 185 c 0,19,20
 111 198 111 198 155 277 c 1,21,22
 149 438 149 438 104.5 780 c 128,-1,23
 60 1122 60 1122 51 1199 c 1,24,-1
 31 1314 l 2,25,26
 27 1338 27 1338 32 1352 c 24,0,1
EndSplineSet
EndChar

StartChar: aLam.isol
Encoding: 65568 -1 32
Width: 1236
Flags: W
AnchorPoint: "Stroke" 981 1124 basechar 0
AnchorPoint: "TwoDotsBelow" 585 -330 basechar 0
AnchorPoint: "TwoDotsAbove" 450 1200 basechar 0
AnchorPoint: "DotAbove" 650 1400 basechar 0
AnchorPoint: "TashkilAbove" 600 1640 basechar 0
AnchorPoint: "TashkilBelow" 580 -670 basechar 0
AnchorPoint: "VAbove" 662 1428 basechar 0
LayerCount: 2
Fore
SplineSet
948 1524 m 2,0,1
 954 1538 954 1538 969 1538 c 128,-1,2
 984 1538 984 1538 990 1519 c 0,3,4
 1026 1422 1026 1422 1074 1370 c 0,5,6
 1092 1351 1092 1351 1071.5 1320 c 128,-1,7
 1051 1289 1051 1289 1038 1274 c 128,-1,8
 1025 1259 1025 1259 1026 1232 c 0,9,10
 1034 1097 1034 1097 1064 860 c 128,-1,11
 1094 623 1094 623 1103 493 c 0,12,13
 1118 284 1118 284 1048 118 c 24,14,15
 1005 14 1005 14 833.5 -60 c 128,-1,16
 662 -134 662 -134 526 -132 c 0,17,18
 134 -126 134 -126 130 213 c 24,19,20
 127 437 127 437 284 641 c 0,21,22
 294 654 294 654 307 652 c 128,-1,23
 320 650 320 650 323.5 637.5 c 128,-1,24
 327 625 327 625 319 611 c 0,25,26
 210 417 210 417 220 325 c 0,27,28
 249 73 249 73 593 85 c 0,29,30
 889 95 889 95 1021 264 c 1,31,32
 1016 392 1016 392 974 720 c 128,-1,33
 932 1048 932 1048 912 1336 c 1,34,-1
 904 1404 l 1,35,36
 904 1422 904 1422 909 1434 c 26,37,-1
 948 1524 l 2,0,1
EndSplineSet
EndChar

StartChar: aLam.medi
Encoding: 65569 -1 33
Width: 405
Flags: W
AnchorPoint: "Stroke" 168 1084 basechar 0
AnchorPoint: "TwoDotsBelow" 100 -150 basechar 0
AnchorPoint: "TwoDotsAbove" 10 1630 basechar 0
AnchorPoint: "DotAbove" 130 1630 basechar 0
AnchorPoint: "TashkilBelow" 190 -670 basechar 0
AnchorPoint: "TashkilAbove" 130 1640 basechar 0
AnchorPoint: "VAbove" 130 1530 basechar 0
LayerCount: 2
Fore
SplineSet
405 185 m 0,0,1
 432 179 432 179 431 125 c 0,2,3
 428 -2 428 -2 405 0 c 0,4,5
 289 14 289 14 202 236 c 0,6,7
 184 281 184 281 177 229 c 0,8,9
 142 2 142 2 0 0 c 0,10,11
 -15 0 -15 0 -23 23 c 0,12,13
 -73 164 -73 164 0 185 c 24,14,15
 71 206 71 206 108 258 c 0,16,17
 140 302 140 302 138 373 c 2,18,-1
 102 1300 l 0,19,20
 101 1326 101 1326 111 1336 c 2,21,-1
 170 1405 l 2,22,23
 191 1430 191 1430 193 1394 c 0,24,25
 202 1295 202 1295 208 1124 c 0,26,27
 229 500 229 500 248 417 c 0,28,29
 296 209 296 209 405 185 c 0,0,1
EndSplineSet
EndChar

StartChar: aMem.fina.alt
Encoding: 65570 -1 34
Width: 685
Flags: W
AnchorPoint: "TashkilBelow" 600 -670 basechar 0
AnchorPoint: "TashkilAbove" 400 1640 basechar 0
LayerCount: 2
Fore
SplineSet
685 185 m 0,0,1
 712 189 712 189 717 168 c 0,2,3
 733 99 733 99 705 9 c 0,4,5
 703 3 703 3 685 0 c 0,6,7
 568 -17 568 -17 514 -60 c 1,8,9
 716 -167 716 -167 797 -228 c 0,10,11
 837 -257 837 -257 817 -302 c 2,12,-1
 764 -425 l 2,13,14
 739 -483 739 -483 710 -468 c 24,15,16
 618 -420 618 -420 454 -426 c 0,17,18
 210 -434 210 -434 197 -528 c 0,19,20
 186 -608 186 -608 310 -1166 c 0,21,22
 345 -1324 345 -1324 339 -1451 c 0,23,24
 336 -1508 336 -1508 308.5 -1512 c 128,-1,25
 281 -1516 281 -1516 274 -1455 c 0,26,27
 255 -1267 255 -1267 209.5 -1104 c 128,-1,28
 164 -941 164 -941 138.5 -791.5 c 128,-1,29
 113 -642 113 -642 149 -501 c 128,-1,30
 185 -360 185 -360 245.5 -311 c 128,-1,31
 306 -262 306 -262 406 -246 c 1,32,33
 321 -199 321 -199 301.5 -190 c 128,-1,34
 282 -181 282 -181 289 -153 c 0,35,36
 311 -65 311 -65 328 -49 c 0,37,38
 559 167 559 167 685 185 c 0,0,1
EndSplineSet
EndChar

StartChar: aMem.fina
Encoding: 65571 -1 35
Width: 1070
Flags: W
AnchorPoint: "TashkilBelow" 700 -670 basechar 0
AnchorPoint: "TashkilAbove" 474 1640 basechar 0
LayerCount: 2
Fore
SplineSet
535 417 m 0,0,1
 637 296 637 296 780.5 242.5 c 128,-1,2
 924 189 924 189 1070 185 c 0,3,4
 1136 183 1136 183 1120.5 92 c 128,-1,5
 1105 1 1105 1 1070 0 c 0,6,7
 883 -1 883 -1 734 81 c 0,8,9
 723 87 723 87 724 76 c 0,10,11
 733 -142 733 -142 647 -212 c 0,12,13
 618 -235 618 -235 589 -210 c 0,14,15
 468 -104 468 -104 445 117 c 1,16,17
 336 114 336 114 219 -4 c 1,18,19
 197 -28 197 -28 233 -270 c 0,20,21
 346 -1015 346 -1015 318 -1124 c 0,22,23
 305 -1172 305 -1172 288 -1182.5 c 128,-1,24
 271 -1193 271 -1193 257 -1171 c 128,-1,25
 243 -1149 243 -1149 242 -1112 c 0,26,27
 235 -913 235 -913 161 -477 c 0,28,29
 98 -105 98 -105 172 86 c 0,30,31
 239 256 239 256 463 348 c 1,32,33
 475 384 475 384 494.5 413 c 128,-1,34
 514 442 514 442 535 417 c 0,0,1
EndSplineSet
EndChar

StartChar: aMem.init
Encoding: 65572 -1 36
Width: 797
Flags: W
AnchorPoint: "TashkilBelow" 400 -670 basechar 0
AnchorPoint: "TashkilAbove" 400 1640 basechar 0
LayerCount: 2
Fore
SplineSet
477 652 m 1,0,1
 614 650 614 650 667 311 c 0,2,3
 670 288 670 288 661 277 c 2,4,-1
 549 135 l 2,5,6
 533 114 533 114 510 121 c 0,7,8
 351 167 351 167 232 268 c 1,9,10
 138 0 138 0 0 0 c 1,11,12
 -17 -1 -17 -1 -31 42 c 0,13,14
 -76 184 -76 184 0 185 c 1,15,16
 95 188 95 188 181 300 c 0,17,18
 210 337 210 337 313 525 c 0,19,20
 383 652 383 652 477 652 c 1,0,1
330 451 m 1,21,22
 403 380 403 380 514 356 c 1,23,24
 517 444 517 444 455.5 473 c 128,-1,25
 394 502 394 502 330 451 c 1,21,22
EndSplineSet
EndChar

StartChar: aMem.isol
Encoding: 65573 -1 37
Width: 926
Flags: W
AnchorPoint: "TashkilBelow" 650 -800 basechar 0
AnchorPoint: "TashkilAbove" 400 1640 basechar 0
LayerCount: 2
Fore
SplineSet
319 334 m 1,0,1
 394 366 394 366 498 379 c 1,2,3
 425 441 425 441 384 430 c 0,4,5
 328 415 328 415 319 334 c 1,0,1
212 259 m 1,6,7
 229 392 229 392 287.5 513 c 128,-1,8
 346 634 346 634 414 658 c 1,9,10
 510 694 510 694 648 578 c 0,11,12
 721 516 721 516 781 438 c 0,13,14
 799 415 799 415 796 395 c 0,15,16
 765 216 765 216 757 193.5 c 128,-1,17
 749 171 749 171 723 176 c 1,18,19
 383 256 383 256 212 53 c 0,20,21
 197 35 197 35 203 13 c 0,22,23
 276 -254 276 -254 338 -573 c 0,24,25
 430 -1047 430 -1047 354 -1056 c 0,26,27
 328 -1059 328 -1059 323 -1003 c 0,28,29
 304 -805 304 -805 238 -546 c 25,30,31
 116 -76 116 -76 133 41 c 0,32,33
 156 198 156 198 212 259 c 1,6,7
EndSplineSet
EndChar

StartChar: aMem.medi
Encoding: 65574 -1 38
Width: 950
AnchorPoint: "TashkilBelow" 500 -670 basechar 0
AnchorPoint: "TashkilAbove" 400 1640 basechar 0
LayerCount: 2
Fore
SplineSet
456 511 m 0,0,1
 469 516 469 516 475 507 c 0,2,3
 550 397 550 397 672 298.5 c 128,-1,4
 794 200 794 200 950 185 c 0,5,6
 990 181 990 181 990 134 c 0,7,8
 989 0 989 0 950 0 c 0,9,10
 808 0 808 0 662 102 c 1,11,12
 654 -8 654 -8 636 -26 c 128,-1,13
 618 -44 618 -44 599 -43 c 0,14,15
 370 -26 370 -26 215 160 c 0,16,17
 208 169 208 169 200 158 c 24,18,19
 99 4 99 4 0 0 c 0,20,21
 -21 -1 -21 -1 -30 33 c 0,22,23
 -55 125 -55 125 -28 164 c 0,24,25
 -14 184 -14 184 0 185 c 0,26,27
 193 191 193 191 236 282 c 1,28,29
 326 464 326 464 456 511 c 0,0,1
448 360 m 0,30,31
 445 366 445 366 434 364 c 0,32,33
 371 348 371 348 346 313 c 0,34,35
 337 300 337 300 348 290 c 0,36,37
 421 229 421 229 524 197 c 0,38,39
 552 189 552 189 537 208 c 0,40,41
 493 264 493 264 448 360 c 0,30,31
EndSplineSet
EndChar

StartChar: aNon.fina.alt
Encoding: 65575 -1 39
Width: 3275
Flags: W
AnchorPoint: "TwoDotsBelow" 1780 -1065 basechar 0
AnchorPoint: "DotBelow" 1890 -1065 basechar 0
AnchorPoint: "RingBelow" 1890 -665 basechar 0
AnchorPoint: "TashkilBelow" 1000 -870 basechar 0
AnchorPoint: "DotAbove" 1982 166 basechar 0
AnchorPoint: "HamzaAbove" 1982 166 basechar 0
AnchorPoint: "TwoDotsAbove" 1871 166 basechar 0
AnchorPoint: "TashkilAbove" 1982 1640 basechar 0
LayerCount: 2
Fore
SplineSet
3116 272 m 2,0,1
 3144 332 3144 332 3163 294 c 0,2,3
 3216 186 3216 186 3275 185 c 0,4,5
 3306 184 3306 184 3306 93 c 128,-1,6
 3306 2 3306 2 3275 0 c 1,7,-1
 3210 -1 l 1,8,9
 3197 -70 3197 -70 3174 -130 c 128,-1,10
 3151 -190 3151 -190 3079 -287 c 0,11,12
 2884 -548 2884 -548 2428 -665 c 0,13,14
 2029 -767 2029 -767 1626 -771 c 0,15,16
 948 -778 948 -778 548 -540 c 0,17,18
 514 -520 514 -520 141 -178 c 0,19,20
 129 -167 129 -167 130 -153 c 128,-1,21
 131 -139 131 -139 142 -134.5 c 128,-1,22
 153 -130 153 -130 166 -140 c 0,23,24
 761 -576 761 -576 1663 -567 c 0,25,26
 1969 -564 1969 -564 2232 -506 c 0,27,28
 2920 -353 2920 -353 3102 -90 c 0,29,30
 3111 -77 3111 -77 3111 -70 c 0,31,32
 3109 21 3109 21 3062 131 c 0,33,34
 3056 145 3056 145 3062 157 c 2,35,-1
 3116 272 l 2,0,1
EndSplineSet
EndChar

StartChar: aNon.fina
Encoding: 65576 -1 40
Width: 1260
Flags: W
AnchorPoint: "TwoDotsBelow" 437 -995 basechar 0
AnchorPoint: "DotBelow" 547 -995 basechar 0
AnchorPoint: "RingBelow" 547 -595 basechar 0
AnchorPoint: "TashkilBelow" 650 -800 basechar 0
AnchorPoint: "TashkilAbove" 680 1640 basechar 0
AnchorPoint: "TwoDotsAbove" 569 640 basechar 0
AnchorPoint: "TaaAbove" 680 400 basechar 0
AnchorPoint: "DotAbove" 680 640 basechar 0
AnchorPoint: "HamzaAbove" 680 500 basechar 0
LayerCount: 2
Fore
SplineSet
1079 303 m 2,0,1
 1092 333 1092 333 1112.5 311 c 128,-1,2
 1133 289 1133 289 1175 224 c 24,3,4
 1200 185 1200 185 1260 185 c 0,5,6
 1303 185 1303 185 1308 141.5 c 128,-1,7
 1313 98 1313 98 1295 49.5 c 128,-1,8
 1277 1 1277 1 1260 0 c 0,9,-1
 1197 0 l 1,10,11
 1185 -237 1185 -237 1050 -442 c 24,12,13
 895 -677 895 -677 530 -689 c 0,14,15
 345 -695 345 -695 233 -586.5 c 128,-1,16
 121 -478 121 -478 131 -321.5 c 128,-1,17
 141 -165 141 -165 286 101 c 0,18,19
 292 112 292 112 304 113 c 128,-1,20
 316 114 316 114 323 103.5 c 128,-1,21
 330 93 330 93 322 78 c 0,22,23
 223 -113 223 -113 228 -191 c 24,24,25
 244 -464 244 -464 555 -467 c 1,26,27
 895 -469 895 -469 1070 -280 c 1,28,29
 1103 -34 1103 -34 1030 131 c 0,30,31
 1017 160 1017 160 1020 166 c 2,32,-1
 1079 303 l 2,0,1
EndSplineSet
EndChar

StartChar: aNon.isol.alt
Encoding: 65577 -1 41
Width: 3552
Flags: W
AnchorPoint: "TwoDotsBelow" 2063 -680 basechar 0
AnchorPoint: "DotBelow" 2173 -680 basechar 0
AnchorPoint: "RingBelow" 2173 -280 basechar 0
AnchorPoint: "TashkilBelow" 1000 -670 basechar 0
AnchorPoint: "TashkilAbove" 2200 1640 basechar 0
AnchorPoint: "TwoDotsAbove" 2089 560 basechar 0
AnchorPoint: "HamzaAbove" 2200 560 basechar 0
AnchorPoint: "DotAbove" 2200 560 basechar 0
LayerCount: 2
Fore
SplineSet
3332 759 m 1,0,1
 3390 652 3390 652 3414 492 c 128,-1,2
 3438 332 3438 332 3409 241 c 0,3,4
 3363 99 3363 99 3305 23 c 1,5,6
 3220 -83 3220 -83 3018 -175 c 0,7,8
 2705 -318 2705 -318 2156.5 -375 c 128,-1,9
 1608 -432 1608 -432 1082 -318 c 1,10,11
 703 -237 703 -237 562 -149.5 c 128,-1,12
 421 -62 421 -62 143 214 c 0,13,14
 123 233 123 233 134.5 252 c 128,-1,15
 146 271 146 271 170 255 c 0,16,17
 466 62 466 62 932 -60 c 1,18,19
 1556 -225 1556 -225 2242 -150 c 0,20,21
 2815 -86 2815 -86 3084 44 c 0,22,23
 3255 126 3255 126 3333 235 c 0,24,25
 3339 243 3339 243 3338 256 c 0,26,27
 3330 382 3330 382 3231 572 c 0,28,29
 3224 585 3224 585 3231 600 c 2,30,-1
 3306 761 l 2,31,32
 3317 785 3317 785 3332 759 c 1,0,1
EndSplineSet
EndChar

StartChar: aNon.isol
Encoding: 65578 -1 42
Width: 1173
Flags: W
AnchorPoint: "TwoDotsBelow" 463 -437 basechar 0
AnchorPoint: "DotBelow" 573 -437 basechar 0
AnchorPoint: "RingBelow" 573 -37 basechar 0
AnchorPoint: "TashkilBelow" 600 -670 basechar 0
AnchorPoint: "TashkilAbove" 550 1640 basechar 0
AnchorPoint: "TwoDotsAbove" 439 1130 basechar 0
AnchorPoint: "TaaAbove" 550 1000 basechar 0
AnchorPoint: "HamzaAbove" 550 1000 basechar 0
AnchorPoint: "DotAbove" 550 1130 basechar 0
LayerCount: 2
Fore
SplineSet
898 942 m 1,0,1
 970 808 970 808 1015 618.5 c 128,-1,2
 1060 429 1060 429 1032 251 c 0,3,4
 1017 156 1017 156 971 84 c 0,5,6
 851 -103 851 -103 556 -131 c 0,7,8
 343 -151 343 -151 232 -47.5 c 128,-1,9
 121 56 121 56 131 239.5 c 128,-1,10
 141 423 141 423 257 583 c 0,11,12
 273 605 273 605 287 595 c 128,-1,13
 301 585 301 585 284 556 c 0,14,15
 158 343 158 343 236 209.5 c 128,-1,16
 314 76 314 76 545 77 c 1,17,18
 814 80 814 80 977 257 c 0,19,20
 980 261 980 261 980 274 c 0,21,22
 982 370 982 370 922 530.5 c 128,-1,23
 862 691 862 691 813 762 c 0,24,25
 799 782 799 782 805 796 c 2,26,-1
 867 949 l 2,27,28
 878 977 878 977 898 942 c 1,0,1
EndSplineSet
EndChar

StartChar: aQaf.fina
Encoding: 65579 -1 43
Width: 1245
Flags: W
AnchorPoint: "TashkilBelow" 600 -670 basechar 0
AnchorPoint: "TashkilAbove" 700 1640 basechar 0
AnchorPoint: "TwoDotsAbove" 849 740 basechar 0
AnchorPoint: "DotAbove" 960 740 basechar 0
AnchorPoint: "HamzaAbove" 960 740 basechar 0
LayerCount: 2
Fore
SplineSet
998 442 m 0,0,1
 1128 428 1128 428 1170 184 c 1,2,3
 1240 185 1240 185 1245 185 c 0,4,5
 1274 185 1274 185 1284.5 138.5 c 128,-1,6
 1295 92 1295 92 1284 46 c 128,-1,7
 1273 0 1273 0 1245 0 c 2,8,-1
 1166 0 l 1,9,10
 1163 -16 1163 -16 1136.5 -113 c 152,-1,11
 1110 -210 1110 -210 1068 -266 c 0,12,13
 905 -483 905 -483 589 -522 c 0,14,15
 411 -544 411 -544 285 -472 c 0,16,17
 181 -412 181 -412 147 -299 c 0,18,19
 89 -102 89 -102 227 138 c 1,20,-1
 286 237 l 2,21,22
 295 252 295 252 307 251 c 128,-1,23
 319 250 319 250 323.5 238 c 128,-1,24
 328 226 328 226 321 215 c 0,25,26
 282 150 282 150 273 136 c 0,27,28
 155 -67 155 -67 259 -219 c 0,29,30
 326 -316 326 -316 500 -337.5 c 128,-1,31
 674 -359 674 -359 850 -290 c 128,-1,32
 1026 -221 1026 -221 1094 -87 c 1,33,34
 1104 -59 1104 -59 1086 1 c 1,35,36
 914 1 914 1 843.5 62 c 128,-1,37
 773 123 773 123 880 303 c 0,38,39
 965 445 965 445 998 442 c 0,0,1
1020 210 m 0,40,41
 996 264 996 264 954.5 263 c 128,-1,42
 913 262 913 262 924 235 c 0,43,44
 944 188 944 188 1011 195 c 0,45,46
 1026 197 1026 197 1020 210 c 0,40,41
EndSplineSet
EndChar

StartChar: aQaf.isol
Encoding: 65580 -1 44
Width: 1407
Flags: W
AnchorPoint: "TashkilBelow" 700 -670 basechar 0
AnchorPoint: "TashkilAbove" 900 1640 basechar 0
AnchorPoint: "TwoDotsAbove" 860 1100 basechar 0
AnchorPoint: "DotAbove" 970 1100 basechar 0
AnchorPoint: "HamzaAbove" 960 1100 basechar 0
LayerCount: 2
Fore
SplineSet
1041 804 m 0,0,1
 1079 804 1079 804 1127 746 c 0,2,3
 1234 616 1234 616 1270 384 c 0,4,5
 1288 267 1288 267 1265 150 c 0,6,7
 1223 -58 1223 -58 1044 -183 c 1,8,9
 834 -328 834 -328 624 -335 c 0,10,11
 246 -348 246 -348 145 -74 c 1,12,13
 119 1 119 1 137 109 c 0,14,15
 172 331 172 331 327 556 c 0,16,17
 336 568 336 568 349.5 566 c 128,-1,18
 363 564 363 564 368 553 c 128,-1,19
 373 542 373 542 365 526 c 1,20,21
 230 330 230 330 226 196 c 128,-1,22
 222 62 222 62 323 -33.5 c 128,-1,23
 424 -129 424 -129 626 -121 c 0,24,25
 885 -110 885 -110 1113 70 c 0,26,27
 1214 150 1214 150 1219 224 c 152,-1,28
 1224 298 1224 298 1167 355 c 1,29,30
 1040 224 1040 224 908 268 c 0,31,32
 740 324 740 324 830 563.5 c 128,-1,33
 920 803 920 803 1041 804 c 0,0,1
1050 524 m 1,34,35
 1006 573 1006 573 973 573 c 128,-1,36
 940 573 940 573 913 531 c 1,37,38
 940 501 940 501 980 498.5 c 128,-1,39
 1020 496 1020 496 1050 524 c 1,34,35
EndSplineSet
EndChar

StartChar: aRaa.fina.alt2
Encoding: 65581 -1 45
Width: 1070
Flags: W
AnchorPoint: "HamzaAbove" 729 728 basechar 0
AnchorPoint: "TwoDotsAbove" 728 852 basechar 0
AnchorPoint: "Stroke" 740 -208 basechar 0
AnchorPoint: "DotAlt" 434 -154 basechar 0
AnchorPoint: "DotBelow" 370 -972 basechar 0
AnchorPoint: "RingBelow" 368 -538 basechar 0
AnchorPoint: "VAbove" 728 728 basechar 0
AnchorPoint: "TaaAbove" 728 728 basechar 0
AnchorPoint: "TashkilBelow" 530 -670 basechar 0
AnchorPoint: "TashkilAbove" 508 1640 basechar 0
AnchorPoint: "DotAbove" 728 852 basechar 0
LayerCount: 2
Fore
SplineSet
1070 0 m 0,0,1
 892 -93 892 -93 774 -234 c 0,2,3
 667 -362 667 -362 610 -454 c 1,4,5
 460 -700 460 -700 306 -673 c 0,6,7
 218 -657 218 -657 166 -578 c 0,8,9
 118 -506 118 -506 131 -368.5 c 128,-1,10
 144 -231 144 -231 259 -17 c 0,11,12
 267 -2 267 -2 279 0.5 c 128,-1,13
 291 3 291 3 295.5 -6.5 c 128,-1,14
 300 -16 300 -16 297 -25 c 128,-1,15
 294 -34 294 -34 247 -128 c 0,16,17
 207 -208 207 -208 195 -290 c 0,18,19
 172 -451 172 -451 304 -494 c 0,20,21
 388 -521 388 -521 453 -476 c 0,22,23
 518 -432 518 -432 579 -324 c 0,24,25
 730 -59 730 -59 904 79 c 0,26,27
 976 136 976 136 1070 185 c 0,28,29
 1109 205 1109 205 1108 168 c 0,30,31
 1106 88 1106 88 1094 26 c 0,32,33
 1091 11 1091 11 1070 0 c 0,0,1
EndSplineSet
EndChar

StartChar: aRaa.fina
Encoding: 65582 -1 46
Width: 1003
Flags: W
AnchorPoint: "Stroke" 816 -220 basechar 0
AnchorPoint: "DotAlt" 442 -168 basechar 0
AnchorPoint: "DotBelow" 731 -718 basechar 0
AnchorPoint: "RingBelow" 504 -478 basechar 0
AnchorPoint: "TaaAbove" 656 614 basechar 0
AnchorPoint: "TashkilBelow" 800 -670 basechar 0
AnchorPoint: "TashkilAbove" 500 1640 basechar 0
AnchorPoint: "TwoDotsAbove" 546 814 basechar 0
AnchorPoint: "VAbove" 656 814 basechar 0
AnchorPoint: "DotAbove" 658 814 basechar 0
AnchorPoint: "HamzaAbove" 658 814 basechar 0
LayerCount: 2
Fore
SplineSet
770 128 m 2,0,-1
 834 291 l 2,1,2
 848 325 848 325 860 303 c 24,3,4
 895 241 895 241 925.5 213 c 128,-1,5
 956 185 956 185 1004 185 c 0,6,7
 1052 184 1052 184 1052 93.5 c 128,-1,8
 1052 3 1052 3 1004 0 c 24,9,10
 970 -2 970 -2 936 0 c 0,11,12
 928 0 928 0 926 -12 c 1,13,14
 920 -211 920 -211 787 -383.5 c 128,-1,15
 654 -556 654 -556 539 -569 c 128,-1,16
 424 -582 424 -582 346 -564 c 128,-1,17
 268 -546 268 -546 148 -486 c 0,18,19
 134 -479 134 -479 130 -468 c 128,-1,20
 126 -457 126 -457 134 -450.5 c 128,-1,21
 142 -444 142 -444 154 -448 c 1,22,23
 288 -481 288 -481 388 -460 c 0,24,25
 596 -416 596 -416 770 -221 c 0,26,27
 844 -139 844 -139 862 -56 c 1,28,29
 864 -4 864 -4 778 83 c 0,30,31
 760 100 760 100 770 128 c 2,0,-1
EndSplineSet
EndChar

StartChar: aRaa.isol
Encoding: 65583 -1 47
Width: 819
Flags: W
AnchorPoint: "Stroke" 650 64 basechar 0
AnchorPoint: "DotAlt" 142 -68 basechar 0
AnchorPoint: "DotBelow" 560 -541 basechar 0
AnchorPoint: "RingBelow" 194 -354 basechar 0
AnchorPoint: "TaaAbove" 328 888 basechar 0
AnchorPoint: "TashkilBelow" 508 -670 basechar 0
AnchorPoint: "TashkilAbove" 400 1640 basechar 0
AnchorPoint: "TwoDotsAbove" 266 938 basechar 0
AnchorPoint: "VAbove" 378 938 basechar 0
AnchorPoint: "DotAbove" 328 1088 basechar 0
AnchorPoint: "HamzaAbove" 378 938 basechar 0
LayerCount: 2
Fore
SplineSet
504 571 m 2,0,1
 510 596 510 596 540 566 c 0,2,3
 620 484 620 484 660 346.5 c 128,-1,4
 700 209 700 209 688 71 c 1,5,6
 664 -107 664 -107 545 -259.5 c 128,-1,7
 426 -412 426 -412 234 -462 c 0,8,9
 182 -476 182 -476 136 -460 c 0,10,11
 -104 -379 -104 -379 -162 -343 c 0,12,13
 -170 -338 -170 -338 -170 -330 c 128,-1,14
 -170 -322 -170 -322 -163 -316 c 128,-1,15
 -156 -310 -156 -310 -146 -313 c 0,16,17
 -6 -356 -6 -356 96 -343 c 128,-1,18
 198 -330 198 -330 330 -245 c 0,19,20
 526 -118 526 -118 614 50 c 0,21,22
 622 65 622 65 618 82 c 0,23,24
 588 190 588 190 458 351 c 0,25,26
 452 360 452 360 454 366 c 2,27,-1
 504 571 l 2,0,1
EndSplineSet
EndChar

StartChar: aSad.fina
Encoding: 65584 -1 48
Width: 2420
Flags: W
AnchorPoint: "TwoDotsBelow" 1600 -300 basechar 0
AnchorPoint: "DotBelow" 1700 -300 basechar 0
AnchorPoint: "TashkilBelow" 700 -670 basechar 0
AnchorPoint: "TashkilAbove" 1680 1640 basechar 0
AnchorPoint: "TwoDotsAbove" 1573 1026 basechar 0
AnchorPoint: "DotAbove" 1684 1026 basechar 0
AnchorPoint: "HamzaAbove" 1684 1026 basechar 0
LayerCount: 2
Back
SplineSet
2922 185 m 0,0,1
 2956 177 2956 177 2960 162 c 0,2,3
 2964 145 2964 145 2960 113 c 0,4,5
 2945 0 2945 0 2922 0 c 0,6,7
 2812 -1 2812 -1 2700 124 c 1,8,9
 2609 13 2609 13 2422 0 c 0,10,11
 2403 -1 2403 -1 2396 31 c 2,12,-1
 2378 116 l 2,13,14
 2373 137 2373 137 2386 159 c 0,15,16
 2400 183 2400 183 2422 185 c 0,17,18
 2650 202 2650 202 2726 319 c 0,19,20
 2737 336 2737 336 2750 336 c 0,21,22
 2771 336 2771 336 2772 322 c 0,23,24
 2774 298 2774 298 2777 292 c 0,25,26
 2844 200 2844 200 2922 185 c 0,0,1
2005 479 m 0,72,73
 1958 479 1958 479 1915 471.5 c 128,-1,74
 1872 464 1872 464 1832.5 446.5 c 128,-1,75
 1793 429 1793 429 1766.5 417 c 128,-1,76
 1740 405 1740 405 1704 376 c 128,-1,77
 1668 347 1668 347 1655.5 337 c 128,-1,78
 1643 327 1643 327 1609 294 c 128,-1,79
 1575 261 1575 261 1572 259 c 1,80,81
 1713 254 1713 254 1897 290.5 c 128,-1,82
 2081 327 2081 327 2158 397 c 1,83,84
 2090 480 2090 480 2005 479 c 0,72,73
2114 721 m 0,0,1
 2191 722 2191 722 2249 663.5 c 128,-1,3
 2307 605 2307 605 2338 523 c 0,2,3
 2343 505 2343 505 2341 489 c 0,4,5
 2335 437 2335 437 2293 364 c 128,-1,7
 2251 291 2251 291 2221 257 c 0,6,7
 2196 229 2196 229 2145 194.5 c 128,-1,9
 2094 160 2094 160 2049 139 c 1,8,9
 2117 131 2117 131 2234 148 c 128,-1,11
 2351 165 2351 165 2422 185 c 0,10,11
 2448 192 2448 192 2459 149 c 0,12,13
 2475 80 2475 80 2447 24 c 0,14,15
 2436 3 2436 3 2422 0 c 0,12,13
 2319 -21 2319 -21 2193.5 -12.5 c 128,-1,15
 2068 -4 2068 -4 1964.5 16.5 c 128,-1,17
 1861 37 1861 37 1784 65 c 1,14,15
 1743 60 1743 60 1702 56 c 0,16,17
 1473 38 1473 38 1266 87 c 1,18,19
 1223 -247 1223 -247 1147 -335 c 0,20,21
 1078 -415 1078 -415 954.5 -472 c 128,-1,23
 831 -529 831 -529 740.5 -548 c 128,-1,25
 650 -567 650 -567 601 -567 c 0,22,23
 456 -565 456 -565 382 -541.5 c 128,-1,25
 308 -518 308 -518 236 -440 c 0,24,25
 172 -371 172 -371 147.5 -283.5 c 128,-1,27
 123 -196 123 -196 133 -115.5 c 128,-1,29
 143 -35 143 -35 171.5 44.5 c 128,-1,31
 200 124 200 124 232.5 179 c 128,-1,33
 265 234 265 234 295 269 c 0,26,27
 311 287 311 287 324 285 c 128,-1,29
 337 283 337 283 337.5 269 c 128,-1,31
 338 255 338 255 328 242 c 0,28,29
 204 92 204 92 207 -44 c 0,30,31
 209 -167 209 -167 306.5 -263 c 128,-1,33
 404 -359 404 -359 580 -366 c 0,32,33
 646 -369 646 -369 734.5 -354 c 128,-1,35
 823 -339 823 -339 915.5 -308.5 c 128,-1,37
 1008 -278 1008 -278 1085.5 -221 c 128,-1,39
 1163 -164 1163 -164 1191 -93 c 0,34,35
 1196 -82 1196 -82 1194 -64 c 0,36,37
 1165 133 1165 133 1090 238 c 0,38,39
 1074 261 1074 261 1079 275 c 2,40,-1
 1143 443 l 1,41,42
 1153 462 1153 462 1163 461 c 128,-1,44
 1173 460 1173 460 1180 448 c 2,43,-1
 1255 319 l 1,44,45
 1317 280 1317 280 1478 266 c 1,46,47
 1628 434 1628 434 1821 578 c 128,-1,49
 2014 722 2014 722 2114 721 c 0,0,1
2005 479 m 0,48,49
 1958 479 1958 479 1915 471.5 c 128,-1,51
 1872 464 1872 464 1832.5 446.5 c 128,-1,53
 1793 429 1793 429 1766.5 417 c 128,-1,55
 1740 405 1740 405 1704 376 c 128,-1,57
 1668 347 1668 347 1655.5 337 c 128,-1,59
 1643 327 1643 327 1609 294 c 128,-1,61
 1575 261 1575 261 1572 259 c 1,50,51
 1713 254 1713 254 1897 290.5 c 128,-1,53
 2081 327 2081 327 2158 397 c 1,52,53
 2090 480 2090 480 2005 479 c 0,48,49
EndSplineSet
Fore
SplineSet
2005 479 m 1,0,1
 1832 479 1832 479 1704 376 c 1,2,-1
 1572 259 l 1,3,4
 1713 254 1713 254 1897 290.5 c 128,-1,5
 2081 327 2081 327 2158 397 c 1,6,7
 2090 480 2090 480 2005 479 c 1,0,1
1702 56 m 1,8,9
 1463 40 1463 40 1266 87 c 1,10,11
 1221 -264 1221 -264 1147 -335 c 0,12,13
 930 -543 930 -543 601 -567 c 0,14,15
 360 -585 360 -585 235.5 -439.5 c 128,-1,16
 111 -294 111 -294 133 -116 c 0,17,18
 162 119 162 119 295 269 c 0,19,20
 311 287 311 287 324 285 c 128,-1,21
 337 283 337 283 337.5 269 c 128,-1,22
 338 255 338 255 328 242 c 0,23,24
 98 -57 98 -57 306 -263 c 0,25,26
 411 -366 411 -366 580 -366 c 0,27,28
 864 -366 864 -366 1085 -221 c 0,29,30
 1153 -176 1153 -176 1191 -93 c 0,31,32
 1196 -82 1196 -82 1194 -64 c 0,33,34
 1174 117 1174 117 1090 238 c 0,35,36
 1074 261 1074 261 1079 275 c 2,37,-1
 1143 443 l 1,38,39
 1162 479 1162 479 1180 448 c 2,40,-1
 1255 319 l 1,41,42
 1317 280 1317 280 1478 266 c 1,43,44
 1628 434 1628 434 1819.5 577 c 128,-1,45
 2011 720 2011 720 2114 721 c 0,46,47
 2191 722 2191 722 2250 662.5 c 128,-1,48
 2309 603 2309 603 2338 523 c 0,49,50
 2344 506 2344 506 2341 489 c 0,51,52
 2328 393 2328 393 2221 257 c 1,53,54
 2209 246 2209 246 2197 236 c 1,55,56
 2323 189 2323 189 2418 185 c 0,57,58
 2437 184 2437 184 2441 134 c 0,59,60
 2453 3 2453 3 2418 0 c 0,61,62
 2250 -17 2250 -17 1996 117 c 1,63,64
 1867 68 1867 68 1702 56 c 1,8,9
EndSplineSet
EndChar

StartChar: aSad.init
Encoding: 65585 -1 49
Width: 1430
Flags: W
AnchorPoint: "TwoDotsBelow" 700 -400 basechar 0
AnchorPoint: "DotBelow" 800 -400 basechar 0
AnchorPoint: "TashkilBelow" 700 -670 basechar 0
AnchorPoint: "TashkilAbove" 630 1640 basechar 0
AnchorPoint: "TwoDotsAbove" 523 894 basechar 0
AnchorPoint: "DotAbove" 634 894 basechar 0
AnchorPoint: "HamzaAbove" 634 894 basechar 0
LayerCount: 2
Fore
SplineSet
1072 584 m 0,0,1
 1130 584 1130 584 1222 517 c 128,-1,2
 1314 450 1314 450 1301 381 c 128,-1,3
 1288 312 1288 312 1235 216.5 c 128,-1,4
 1182 121 1182 121 1160 105 c 0,5,6
 972 -32 972 -32 667 -32 c 1,7,8
 546 -31 546 -31 441 -2 c 1,9,10
 425 -22 425 -22 385 -169 c 25,11,12
 378 -199 378 -199 345 -187.5 c 128,-1,13
 312 -176 312 -176 316 -143 c 24,14,15
 327 -70 327 -70 367 26 c 1,16,17
 260 72 260 72 199 145 c 0,18,19
 177 172 177 172 164.5 172 c 128,-1,20
 152 172 152 172 140 143 c 0,21,22
 81 0 81 0 0 0 c 0,23,24
 -12 0 -12 0 -23 23 c 0,25,26
 -55 97 -55 97 -40 138 c 128,-1,27
 -25 179 -25 179 0 185 c 0,28,29
 106 211 106 211 178 342 c 0,30,31
 193 370 193 370 222 369.5 c 128,-1,32
 251 369 251 369 270 337 c 0,33,34
 333 236 333 236 487 191 c 1,35,36
 575 289 575 289 659 363 c 0,37,38
 912 582 912 582 1072 584 c 0,0,1
1161 272 m 0,39,40
 1044 378 1044 378 899 367 c 0,41,42
 842 362 842 362 727.5 287 c 128,-1,43
 613 212 613 212 572 170 c 1,44,45
 690 152 690 152 903.5 176 c 128,-1,46
 1117 200 1117 200 1160 252 c 1,47,48
 1173 261 1173 261 1161 272 c 0,39,40
EndSplineSet
EndChar

StartChar: aSad.isol
Encoding: 65586 -1 50
Width: 2484
Flags: W
AnchorPoint: "TwoDotsBelow" 1700 -200 basechar 0
AnchorPoint: "DotBelow" 1800 -200 basechar 0
AnchorPoint: "TashkilBelow" 700 -670 basechar 0
AnchorPoint: "TashkilAbove" 1680 1640 basechar 0
AnchorPoint: "TwoDotsAbove" 1570 1110 basechar 0
AnchorPoint: "DotAbove" 1681 1110 basechar 0
AnchorPoint: "HamzaAbove" 1681 1110 basechar 0
LayerCount: 2
Fore
SplineSet
2127 805 m 24,0,1
 2282 807 2282 807 2350 625 c 1,2,3
 2365 571 2365 571 2319.5 481.5 c 128,-1,4
 2274 392 2274 392 2247 362 c 0,5,6
 2101 200 2101 200 1697 166 c 0,7,8
 1470 147 1470 147 1283 190 c 1,9,10
 1242 -141 1242 -141 1152 -234 c 0,11,12
 946 -446 946 -446 611 -468 c 0,13,14
 243 -492 243 -492 145 -196 c 0,15,16
 120 -118 120 -118 134 -15 c 0,17,18
 159 166 159 166 246 324 c 0,19,20
 282 390 282 390 314 430 c 0,21,22
 324 442 324 442 336.5 439.5 c 128,-1,23
 349 437 349 437 352.5 425.5 c 128,-1,24
 356 414 356 414 349 401 c 1,25,26
 317 358 317 358 292 297 c 0,27,28
 228 140 228 140 247 20 c 1,29,30
 294 -252 294 -252 589 -260 c 1,31,32
 853 -266 853 -266 1082 -128 c 1,33,34
 1159 -83 1159 -83 1195 7 c 0,35,36
 1200 18 1200 18 1197 36 c 0,37,38
 1167 231 1167 231 1092 335 c 0,39,40
 1076 358 1076 358 1081 371 c 2,41,-1
 1144 539 l 1,42,43
 1162 574 1162 574 1180 544 c 2,44,-1
 1256 416 l 1,45,46
 1328 372 1328 372 1486 366 c 1,47,48
 1664 546 1664 546 1844.5 675 c 128,-1,49
 2025 804 2025 804 2127 805 c 24,0,1
2229 502 m 1,50,51
 2103 618 2103 618 1959.5 580.5 c 128,-1,52
 1816 543 1816 543 1583 365 c 1,53,54
 2014 340 2014 340 2229 502 c 1,50,51
EndSplineSet
EndChar

StartChar: aSad.medi
Encoding: 65587 -1 51
Width: 1480
Flags: W
AnchorPoint: "TwoDotsBelow" 700 -400 basechar 0
AnchorPoint: "DotBelow" 800 -400 basechar 0
AnchorPoint: "TashkilBelow" 800 -670 basechar 0
AnchorPoint: "TashkilAbove" 700 1640 basechar 0
AnchorPoint: "TwoDotsAbove" 601 987 basechar 0
AnchorPoint: "DotAbove" 712 987 basechar 0
AnchorPoint: "HamzaAbove" 712 987 basechar 0
LayerCount: 2
Back
SplineSet
-2 185 m 0,0,1
 32 177 32 177 36 162 c 0,2,3
 40 145 40 145 36 113 c 0,4,5
 21 0 21 0 -2 0 c 0,6,7
 -112 -1 -112 -1 -224 124 c 1,8,9
 -315 13 -315 13 -502 0 c 0,10,11
 -521 -1 -521 -1 -528 31 c 2,12,-1
 -546 116 l 2,13,14
 -551 137 -551 137 -538 159 c 0,15,16
 -524 183 -524 183 -502 185 c 0,17,18
 -274 202 -274 202 -198 319 c 0,19,20
 -187 336 -187 336 -174 336 c 0,21,22
 -153 336 -153 336 -152 322 c 0,23,24
 -150 298 -150 298 -147 292 c 0,25,26
 -80 200 -80 200 -2 185 c 0,0,1
1098 680 m 1,0,-1
 1179 697 1179 697 1271.5 640.5 c 128,-1,2
 1364 584 1364 584 1382 509 c 1,3,4
 1352 370 1352 370 1296 281 c 0,5,6
 1279 255 1279 255 1252.5 231 c 128,-1,8
 1226 207 1226 207 1182.5 175 c 128,-1,10
 1139 143 1139 143 1128 133 c 1,7,8
 1173 134 1173 134 1223 140 c 128,-1,10
 1273 146 1273 146 1304.5 151.5 c 128,-1,12
 1336 157 1336 157 1396 168.5 c 128,-1,14
 1456 180 1456 180 1479 185 c 0,9,10
 1506 190 1506 190 1518 146 c 0,11,12
 1536 77 1536 77 1509 22 c 0,13,14
 1498 0 1498 0 1483 -1 c 0,11,12
 1146 -7 1146 -7 959 10 c 1,13,14
 858 -5 858 -5 721.5 -2.5 c 128,-1,16
 585 0 585 0 480 22 c 1,15,16
 448 -69 448 -69 439 -125 c 0,17,18
 435 -152 435 -152 414.5 -162 c 128,-1,20
 394 -172 394 -172 377 -159 c 128,-1,22
 360 -146 360 -146 364 -114 c 0,19,20
 371 -59 371 -59 408 46 c 1,21,22
 344 65 344 65 302 94.5 c 128,-1,24
 260 124 260 124 219 177 c 1,23,24
 205 171 205 171 174 134.5 c 128,-1,26
 143 98 143 98 97.5 58 c 128,-1,28
 52 18 52 18 0 0 c 0,25,26
 -22 -8 -22 -8 -35 34 c 0,27,28
 -56 106 -56 106 -32 161 c 0,29,30
 -21 185 -21 185 -2 184 c 0,27,28
 33 182 33 182 69.5 198.5 c 128,-1,30
 106 215 106 215 128.5 235 c 128,-1,32
 151 255 151 255 180.5 284.5 c 128,-1,34
 210 314 210 314 219 321 c 0,29,30
 242 336 242 336 252 332.5 c 128,-1,32
 262 329 262 329 283 305 c 0,31,32
 376 202 376 202 507 192 c 1,33,34
 625 370 625 370 803.5 511.5 c 128,-1,36
 982 653 982 653 1098 680 c 1,0,-1
1226 394 m 0,35,36
 1144 471 1144 471 1030 465 c 0,37,38
 937 459 937 459 803 370 c 128,-1,40
 669 281 669 281 601 180 c 1,39,40
 782 174 782 174 971.5 241.5 c 128,-1,42
 1161 309 1161 309 1227 371 c 0,41,42
 1230 375 1230 375 1229.5 383.5 c 128,-1,44
 1229 392 1229 392 1226 394 c 0,35,36
EndSplineSet
Fore
SplineSet
1226 394 m 0,0,1
 1072 548 1072 548 803 370 c 0,2,3
 669 281 669 281 601 180 c 1,4,5
 756 174 756 174 972 240 c 0,6,7
 1111 283 1111 283 1227 371 c 0,8,9
 1240 381 1240 381 1226 394 c 0,0,1
480 22 m 1,10,11
 448 -69 448 -69 441.5 -110.5 c 128,-1,12
 435 -152 435 -152 414.5 -162 c 128,-1,13
 394 -172 394 -172 377 -159 c 0,14,15
 345 -134 345 -134 408 46 c 1,16,17
 344 65 344 65 302 94.5 c 128,-1,18
 260 124 260 124 219 177 c 1,19,20
 110 10 110 10 0 0 c 0,21,22
 -24 -2 -24 -2 -35 34 c 0,23,24
 -59 109 -59 109 -32 161 c 0,25,26
 -18 188 -18 188 0 185 c 0,27,28
 94 169 94 169 219 321 c 0,29,30
 234 339 234 339 248 333.5 c 128,-1,31
 262 328 262 328 283 305 c 0,32,33
 376 202 376 202 507 192 c 1,34,35
 625 370 625 370 803.5 511.5 c 128,-1,36
 982 653 982 653 1098 680 c 1,37,38
 1179 697 1179 697 1271.5 640.5 c 128,-1,39
 1364 584 1364 584 1382 509 c 1,40,41
 1346 340 1346 340 1265 233 c 1,42,43
 1387 189 1387 189 1479 185 c 0,44,45
 1498 184 1498 184 1502 134 c 0,46,47
 1514 3 1514 3 1479 0 c 0,48,49
 1320 -16 1320 -16 1083 104 c 1,50,51
 784 -46 784 -46 480 22 c 1,10,11
EndSplineSet
EndChar

StartChar: aSen.fina
Encoding: 65588 -1 52
Width: 2210
Flags: W
AnchorPoint: "DigitAbove" 1595 750 basechar 0
AnchorPoint: "VAbove" 1595 750 basechar 0
AnchorPoint: "TwoDotsBelow" 1500 -400 basechar 0
AnchorPoint: "DotBelow" 1600 -400 basechar 0
AnchorPoint: "TashkilBelow" 640 -800 basechar 0
AnchorPoint: "TashkilAbove" 1500 1640 basechar 0
AnchorPoint: "TwoDotsAbove" 1484 750 basechar 0
AnchorPoint: "HamzaAbove" 1595 750 basechar 0
AnchorPoint: "DotAbove" 1595 750 basechar 0
LayerCount: 2
Fore
SplineSet
1928 374 m 24,0,1
 1934 398 1934 398 1954 406 c 0,2,3
 1980 415 1980 415 2001 374 c 0,4,5
 2100 182 2100 182 2210 185 c 0,6,7
 2270 187 2270 187 2254 69 c 0,8,9
 2245 0 2245 0 2210 0 c 0,10,11
 2058 0 2058 0 1962 231 c 0,12,13
 1952 255 1952 255 1944 230 c 0,14,15
 1893 64 1893 64 1867 15.5 c 128,-1,16
 1841 -33 1841 -33 1793 -34 c 0,17,18
 1672 -36 1672 -36 1571 58 c 1,19,20
 1462 -62 1462 -62 1281 -40 c 1,21,22
 1273 -261 1273 -261 1215 -387 c 0,23,24
 1175 -481 1175 -481 1095 -541 c 0,25,26
 855 -722 855 -722 576 -716 c 0,27,28
 232 -708 232 -708 142 -428 c 0,29,30
 118 -349 118 -349 145.5 -205.5 c 128,-1,31
 173 -62 173 -62 276 129 c 0,32,33
 283 142 283 142 295.5 143 c 128,-1,34
 308 144 308 144 314.5 133.5 c 128,-1,35
 321 123 321 123 315 111 c 0,36,37
 189 -127 189 -127 211 -223 c 0,38,39
 266 -460 266 -460 596 -498 c 0,40,41
 734 -514 734 -514 917.5 -444.5 c 128,-1,42
 1101 -375 1101 -375 1191 -244 c 1,43,44
 1236 -82 1236 -82 1117 96 c 0,45,46
 1104 118 1104 118 1109 136 c 2,47,-1
 1158 306 l 2,48,49
 1169 346 1169 346 1189 317 c 0,50,51
 1218 268 1218 268 1240 202 c 0,52,53
 1262 134 1262 134 1457 163 c 0,54,55
 1555 177 1555 177 1610 280 c 0,56,57
 1624 306 1624 306 1636 339.5 c 128,-1,58
 1648 373 1648 373 1662.5 376 c 128,-1,59
 1677 379 1677 379 1688 367.5 c 128,-1,60
 1699 356 1699 356 1695 340 c 0,61,-1
 1676 280 l 0,62,63
 1667 242 1667 242 1696 226 c 0,64,65
 1778 181 1778 181 1861 202 c 0,66,67
 1887 209 1887 209 1928 374 c 24,0,1
EndSplineSet
EndChar

StartChar: aSen.init
Encoding: 65589 -1 53
Width: 1164
Flags: W
AnchorPoint: "DigitAbove" 650 900 basechar 0
AnchorPoint: "VAbove" 650 900 basechar 0
AnchorPoint: "TwoDotsBelow" 550 -200 basechar 0
AnchorPoint: "DotBelow" 650 -200 basechar 0
AnchorPoint: "TashkilBelow" 600 -670 basechar 0
AnchorPoint: "TashkilAbove" 650 1640 basechar 0
AnchorPoint: "TwoDotsAbove" 539 900 basechar 0
AnchorPoint: "HamzaAbove" 650 900 basechar 0
AnchorPoint: "DotAbove" 650 900 basechar 0
LayerCount: 2
Fore
SplineSet
994 584 m 0,0,1
 1002 596 1002 596 1016 572 c 128,-1,2
 1030 548 1030 548 1034 469.5 c 128,-1,3
 1038 391 1038 391 1020 314 c 1,4,5
 978 148 978 148 913 146 c 0,6,7
 763 140 763 140 658 249 c 1,8,9
 586 80 586 80 460 47 c 128,-1,10
 334 14 334 14 204 153 c 1,11,12
 96 0 96 0 0 0 c 1,13,14
 -21 -1 -21 -1 -36.5 89.5 c 128,-1,15
 -52 180 -52 180 0 185 c 0,16,17
 198 205 198 205 307 392 c 0,18,19
 312 403 312 403 322 402 c 0,20,21
 332 402 332 402 338 394 c 0,22,23
 349 379 349 379 308 304 c 1,24,25
 342 242 342 242 474 240 c 0,26,27
 632 238 632 238 716 517 c 0,28,29
 720 528 720 528 730 529.5 c 128,-1,30
 740 531 740 531 747 522.5 c 128,-1,31
 754 514 754 514 752 502 c 2,32,-1
 731 415 l 1,33,34
 774 370 774 370 856.5 346 c 128,-1,35
 939 322 939 322 952 351.5 c 128,-1,36
 965 381 965 381 934 472 c 0,37,38
 930 482 930 482 994 584 c 0,0,1
EndSplineSet
EndChar

StartChar: aSen.isol
Encoding: 65590 -1 54
Width: 2032
Flags: W
AnchorPoint: "DigitAbove" 1532 1070 basechar 0
AnchorPoint: "VAbove" 1532 1070 basechar 0
AnchorPoint: "TwoDotsBelow" 1500 -200 basechar 0
AnchorPoint: "DotBelow" 1600 -200 basechar 0
AnchorPoint: "TashkilBelow" 700 -670 basechar 0
AnchorPoint: "TashkilAbove" 1500 1640 basechar 0
AnchorPoint: "TwoDotsAbove" 1421 1070 basechar 0
AnchorPoint: "HamzaAbove" 1532 1070 basechar 0
AnchorPoint: "DotAbove" 1532 1070 basechar 0
LayerCount: 2
Fore
SplineSet
1829 744 m 2,0,1
 1834 764 1834 764 1850 764.5 c 128,-1,2
 1866 765 1866 765 1876 748 c 0,3,4
 1903 703 1903 703 1903 609 c 0,5,6
 1903 459 1903 459 1831 342 c 0,7,8
 1812 311 1812 311 1781 304 c 0,9,10
 1685 285 1685 285 1559 362 c 1,11,12
 1467 198 1467 198 1294 222 c 1,13,14
 1284 46 1284 46 1241 -82 c 128,-1,15
 1198 -210 1198 -210 1090 -295 c 24,16,17
 855 -478 855 -478 572 -471 c 0,18,19
 222 -462 222 -462 140 -178 c 0,20,21
 117 -98 117 -98 147.5 51 c 128,-1,22
 178 200 178 200 272 374 c 0,23,24
 279 387 279 387 291.5 388 c 128,-1,25
 304 389 304 389 310 379 c 128,-1,26
 316 369 316 369 310 356 c 0,27,28
 182 106 182 106 206 22 c 0,29,30
 281 -245 281 -245 592 -253 c 0,31,32
 1017 -264 1017 -264 1199 21 c 1,33,34
 1210 178 1210 178 1118 376 c 0,35,36
 1107 397 1107 397 1113 410 c 0,37,38
 1157 504 1157 504 1186 548 c 0,39,40
 1194 560 1194 560 1204.5 551 c 128,-1,41
 1215 542 1215 542 1248.5 485 c 128,-1,42
 1282 428 1282 428 1299 424 c 0,43,44
 1404 401 1404 401 1511 488 c 0,45,46
 1552 522 1552 522 1588 675 c 0,47,48
 1592 692 1592 692 1604 697 c 128,-1,49
 1616 702 1616 702 1626 696 c 0,50,51
 1646 682 1646 682 1628 578 c 1,52,53
 1710 518 1710 518 1810 528 c 1,54,55
 1811 559 1811 559 1800 572 c 128,-1,56
 1789 585 1789 585 1792 596 c 2,57,-1
 1829 744 l 2,0,1
EndSplineSet
EndChar

StartChar: aSen.medi
Encoding: 65591 -1 55
Width: 1165
Flags: W
AnchorPoint: "DigitAbove" 595 777 basechar 0
AnchorPoint: "VAbove" 595 777 basechar 0
AnchorPoint: "TwoDotsBelow" 450 -300 basechar 0
AnchorPoint: "DotBelow" 550 -400 basechar 0
AnchorPoint: "TashkilBelow" 620 -670 basechar 0
AnchorPoint: "TashkilAbove" 500 1640 basechar 0
AnchorPoint: "HamzaAbove" 595 777 basechar 0
AnchorPoint: "DotAbove" 595 777 basechar 0
AnchorPoint: "TwoDotsAbove" 484 777 basechar 0
LayerCount: 2
Fore
SplineSet
263 331 m 0,0,1
 275 357 275 357 291 362.5 c 128,-1,2
 307 368 307 368 319.5 352 c 128,-1,3
 332 336 332 336 317.5 305.5 c 128,-1,4
 303 275 303 275 284 241 c 1,5,6
 532 139 532 139 631 374 c 0,7,8
 642 400 642 400 658 405.5 c 128,-1,9
 674 411 674 411 685.5 396.5 c 128,-1,10
 697 382 697 382 689 357 c 0,11,12
 665 288 665 288 668 264 c 0,13,14
 673 218 673 218 743.5 201.5 c 128,-1,15
 814 185 814 185 849.5 221.5 c 128,-1,16
 885 258 885 258 915 387 c 0,17,18
 919 404 919 404 940.5 404 c 128,-1,19
 962 404 962 404 969 387 c 0,20,21
 1043 198 1043 198 1165 185 c 0,22,23
 1190 182 1190 182 1200 126 c 0,24,25
 1210 76 1210 76 1198.5 38 c 128,-1,26
 1187 0 1187 0 1165 0 c 0,27,28
 997 0 997 0 920 203 c 0,29,30
 915 217 915 217 910 202 c 0,31,32
 874 78 874 78 839 33 c 128,-1,33
 804 -12 804 -12 759 -14 c 0,34,35
 614 -20 614 -20 541 95 c 1,36,37
 462 0 462 0 344.5 0 c 128,-1,38
 227 0 227 0 169 80 c 1,39,40
 88 0 88 0 0 0 c 0,41,42
 -39 0 -39 0 -48 138 c 0,43,44
 -51 180 -51 180 0 185 c 0,45,46
 204 201 204 201 263 331 c 0,0,1
EndSplineSet
EndChar

StartChar: aTaa.fina
Encoding: 65592 -1 56
Width: 1540
Flags: W
AnchorPoint: "TashkilBelow" 800 -670 basechar 0
AnchorPoint: "TashkilAbove" 1000 1640 basechar 0
AnchorPoint: "TwoDotsAbove" 1070 1000 basechar 0
AnchorPoint: "DotAbove" 1180 1000 basechar 0
LayerCount: 2
Back
SplineSet
657 1569 m 0,0,1
 663 1580 663 1580 674 1579.5 c 128,-1,2
 685 1579 685 1579 691 1569 c 0,3,4
 698 1556 698 1556 711.5 1521.5 c 128,-1,5
 725 1487 725 1487 740.5 1460.5 c 128,-1,6
 756 1434 756 1434 781 1409 c 0,7,8
 786 1403 786 1403 788 1391.5 c 128,-1,9
 790 1380 790 1380 781 1364 c 1,10,-1
 742 1312 l 2,11,12
 731 1297 731 1297 732 1274 c 0,13,14
 779 750 779 750 772 627 c 0,15,16
 768 559 768 559 733 384 c 1,17,18
 928 550 928 550 1129 643 c 0,19,20
 1228 689 1228 689 1300 674 c 0,21,22
 1337 666 1337 666 1378 622 c 128,-1,23
 1419 578 1419 578 1442 526 c 0,24,25
 1452 503 1452 503 1445 466 c 0,26,27
 1422 345 1422 345 1352 257 c 0,28,29
 1302 194 1302 194 1171 127 c 1,30,31
 1279 133 1279 133 1540 185 c 0,32,33
 1570 191 1570 191 1580 146 c 0,34,35
 1595 76 1595 76 1565 22 c 0,36,37
 1553 1 1553 1 1540 0 c 0,38,39
 1284 -16 1284 -16 981 17 c 1,40,41
 893 3 893 3 702 -6 c 128,-1,42
 511 -15 511 -15 326 -5 c 0,43,44
 317 -4 317 -4 303 4 c 0,45,46
 254 32 254 32 204.5 86 c 128,-1,47
 155 140 155 140 133 187 c 0,48,49
 129 194 129 194 131 200 c 128,-1,50
 133 206 133 206 143 204 c 0,51,52
 229 187 229 187 379 187 c 128,-1,53
 529 187 529 187 551 196 c 1,54,55
 569 213 569 213 617.5 267.5 c 128,-1,56
 666 322 666 322 688 345 c 1,57,58
 691 404 691 404 691.5 472 c 128,-1,59
 692 540 692 540 691 592 c 128,-1,60
 690 644 690 644 684 726.5 c 128,-1,61
 678 809 678 809 675.5 849 c 128,-1,62
 673 889 673 889 662.5 984.5 c 128,-1,63
 652 1080 652 1080 649 1106 c 128,-1,64
 646 1132 646 1132 633.5 1238.5 c 128,-1,65
 621 1345 621 1345 620 1357 c 0,66,67
 616 1392 616 1392 613 1404 c 0,68,69
 605 1448 605 1448 607 1454 c 0,70,71
 633 1523 633 1523 657 1569 c 0,0,1
1121 463 m 0,72,73
 1111 463 1111 463 1095 461 c 0,74,75
 1019 450 1019 450 937 407.5 c 128,-1,76
 855 365 855 365 808.5 329 c 128,-1,77
 762 293 762 293 683 225 c 0,78,79
 668 212 668 212 660 205 c 1,80,81
 1042 231 1042 231 1300 343 c 1,82,83
 1278 385 1278 385 1232 424 c 128,-1,84
 1186 463 1186 463 1121 463 c 0,72,73
EndSplineSet
Fore
SplineSet
1094 49 m 1,0,1
 994 10 994 10 726 -5 c 0,2,3
 355 -26 355 -26 303 4 c 0,4,5
 206 60 206 60 133 187 c 0,6,7
 121 208 121 208 143 204 c 0,8,9
 363 164 363 164 551 196 c 1,10,-1
 688 345 l 1,11,12
 701 490 701 490 678.5 791 c 128,-1,13
 656 1092 656 1092 620 1357 c 2,14,-1
 607 1454 l 1,15,16
 633 1523 633 1523 657 1569 c 0,17,18
 663 1580 663 1580 676 1580 c 128,-1,19
 689 1580 689 1580 698 1554 c 0,20,21
 728 1463 728 1463 774 1416 c 0,22,23
 800 1390 800 1390 781 1364 c 2,24,-1
 742 1312 l 2,25,26
 730 1296 730 1296 732 1274 c 0,27,28
 780 751 780 751 774 655 c 128,-1,29
 768 559 768 559 733 384 c 1,30,31
 928 550 928 550 1129 643 c 0,32,33
 1243 696 1243 696 1300 674 c 0,34,35
 1388 639 1388 639 1442 526 c 0,36,37
 1452 505 1452 505 1445 466 c 0,38,39
 1414 289 1414 289 1291 200 c 1,40,41
 1448 172 1448 172 1540 185 c 0,42,43
 1569 189 1569 189 1578 148 c 0,44,45
 1596 67 1596 67 1574.5 34 c 128,-1,46
 1553 1 1553 1 1540 0 c 0,47,48
 1340 -16 1340 -16 1094 49 c 1,0,1
1095 461 m 0,49,50
 897 435 897 435 660 205 c 1,51,52
 1042 231 1042 231 1300 343 c 1,53,54
 1222 478 1222 478 1095 461 c 0,49,50
EndSplineSet
EndChar

StartChar: aTaa.init
Encoding: 65593 -1 57
Width: 1163
Flags: W
AnchorPoint: "TashkilBelow" 500 -670 basechar 0
AnchorPoint: "TashkilAbove" 700 1640 basechar 0
AnchorPoint: "TwoDotsAbove" 650 1000 basechar 0
AnchorPoint: "DotAbove" 765 1000 basechar 0
LayerCount: 2
Fore
SplineSet
256 1451 m 0,0,1
 264 1462 264 1462 273 1459.5 c 128,-1,2
 282 1457 282 1457 287 1444 c 0,3,4
 338 1326 338 1326 375 1285 c 0,5,6
 392 1267 392 1267 374 1244 c 2,7,-1
 333 1192 l 2,8,9
 321 1178 321 1178 323 1148 c 0,10,11
 350 739 350 739 350 696 c 0,12,13
 350 491 350 491 324 368 c 1,14,15
 623 609 623 609 769 648 c 0,16,17
 845 669 845 669 893 651 c 0,18,19
 969 622 969 622 1027 511 c 0,20,21
 1039 488 1039 488 1029 453 c 0,22,23
 993 324 993 324 924 219 c 24,24,25
 876 145 876 145 722 109 c 0,26,27
 347 22 347 22 0 0 c 0,28,29
 -21 -1 -21 -1 -35.5 45 c 128,-1,30
 -50 91 -50 91 -42 137 c 128,-1,31
 -34 183 -34 183 0 185 c 0,32,33
 87 189 87 189 135 196 c 1,34,-1
 250 307 l 1,35,36
 254 323 254 323 258 384 c 0,37,38
 262 446 262 446 261 542 c 128,-1,39
 260 638 260 638 244 891 c 0,40,41
 226 1188 226 1188 212.5 1258 c 128,-1,42
 199 1328 199 1328 203 1339 c 0,43,44
 228 1406 228 1406 256 1451 c 0,0,1
696 462 m 0,45,46
 674 462 674 462 653 456 c 0,47,48
 450 390 450 390 261 204 c 1,49,50
 653 237 653 237 891 322 c 0,51,52
 903 326 903 326 897 336 c 0,53,54
 814 460 814 460 696 462 c 0,45,46
EndSplineSet
EndChar

StartChar: aTaa.isol
Encoding: 65594 -1 58
Width: 1623
Flags: W
AnchorPoint: "TashkilBelow" 900 -670 basechar 0
AnchorPoint: "TashkilAbove" 1100 1640 basechar 0
AnchorPoint: "TwoDotsAbove" 1050 1000 basechar 0
AnchorPoint: "DotAbove" 1160 1000 basechar 0
LayerCount: 2
Fore
SplineSet
592 1377 m 0,0,1
 631 1471 631 1471 638.5 1481 c 128,-1,2
 646 1491 646 1491 657.5 1490 c 128,-1,3
 669 1489 669 1489 672 1479 c 0,4,5
 694 1424 694 1424 708 1393.5 c 128,-1,6
 722 1363 722 1363 763 1318 c 25,7,8
 778 1295 778 1295 763 1276 c 18,9,-1
 724 1225 l 10,10,11
 712 1209 712 1209 714 1190 c 0,12,13
 760 695 760 695 751.5 544 c 128,-1,14
 743 393 743 393 732 341 c 1,15,16
 985 539 985 539 1093 590.5 c 128,-1,17
 1201 642 1201 642 1279 652 c 0,18,19
 1321 657 1321 657 1374 624 c 1,20,21
 1485 552 1485 552 1492 491 c 128,-1,22
 1499 430 1499 430 1445 325 c 128,-1,23
 1391 220 1391 220 1356 184 c 0,24,25
 1304 130 1304 130 1023 43.5 c 128,-1,26
 742 -43 742 -43 435 -57 c 1,27,28
 321 -38 321 -38 245.5 15.5 c 128,-1,29
 170 69 170 69 142 118.5 c 128,-1,30
 114 168 114 168 149 164 c 0,31,32
 297 143 297 143 539 160 c 1,33,-1
 674 292 l 1,34,35
 685 505 685 505 663 737 c 128,-1,36
 641 969 641 969 618 1144.5 c 128,-1,37
 595 1320 595 1320 590 1340 c 128,-1,38
 585 1360 585 1360 592 1377 c 0,0,1
1031 418 m 24,39,40
 883 373 883 373 659 174 c 1,41,42
 1081 221 1081 221 1333 354 c 1,43,44
 1265 489 1265 489 1031 418 c 24,39,40
EndSplineSet
EndChar

StartChar: aTaa.medi
Encoding: 65595 -1 59
Width: 1130
Flags: W
AnchorPoint: "TashkilBelow" 450 -670 basechar 0
AnchorPoint: "TashkilAbove" 500 1640 basechar 0
AnchorPoint: "TwoDotsAbove" 589 1000 basechar 0
AnchorPoint: "DotAbove" 700 1000 basechar 0
LayerCount: 2
Back
SplineSet
119 1383 m 0,0,1
 139 1436 139 1436 169 1494 c 0,2,3
 175 1506 175 1506 186.5 1504.5 c 128,-1,4
 198 1503 198 1503 203 1490 c 0,5,6
 208 1479 208 1479 219 1452 c 128,-1,7
 230 1425 230 1425 236 1412.5 c 128,-1,8
 242 1400 242 1400 256 1378.5 c 128,-1,9
 270 1357 270 1357 289 1338 c 0,10,11
 314 1312 314 1312 289 1284 c 0,12,13
 276 1269 276 1269 254 1239 c 0,14,15
 244 1226 244 1226 247 1193 c 0,16,17
 248 1185 248 1185 258 1091 c 128,-1,18
 268 997 268 997 275 923.5 c 128,-1,19
 282 850 282 850 287.5 754.5 c 128,-1,20
 293 659 293 659 290 605 c 0,21,22
 286 536 286 536 252 365 c 1,23,24
 331 431 331 431 378 468.5 c 128,-1,25
 425 506 425 506 500 556.5 c 128,-1,26
 575 607 575 607 636 636 c 0,27,28
 740 684 740 684 817 671 c 0,29,30
 856 664 856 664 900.5 621 c 128,-1,31
 945 578 945 578 971 527 c 0,32,33
 982 505 982 505 975 467 c 0,34,35
 953 346 953 346 881 257 c 0,36,37
 830 195 830 195 717 126 c 1,38,39
 811 128 811 128 889 139 c 128,-1,40
 967 150 967 150 1130 185 c 0,41,42
 1159 191 1159 191 1165 145 c 0,43,44
 1174 68 1174 68 1153 21 c 0,45,46
 1144 1 1144 1 1130 0 c 0,47,48
 900 -20 900 -20 514 10 c 1,49,50
 441 -1 441 -1 257 -3.5 c 128,-1,51
 73 -6 73 -6 0 0 c 0,52,53
 -31 2 -31 2 -50.5 47.5 c 128,-1,54
 -70 93 -70 93 -58.5 138.5 c 128,-1,55
 -47 184 -47 184 -4 185 c 0,56,57
 3 185 3 185 42.5 185.5 c 128,-1,58
 82 186 82 186 88 186 c 1,59,-1
 201 308 l 1,60,61
 205 701 205 701 135 1255 c 0,62,63
 125 1335 125 1335 121 1351 c 0,64,65
 115 1372 115 1372 119 1383 c 0,0,1
629 462 m 0,66,67
 615 462 615 462 602 459 c 0,68,69
 510 442 510 442 394.5 362 c 128,-1,70
 279 282 279 282 184 187 c 1,71,72
 553 207 553 207 828 346 c 1,73,74
 805 385 805 385 751.5 424 c 128,-1,75
 698 463 698 463 629 462 c 0,66,67
EndSplineSet
Fore
SplineSet
684 49 m 1,0,1
 534 0 534 0 291.5 -3.5 c 128,-1,2
 49 -7 49 -7 0 0 c 0,3,4
 -15 2 -15 2 -30 48 c 0,5,6
 -72 180 -72 180 0 185 c 1,7,-1
 88 186 l 1,8,-1
 201 308 l 1,9,10
 205 701 205 701 135 1255 c 0,11,12
 125 1336 125 1336 120 1354 c 0,13,14
 112 1384 112 1384 169 1494 c 0,15,16
 175 1506 175 1506 186.5 1504.5 c 128,-1,17
 198 1503 198 1503 203 1490 c 0,18,19
 245 1380 245 1380 289 1338 c 0,20,21
 313 1315 313 1315 289 1284 c 2,22,-1
 254 1239 l 2,23,24
 243 1225 243 1225 247 1193 c 0,25,26
 299 774 299 774 290 605 c 0,27,28
 286 536 286 536 252 365 c 1,29,30
 502 573 502 573 627 632 c 128,-1,31
 752 691 752 691 817 671 c 0,32,33
 915 642 915 642 971 527 c 0,34,35
 982 505 982 505 975 467 c 0,36,37
 946 310 946 310 835 211 c 1,38,39
 992 171 992 171 1130 185 c 0,40,41
 1159 188 1159 188 1168 148 c 0,42,43
 1186 67 1186 67 1164.5 34 c 128,-1,44
 1143 1 1143 1 1130 0 c 0,45,46
 930 -16 930 -16 684 49 c 1,0,1
752 424 m 0,47,48
 622 519 622 519 394 362 c 0,49,50
 278 282 278 282 184 187 c 1,51,52
 553 207 553 207 828 346 c 1,53,54
 806 385 806 385 752 424 c 0,47,48
EndSplineSet
EndChar

StartChar: aWaw.fina
Encoding: 65596 -1 60
Width: 1008
Flags: W
AnchorPoint: "DigitAbove" 703 773 basechar 0
AnchorPoint: "Stroke" 828 -212 basechar 0
AnchorPoint: "HighHamza" 900 773 basechar 0
AnchorPoint: "RingBelow" 550 -130 basechar 0
AnchorPoint: "TashkilBelow" 800 -670 basechar 0
AnchorPoint: "TashkilAbove" 600 1640 basechar 0
AnchorPoint: "TwoDotsAbove" 592 773 basechar 0
AnchorPoint: "HamzaAbove" 703 773 basechar 0
AnchorPoint: "DotAbove" 703 773 basechar 0
AnchorPoint: "VAbove" 789 712 basechar 0
LayerCount: 2
Back
SplineSet
1123 566 m 0,0,1
 1130 576 1130 576 1140 574 c 128,-1,2
 1150 572 1150 572 1156 561 c 0,3,4
 1217 455 1217 455 1191 234 c 0,5,6
 1170 57 1170 57 1008 0 c 1,7,8
 986 0 986 0 965 104 c 0,9,10
 958 139 958 139 966 158 c 128,-1,11
 974 177 974 177 1008 185 c 0,12,13
 1086 204 1086 204 1120 250 c 0,14,15
 1124 255 1124 255 1121 264 c 0,16,17
 1112 316 1112 316 1066 383 c 0,18,19
 1050 407 1050 407 1060 433 c 0,20,21
 1103 534 1103 534 1123 566 c 0,0,1
EndSplineSet
Fore
SplineSet
867 206 m 1,0,1
 828 292 828 292 769 290 c 1,2,3
 733 285 733 285 712 258 c 0,4,5
 703 247 703 247 717 229 c 0,6,7
 749 188 749 188 858 190 c 0,8,9
 871 190 871 190 867 206 c 1,0,1
965 -22 m 0,10,11
 901 -388 901 -388 578 -533 c 0,12,13
 494 -571 494 -571 423 -575.5 c 128,-1,14
 352 -580 352 -580 161 -450 c 0,15,16
 139 -435 139 -435 148 -420 c 128,-1,17
 157 -405 157 -405 176 -415 c 0,18,19
 347 -504 347 -504 604 -357 c 0,20,21
 824 -232 824 -232 903 -11 c 1,22,23
 903 -4 903 -4 898 -1 c 1,24,25
 747 1 747 1 677 41.5 c 128,-1,26
 607 82 607 82 624 200 c 0,27,28
 628 227 628 227 641 265 c 0,29,30
 685 392 685 392 768 438.5 c 128,-1,31
 851 485 851 485 909 405 c 0,32,33
 968 323 968 323 976 185 c 1,34,35
 991 186 991 186 1008 187 c 0,36,37
 1038 188 1038 188 1044 140 c 0,38,39
 1050 94 1050 94 1037.5 47 c 128,-1,40
 1025 0 1025 0 1008 0 c 0,41,42
 993 -1 993 -1 968 -1 c 1,43,44
 967 -11 967 -11 965 -22 c 0,10,11
EndSplineSet
EndChar

StartChar: aWaw.isol
Encoding: 65597 -1 61
Width: 1121
Flags: W
AnchorPoint: "AlefAbove" 800 650 basechar 0
AnchorPoint: "DigitAbove" 710 900 basechar 0
AnchorPoint: "Stroke" 878 -42 basechar 0
AnchorPoint: "HighHamza" 1110 900 basechar 0
AnchorPoint: "RingBelow" 540 -20 basechar 0
AnchorPoint: "TashkilBelow" 810 -670 basechar 0
AnchorPoint: "TashkilAbove" 730 1640 basechar 0
AnchorPoint: "TwoDotsAbove" 599 900 basechar 0
AnchorPoint: "DotAbove" 710 900 basechar 0
AnchorPoint: "VAbove" 796 842 basechar 0
AnchorPoint: "HamzaAbove" 710 900 basechar 0
LayerCount: 2
Fore
SplineSet
646 398 m 0,0,1
 717 596 717 596 814 594 c 0,2,3
 872 594 872 594 923 512.5 c 128,-1,4
 974 431 974 431 988 329 c 128,-1,5
 1002 227 1002 227 956.5 46 c 128,-1,6
 911 -135 911 -135 776.5 -288 c 128,-1,7
 642 -441 642 -441 560.5 -450.5 c 128,-1,8
 479 -460 479 -460 345 -437.5 c 128,-1,9
 211 -415 211 -415 149 -389 c 0,10,11
 127 -380 127 -380 130 -365 c 128,-1,12
 133 -350 133 -350 156 -353 c 0,13,14
 317 -373 317 -373 460 -340 c 0,15,16
 547 -320 547 -320 710.5 -176.5 c 128,-1,17
 874 -33 874 -33 905 64 c 1,18,19
 895 148 895 148 880 157 c 1,20,21
 803 38 803 38 682.5 99 c 144,-1,22
 562 160 562 160 646 398 c 0,0,1
831 321 m 1,23,24
 772 417 772 417 704 330 c 1,25,26
 756 272 756 272 831 321 c 1,23,24
EndSplineSet
EndChar

StartChar: aYaa.fina
Encoding: 65598 -1 62
Width: 1200
Flags: W
AnchorPoint: "HamzaBelow" 749 -997 basechar 0
AnchorPoint: "DotBelow" 749 -997 basechar 0
AnchorPoint: "TwoDotsBelow" 638 -997 basechar 0
AnchorPoint: "DigitBelow" 749 -997 basechar 0
AnchorPoint: "DigitAbove" 530 500 basechar 0
AnchorPoint: "AlefAbove" 600 -100 basechar 0
AnchorPoint: "RingBelow" 640 -600 basechar 0
AnchorPoint: "HighHamza" 900 680 basechar 0
AnchorPoint: "TwoDotsAbove" 420 500 basechar 0
AnchorPoint: "DotAbove" 530 500 basechar 0
AnchorPoint: "VAbove" 430 500 basechar 0
AnchorPoint: "Tail" 289 156 basechar 0
AnchorPoint: "TashkilBelow" 700 -770 basechar 0
AnchorPoint: "TashkilAbove" 600 1640 basechar 0
AnchorPoint: "HamzaAbove" 330 500 basechar 0
LayerCount: 2
Fore
SplineSet
132 -237 m 0,0,1
 139 -136 139 -136 184 -12.5 c 128,-1,2
 229 111 229 111 275 173 c 0,3,4
 289 192 289 192 307.5 182 c 128,-1,5
 326 172 326 172 312 147 c 0,6,7
 151 -146 151 -146 228 -298 c 0,8,9
 339 -518 339 -518 643 -504 c 0,10,11
 996 -488 996 -488 1259 -268 c 1,12,13
 1282 -237 1282 -237 1222.5 -222.5 c 128,-1,14
 1163 -208 1163 -208 1040.5 -199.5 c 128,-1,15
 918 -191 918 -191 905 -183 c 0,16,17
 804 -128 804 -128 879 -12 c 25,18,19
 969 122 969 122 1200 185 c 24,20,21
 1262 202 1262 202 1251 118 c 0,22,23
 1236 0 1236 0 1200 0 c 0,24,25
 1003 0 1003 0 999 -54 c 1,26,27
 1252 -63 1252 -63 1331 -125 c 0,28,29
 1361 -149 1361 -149 1371.5 -185.5 c 128,-1,30
 1382 -222 1382 -222 1352.5 -298 c 128,-1,31
 1323 -374 1323 -374 1295 -403 c 0,32,33
 1033 -679 1033 -679 630 -697 c 0,34,35
 380 -708 380 -708 233 -574 c 0,36,37
 116 -466 116 -466 132 -237 c 0,0,1
EndSplineSet
EndChar

StartChar: aYaa.isol
Encoding: 65599 -1 63
Width: 1566
Flags: W
AnchorPoint: "DigitBelow" 727 -709 basechar 0
AnchorPoint: "DigitAbove" 585 828 basechar 0
AnchorPoint: "AlefAbove" 600 350 basechar 0
AnchorPoint: "RingBelow" 640 -300 basechar 0
AnchorPoint: "HighHamza" 1470 1090 basechar 0
AnchorPoint: "TwoDotsAbove" 475 828 basechar 0
AnchorPoint: "DotAbove" 585 828 basechar 0
AnchorPoint: "VAbove" 485 828 basechar 0
AnchorPoint: "Tail" 350 484 basechar 0
AnchorPoint: "TashkilBelow" 700 -670 basechar 0
AnchorPoint: "TashkilAbove" 800 1640 basechar 0
AnchorPoint: "TwoDotsBelow" 616 -709 basechar 0
AnchorPoint: "HamzaAbove" 385 828 basechar 0
AnchorPoint: "HamzaBelow" 727 -709 basechar 0
AnchorPoint: "DotBelow" 727 -709 basechar 0
LayerCount: 2
Fore
SplineSet
1375 590 m 0,0,1
 1252 656 1252 656 1063 550 c 0,2,3
 940 480 940 480 893 347 c 0,4,5
 884 321 884 321 897 293 c 0,6,7
 940 194 940 194 1159 182 c 128,-1,8
 1378 170 1378 170 1388 91 c 0,9,10
 1408 -70 1408 -70 1296 -160 c 0,11,12
 1001 -397 1001 -397 626 -411 c 0,13,14
 176 -428 176 -428 131 -79 c 0,15,16
 110 80 110 80 209 296 c 0,17,18
 263 412 263 412 338 504 c 0,19,20
 358 528 358 528 370 508 c 128,-1,21
 382 488 382 488 369 471 c 0,22,23
 167 186 167 186 237 8 c 0,24,25
 328 -224 328 -224 648 -218 c 0,26,27
 1038 -211 1038 -211 1278 -19 c 0,28,29
 1298 -3 1298 -3 1281 11 c 0,30,31
 1248 40 1248 40 1048 52 c 128,-1,32
 848 64 848 64 816.5 153.5 c 128,-1,33
 785 243 785 243 822 356 c 0,34,35
 895 578 895 578 1110 732 c 0,36,37
 1219 811 1219 811 1296 816 c 0,38,39
 1481 828 1481 828 1427 624 c 0,40,41
 1412 570 1412 570 1375 590 c 0,0,1
EndSplineSet
EndChar

StartChar: uni0621
Encoding: 1569 1569 64
Width: 782
Flags: W
AnchorPoint: "TashkilBelow" 430 60 basechar 0
AnchorPoint: "TashkilAbove" 300 700 basechar 0
LayerCount: 2
Fore
SplineSet
631 255 m 2,0,1
 622 226 622 226 605 215 c 1,2,3
 451 161 451 161 224 8 c 24,4,5
 204 -5 204 -5 191 8 c 0,6,7
 156 43 156 43 283 149 c 1,8,9
 116 210 116 210 130 312 c 1,10,11
 140 396 140 396 256 530 c 0,12,13
 327 611 327 611 376 611 c 0,14,15
 481 610 481 610 471 496 c 0,16,17
 467 455 467 455 444.5 417.5 c 128,-1,18
 422 380 422 380 393 407 c 0,19,20
 301 495 301 495 261 439 c 0,21,22
 217 376 217 376 333 320 c 0,23,24
 404 286 404 286 498 303 c 0,25,26
 525 308 525 308 562 329.5 c 128,-1,27
 599 351 599 351 624 356 c 1,28,29
 663 362 663 362 647 309 c 2,30,-1
 631 255 l 2,0,1
EndSplineSet
EndChar

StartChar: aLam.medi_LamMemFina
Encoding: 65600 -1 65
Width: 521
Flags: W
AnchorPoint: "Stroke" 167 1226 basechar 0
AnchorPoint: "TwoDotsBelow" 400 -200 basechar 0
AnchorPoint: "TwoDotsAbove" 50 1725 basechar 0
AnchorPoint: "DotAbove" 170 1725 basechar 0
AnchorPoint: "TashkilBelow" 450 -670 basechar 0
AnchorPoint: "TashkilAbove" 250 1640 basechar 0
AnchorPoint: "VAbove" 170 1625 basechar 0
LayerCount: 2
Fore
SplineSet
216 490 m 1,0,1
 200 234 200 234 81 103 c 0,2,3
 41 59 41 59 -39 83 c 0,4,5
 -85 97 -85 97 -83 116 c 0,6,7
 -82 126 -82 126 -64 132 c 0,8,9
 173 218 173 218 162 551 c 24,10,11
 153 826 153 826 129.5 1050 c 128,-1,12
 106 1274 106 1274 101 1367 c 0,13,14
 100 1387 100 1387 113 1413 c 2,15,-1
 156 1498 l 2,16,17
 188 1561 188 1561 197 1471 c 2,18,19
 197 1470 197 1470 245.5 1010.5 c 128,-1,20
 294 551 294 551 295 546 c 24,21,22
 357 199 357 199 521 185 c 0,23,24
 613 177 613 177 554 26 c 0,25,26
 544 0 544 0 521 0 c 0,27,28
 294 0 294 0 216 490 c 1,0,1
EndSplineSet
EndChar

StartChar: aBaa.init_BaaRaaIsol
Encoding: 65602 -1 67
Width: 362
Flags: W
AnchorPoint: "DigitBelow" 194 -200 basechar 0
AnchorPoint: "DigitAbove" 244 950 basechar 0
AnchorPoint: "HighHamza" 444 950 basechar 0
AnchorPoint: "VAbove" 244 950 basechar 0
AnchorPoint: "RingBelow" 200 270 basechar 0
AnchorPoint: "TaaAbove" 244 750 basechar 0
AnchorPoint: "TashkilBelow" 194 -670 basechar 0
AnchorPoint: "TashkilAbove" 244 1640 basechar 0
AnchorPoint: "DotBelowAlt" 194 -750 basechar 0
AnchorPoint: "TwoDotsBelowAlt" 84 -750 basechar 0
AnchorPoint: "TwoDotsBelow" 164 -200 basechar 0
AnchorPoint: "TwoDotsAbove" 164 950 basechar 0
AnchorPoint: "DotAbove" 244 950 basechar 0
AnchorPoint: "HamzaAbove" 244 950 basechar 0
AnchorPoint: "DotBelow" 194 -200 basechar 0
AnchorPoint: "HamzaBelow" 194 -200 basechar 0
LayerCount: 2
Fore
SplineSet
246.5 538 m 128,-1,1
 268 539 268 539 271 514 c 0,2,3
 287 364 287 364 240 268 c 128,-1,4
 193 172 193 172 76 153 c 0,5,6
 -7 139 -7 139 -64 168 c 0,7,8
 -89 181 -89 181 -80 233 c 1,9,10
 -49 389 l 2,11,12
 -39 440 -39 440 -12 401 c 152,-1,13
 15 362 15 362 75.5 355.5 c 128,-1,14
 136 349 136 349 182 390 c 128,-1,15
 228 431 228 431 226 512 c 0,16,0
 225 537 225 537 246.5 538 c 128,-1,1
EndSplineSet
EndChar

StartChar: aRaa.fina_BaaRaaIsol
Encoding: 65603 -1 68
Width: 913
Flags: W
AnchorPoint: "HamzaAbove" 642 902 basechar 0
AnchorPoint: "Stroke" 820 -56 basechar 0
AnchorPoint: "DotAlt" 424 -5 basechar 0
AnchorPoint: "DotBelow" 624 -654 basechar 0
AnchorPoint: "RingBelow" 494 -294 basechar 0
AnchorPoint: "TaaAbove" 642 702 basechar 0
AnchorPoint: "TashkilBelow" 700 -670 basechar 0
AnchorPoint: "TashkilAbove" 640 1640 basechar 0
AnchorPoint: "TwoDotsAbove" 530 902 basechar 0
AnchorPoint: "VAbove" 642 902 basechar 0
AnchorPoint: "DotAbove" 640 902 basechar 0
LayerCount: 2
Fore
SplineSet
901 401 m 24,0,1
 953 336 953 336 965.5 281.5 c 128,-1,2
 978 227 978 227 968 117 c 0,3,4
 950 -75 950 -75 803.5 -238 c 128,-1,5
 657 -401 657 -401 533 -406 c 0,6,7
 324 -414 324 -414 146 -299 c 0,8,9
 132 -291 132 -291 130 -280 c 128,-1,10
 128 -269 128 -269 136 -263 c 128,-1,11
 144 -257 144 -257 157 -262 c 0,12,13
 296 -306 296 -306 394 -288 c 0,14,15
 750 -224 750 -224 899 83 c 0,16,17
 902 91 902 91 902 116 c 0,18,19
 902 132 902 132 848 168 c 0,20,21
 823 188 823 188 832 233 c 2,22,-1
 863 389 l 2,23,24
 873 437 873 437 901 401 c 24,0,1
EndSplineSet
EndChar

StartChar: aLam.medi_LamWawFina
Encoding: 65604 -1 69
Width: 520
Flags: W
AnchorPoint: "Stroke" 217 1226 basechar 0
AnchorPoint: "TwoDotsBelow" 180 -150 basechar 0
AnchorPoint: "TwoDotsAbove" 100 1675 basechar 0
AnchorPoint: "DotAbove" 220 1675 basechar 0
AnchorPoint: "TashkilBelow" 200 -670 basechar 0
AnchorPoint: "TashkilAbove" 130 1640 basechar 0
AnchorPoint: "VAbove" 220 1575 basechar 0
LayerCount: 2
Back
SplineSet
23 250 m 0,0,1
 40 155 40 155 26 62 c 0,2,3
 10 -47 10 -47 -11 -103 c 1,4,5
 -51 -246 -51 -246 -179 -375 c 128,-1,7
 -307 -504 -307 -504 -400 -506 c 0,6,7
 -483 -508 -483 -508 -600 -485 c 0,8,9
 -717 -462 -717 -462 -805 -427 c 0,8,9
 -821 -421 -821 -421 -827 -410 c 0,10,11
 -832 -399 -832 -399 -824 -393 c 0,12,13
 -816 -386 -816 -386 -801 -389 c 0,10,11
 -731 -404 -731 -404 -673 -406 c 0,12,13
 -616 -408 -616 -408 -563 -398 c 0,14,15
 -510 -387 -510 -387 -467 -371 c 128,-1,17
 -424 -355 -424 -355 -362 -326 c 0,12,13
 -265 -281 -265 -281 -185 -205 c 128,-1,15
 -105 -129 -105 -129 -63 -55 c 1,14,15
 -52 -20 -52 -20 -65 42 c 1,16,17
 -219 15 -219 15 -305 50 c 0,18,19
 -351 69 -351 69 -358 144.5 c 128,-1,21
 -365 220 -365 220 -340 301.5 c 128,-1,23
 -315 383 -315 383 -261 449 c 128,-1,25
 -207 515 -207 515 -145 517 c 0,20,21
 -84 519 -84 519 -39.5 435 c 128,-1,23
 5 351 5 351 23 250 c 0,0,1
-211 299 m 0,22,23
 -230 299 -230 299 -249.5 285.5 c 128,-1,25
 -269 272 -269 272 -275 252 c 0,24,25
 -278 243 -278 243 -260 233 c 1,26,27
 -194 217 -194 217 -126 226 c 1,28,29
 -161 294 -161 294 -211 299 c 0,22,23
EndSplineSet
Fore
SplineSet
214 1468 m 2,0,1
 220 1477 220 1477 229 1471 c 0,2,3
 237 1466 237 1466 238 1456 c 2,4,5
 278 1096 l 0,6,7
 337 491 337 491 383 354 c 0,8,9
 426 226 426 226 520 185 c 0,10,11
 574 161 574 161 568 135 c 0,12,13
 563 112 563 112 544 42 c 0,14,15
 533 0 533 0 520 0 c 0,16,17
 335 0 335 0 275 352 c 1,18,19
 243 234 243 234 188 164.5 c 128,-1,20
 133 95 133 95 26 62 c 0,21,22
 -7 52 -7 52 -22 110 c 0,23,24
 -43 187 -43 187 -7 231 c 0,25,26
 5 246 5 246 23 250 c 0,27,28
 206 298 206 298 219 394 c 0,29,30
 226 458 226 458 146 1332 c 0,31,32
 144 1351 144 1351 151 1364 c 2,33,-1
 214 1468 l 2,0,1
EndSplineSet
EndChar

StartChar: aWaw.fina_LamWawFina
Encoding: 65605 -1 70
Width: 956
Flags: W
AnchorPoint: "DigitAbove" 705 820 basechar 0
AnchorPoint: "Stroke" 870 -106 basechar 0
AnchorPoint: "HighHamza" 900 820 basechar 0
AnchorPoint: "RingBelow" 547 -81 basechar 0
AnchorPoint: "TashkilBelow" 740 -670 basechar 0
AnchorPoint: "TashkilAbove" 605 1640 basechar 0
AnchorPoint: "TwoDotsAbove" 594 820 basechar 0
AnchorPoint: "HamzaAbove" 705 820 basechar 0
AnchorPoint: "DotAbove" 705 820 basechar 0
AnchorPoint: "VAbove" 791 762 basechar 0
LayerCount: 2
Back
SplineSet
1156 1468 m 2,30,31
 1164 1484 1164 1484 1186 1470 c 0,32,33
 1194 1465 1194 1465 1195 1456 c 0,32,33
 1211 1348 1211 1348 1234.5 1095.5 c 128,-1,35
 1258 843 1258 843 1283.5 643 c 128,-1,37
 1309 443 1309 443 1339 354 c 0,34,35
 1357 300 1357 300 1399 248.5 c 128,-1,37
 1441 197 1441 197 1477 185 c 0,36,37
 1498 178 1498 178 1503.5 131.5 c 128,-1,39
 1509 85 1509 85 1500 41.5 c 128,-1,41
 1491 -2 1491 -2 1476 0 c 0,38,39
 1292 24 1292 24 1232 352 c 1,40,41
 1200 234 1200 234 1145 164.5 c 128,-1,43
 1090 95 1090 95 983 62 c 0,42,43
 950 52 950 52 934 110 c 0,44,45
 913 187 913 187 949 231 c 0,46,47
 961 246 961 246 980 250 c 0,44,45
 1075 271 1075 271 1121 311 c 128,-1,47
 1167 351 1167 351 1175 394 c 0,46,47
 1190 468 1190 468 1107 1288 c 0,48,49
 1105 1311 1105 1311 1103 1323 c 0,48,49
 1100 1348 1100 1348 1108 1364 c 2,50,-1
 1156 1468 l 2,30,31
EndSplineSet
Fore
SplineSet
917 435 m 0,0,1
 1012 257 1012 257 983 62 c 0,2,3
 971 -19 971 -19 945 -103 c 24,4,5
 898 -253 898 -253 774 -378.5 c 128,-1,6
 650 -504 650 -504 556 -506 c 0,7,8
 361 -511 361 -511 151 -427 c 0,9,10
 135 -421 135 -421 130 -410.5 c 128,-1,11
 125 -400 125 -400 133 -393 c 128,-1,12
 141 -386 141 -386 156 -389 c 0,13,14
 243 -408 243 -408 283 -406 c 0,15,16
 652 -396 652 -396 893 -55 c 0,17,18
 907 -34 907 -34 891 42 c 1,19,20
 737 15 737 15 648.5 51.5 c 128,-1,21
 560 88 560 88 614.5 291 c 128,-1,22
 669 494 669 494 811 517 c 0,23,24
 868 526 868 526 917 435 c 0,0,1
831 226 m 1,25,26
 794 297 794 297 745 299 c 152,-1,27
 696 301 696 301 681 252 c 1,28,29
 700 212 700 212 831 226 c 1,25,26
EndSplineSet
EndChar

StartChar: aLam.init_LamHaaInit
Encoding: 65606 -1 71
Width: 1146
Flags: W
AnchorPoint: "Stroke" 323 1080 basechar 0
AnchorPoint: "TwoDotsBelow" 310 0 basechar 0
AnchorPoint: "TwoDotsAbove" 190 1670 basechar 0
AnchorPoint: "DotAbove" 310 1670 basechar 0
AnchorPoint: "TashkilBelow" 841 -670 basechar 0
AnchorPoint: "TashkilAbove" 510 1640 basechar 0
AnchorPoint: "VAbove" 310 1570 basechar 0
LayerCount: 2
Fore
SplineSet
328 659 m 0,0,1
 314 885 314 885 264 1220 c 1,2,-1
 240 1304 l 1,3,4
 238 1330 238 1330 248 1345 c 152,-1,5
 258 1360 258 1360 299 1430 c 0,6,7
 306 1442 306 1442 316.5 1441.5 c 128,-1,8
 327 1441 327 1441 331 1425 c 0,9,10
 351 1346 351 1346 422 1272 c 0,11,12
 440 1253 440 1253 423 1230 c 2,13,-1
 380 1172 l 2,14,15
 370 1159 370 1159 374 1128 c 24,16,17
 433 693 433 693 382 564 c 0,18,19
 324 416 324 416 -10 394 c 0,20,21
 -150 385 -150 385 -64 491 c 0,22,23
 -44 516 -44 516 -26 537.5 c 128,-1,24
 -8 559 -8 559 27 560 c 0,25,26
 183 564 183 564 269 584 c 0,27,28
 332 598 332 598 328 659 c 0,0,1
EndSplineSet
EndChar

StartChar: aFaa.medi_FaaYaaFina
Encoding: 65607 -1 72
Width: 873
Flags: W
AnchorPoint: "HamzaAbove" 498 1200 basechar 0
AnchorPoint: "DotAbove" 583 1200 basechar 0
AnchorPoint: "TwoDotsAbove" 398 1200 basechar 0
AnchorPoint: "TashkilAbove" 548 1640 basechar 0
AnchorPoint: "TashkilBelow" 518 -670 basechar 0
AnchorPoint: "DotBelow" 568 -620 basechar 0
AnchorPoint: "TwoDotsBelow" 468 -620 basechar 0
LayerCount: 2
Fore
SplineSet
339 432 m 0,0,1
 402 602 402 602 570 728 c 0,2,3
 634 776 634 776 677 776 c 0,4,5
 689 776 689 776 697 772 c 0,6,7
 746 742 746 742 760 660 c 0,8,9
 787 503 787 503 725 367 c 0,10,11
 695 301 695 301 651 236 c 1,12,13
 734 183 734 183 873 185 c 0,14,15
 892 185 892 185 896 134 c 0,16,17
 908 1 908 1 873 0 c 0,18,19
 672 0 672 0 455 116 c 1,20,21
 122 -33 122 -33 -40 -205 c 1,22,-1
 -100 -204 l 1,23,-1
 -49 -75 l 1,24,25
 94 77 94 77 353 207 c 1,26,27
 290 301 290 301 339 432 c 0,0,1
585 560 m 1,28,29
 488 568 488 568 407 455 c 1,30,31
 384 426 384 426 429 365 c 128,-1,32
 474 304 474 304 534 304 c 128,-1,33
 594 304 594 304 669 382 c 1,34,35
 674 540 674 540 585 560 c 1,28,29
EndSplineSet
EndChar

StartChar: aLam.init_LamLamHaaInit
Encoding: 65609 -1 74
Width: 415
Flags: W
AnchorPoint: "Stroke" 55 1166 basechar 0
AnchorPoint: "TwoDotsBelow" 100 0 basechar 0
AnchorPoint: "TwoDotsAbove" -111 1716 basechar 0
AnchorPoint: "DotAbove" 9 1716 basechar 0
AnchorPoint: "TashkilBelow" 200 -670 basechar 0
AnchorPoint: "TashkilAbove" 219 1640 basechar 0
AnchorPoint: "VAbove" 9 1616 basechar 0
LayerCount: 2
Fore
SplineSet
-33 565 m 0,0,1
 -70 562 -70 562 -31.5 662 c 128,-1,2
 7 762 7 762 31 771 c 128,-1,3
 55 780 55 780 52.5 809.5 c 128,-1,4
 50 839 50 839 12 1073 c 128,-1,5
 -26 1307 -26 1307 -35.5 1345.5 c 128,-1,6
 -45 1384 -45 1384 -37 1407 c 2,7,-1
 -4 1496 l 2,8,9
 2 1511 2 1511 15 1509 c 128,-1,10
 28 1507 28 1507 33 1494 c 0,11,12
 77 1392 77 1392 130 1341 c 0,13,14
 149 1323 149 1323 129 1295 c 0,15,16
 86 1234 86 1234 84 1230 c 1,17,18
 139 917 139 917 132 856 c 0,19,20
 104 575 104 575 -33 565 c 0,0,1
EndSplineSet
EndChar

StartChar: aLam.medi_LamLamHaaInit
Encoding: 65610 -1 75
Width: 738
Flags: W
AnchorPoint: "Stroke" 447 1226 basechar 0
AnchorPoint: "TwoDotsBelow" 450 0 basechar 0
AnchorPoint: "TwoDotsAbove" 298 1731 basechar 0
AnchorPoint: "DotAbove" 418 1731 basechar 0
AnchorPoint: "TashkilBelow" 500 -670 basechar 0
AnchorPoint: "TashkilAbove" 478 1640 basechar 0
AnchorPoint: "VAbove" 418 1631 basechar 0
LayerCount: 2
Fore
SplineSet
766 770 m 0,0,1
 792 777 792 777 785 730 c 0,2,3
 772 642 772 642 731 584 c 0,4,5
 719 567 719 567 711 566 c 0,6,7
 528 538 528 538 465 933 c 1,8,9
 457 680 457 680 218 527 c 0,10,11
 40 412 40 412 -107 404 c 0,12,13
 -125 403 -125 403 -117 419 c 2,14,-1
 -40 577 l 2,15,16
 -35 587 -35 587 -24 588 c 0,17,18
 294 610 294 610 393 826 c 1,19,20
 418 878 418 878 402 1074 c 0,21,22
 396 1146 396 1146 388.5 1218.5 c 128,-1,23
 381 1291 381 1291 372 1408 c 0,24,25
 371 1420 371 1420 380 1431 c 2,26,-1
 442 1506 l 2,27,28
 467 1536 467 1536 470 1505 c 0,29,30
 512 1006 512 1006 571 893 c 0,31,32
 651 739 651 739 766 770 c 0,0,1
EndSplineSet
EndChar

StartChar: aBaa.medi_BaaMemFina
Encoding: 65612 -1 77
Width: 692
Flags: W
AnchorPoint: "DigitBelow" 447 -580 basechar 0
AnchorPoint: "DigitAbove" 367 800 basechar 0
AnchorPoint: "HighHamza" 467 800 basechar 0
AnchorPoint: "VAbove" 367 800 basechar 0
AnchorPoint: "RingBelow" 550 120 basechar 0
AnchorPoint: "TaaAbove" 367 600 basechar 0
AnchorPoint: "TashkilBelow" 450 -670 basechar 0
AnchorPoint: "TashkilAbove" 300 1640 basechar 0
AnchorPoint: "TwoDotsBelow" 310 -580 basechar 0
AnchorPoint: "TwoDotsAbove" 256 800 basechar 0
AnchorPoint: "HamzaBelow" 447 -580 basechar 0
AnchorPoint: "HamzaAbove" 367 800 basechar 0
AnchorPoint: "DotBelow" 447 -580 basechar 0
AnchorPoint: "DotAbove" 367 800 basechar 0
LayerCount: 2
Fore
SplineSet
441 386 m 24,0,1
 511 385 511 385 606 255 c 0,2,3
 654 191 654 191 692 185 c 0,4,5
 809 165 809 165 735 25 c 0,6,7
 722 0 722 0 692 0 c 0,8,9
 590 0 590 0 509 132 c 0,10,11
 443 240 443 240 307 220 c 128,-1,12
 171 200 171 200 62 113 c 0,13,14
 11 72 11 72 -21 104 c 128,-1,15
 -53 136 -53 136 -38 156 c 128,-1,16
 -23 176 -23 176 53 226 c 0,17,18
 303 387 303 387 441 386 c 24,0,1
EndSplineSet
EndChar

StartChar: aSad.init_AboveHaa
Encoding: 65614 -1 79
Width: 1739
Flags: W
AnchorPoint: "TwoDotsBelow" 1100 107 basechar 0
AnchorPoint: "DotBelow" 1200 107 basechar 0
AnchorPoint: "TashkilBelow" 1200 -280 basechar 0
AnchorPoint: "TashkilAbove" 928 1640 basechar 0
AnchorPoint: "TwoDotsAbove" 817 1410 basechar 0
AnchorPoint: "DotAbove" 928 1410 basechar 0
AnchorPoint: "HamzaAbove" 928 1410 basechar 0
AnchorPoint: "cursive" 0 424 exit 0
LayerCount: 2
Back
SplineSet
26 420 m 25,0,0
 -30 424 l 25,0,0
 1 444 l 25,0,0
 1 396 l 25,0,0
190 478 m 0,0,1
 752 450 752 450 1028 489 c 0,2,3
 1049 492 1049 492 1045 472 c 0,4,5
 1028 393 1028 393 1017 364.5 c 128,-1,6
 1006 336 1006 336 985 334 c 0,7,8
 483 273 483 273 222 16 c 0,9,10
 57 -147 57 -147 50 -347 c 0,11,12
 39 -683 39 -683 324 -790 c 1,13,14
 569 -881 569 -881 1019 -858 c 0,15,16
 1176 -850 1176 -850 1306 -833 c 0,17,18
 1328 -830 1328 -830 1328.5 -850.5 c 128,-1,19
 1329 -871 1329 -871 1315 -877 c 0,20,21
 1075 -980 1075 -980 941 -1010.5 c 128,-1,22
 807 -1041 807 -1041 697 -1039 c 0,23,24
 286 -1028 286 -1028 123.5 -874 c 152,-1,25
 -39 -720 -39 -720 -30 -454 c 0,26,27
 -19 -138 -19 -138 219 144 c 1,28,29
 297 234 297 234 412 305 c 1,30,-1
 -82 309 l 1,31,32
 -115 315 -115 315 -90 354 c 0,33,34
 -19 462 -19 462 1 483 c 1,35,36
 5 486 5 486 190 478 c 0,0,1
EndSplineSet
Fore
SplineSet
1367 1204 m 0,0,1
 1422 1204 1422 1204 1514.5 1131.5 c 128,-1,2
 1607 1059 1607 1059 1609 1003 c 128,-1,3
 1611 947 1611 947 1516 817.5 c 128,-1,4
 1421 688 1421 688 1367 667 c 0,5,6
 1043 543 1043 543 669 607 c 1,7,8
 643 571 643 571 625 541 c 128,-1,9
 607 511 607 511 591 520 c 0,10,11
 565 534 565 534 613 617 c 1,12,13
 489 670 489 670 439 756 c 1,14,15
 293 553 293 553 11 368 c 0,16,17
 -122 281 -122 281 -44 479 c 0,18,19
 -41 487 -41 487 -31 492 c 0,20,21
 184 601 184 601 303 706.5 c 128,-1,22
 422 812 422 812 476 934 c 0,23,24
 483 951 483 951 503.5 952 c 128,-1,25
 524 953 524 953 539 928 c 24,26,27
 600 818 600 818 740 785 c 1,28,29
 887 948 887 948 1074 1076.5 c 128,-1,30
 1261 1205 1261 1205 1367 1204 c 0,0,1
1191 1005 m 24,31,32
 1009 967 1009 967 812 772 c 1,33,34
 1247 747 1247 747 1440 876 c 1,35,36
 1399 931 1399 931 1331 975 c 0,37,38
 1261 1021 1261 1021 1191 1005 c 24,31,32
EndSplineSet
EndChar

StartChar: aLam.init_LamBaaMemInit
Encoding: 65615 -1 80
Width: 391
Flags: W
AnchorPoint: "Stroke" 207 1076 basechar 0
AnchorPoint: "TwoDotsBelow" 200 350 basechar 0
AnchorPoint: "TwoDotsAbove" 30 1635 basechar 0
AnchorPoint: "DotAbove" 150 1635 basechar 0
AnchorPoint: "TashkilBelow" 360 -670 basechar 0
AnchorPoint: "TashkilAbove" 150 1640 basechar 0
AnchorPoint: "VAbove" 150 1535 basechar 0
LayerCount: 2
Back
SplineSet
-400 253 m 0,0,1
 -381 264 -381 264 -360 283.5 c 128,-1,3
 -339 303 -339 303 -328 312 c 128,-1,5
 -317 321 -317 321 -293 321 c 128,-1,7
 -269 321 -269 321 -233 304 c 0,2,3
 -203 290 -203 290 -139.5 273.5 c 128,-1,5
 -76 257 -76 257 -32 232 c 0,4,5
 -19 225 -19 225 -11 210 c 128,-1,7
 -3 195 -3 195 -7 181 c 1,6,7
 -4 116 -4 116 -25 12 c 1,8,9
 -33 -16 -33 -16 -57 -5 c 0,10,11
 -89 10 -89 10 -134 33.5 c 128,-1,13
 -179 57 -179 57 -200.5 67.5 c 128,-1,15
 -222 78 -222 78 -252 87.5 c 128,-1,17
 -282 97 -282 97 -311 99 c 0,12,13
 -366 102 -366 102 -473.5 51 c 128,-1,15
 -581 0 -581 0 -645 0 c 0,14,15
 -669 0 -669 0 -684 45 c 128,-1,17
 -699 90 -699 90 -691 137 c 0,18,19
 -682 183 -682 183 -645 186 c 0,16,17
 -498 195 -498 195 -400 253 c 0,0,1
16 665 m 0,18,19
 31 660 31 660 32.5 615.5 c 128,-1,21
 34 571 34 571 20.5 530 c 128,-1,23
 7 489 7 489 -16 493 c 0,20,21
 -42 498 -42 498 -64.5 523.5 c 128,-1,23
 -87 549 -87 549 -101 577.5 c 128,-1,25
 -115 606 -115 606 -136 630 c 128,-1,27
 -157 654 -157 654 -181 657 c 0,22,23
 -234 662 -234 662 -290.5 631 c 128,-1,25
 -347 600 -347 600 -372 567 c 0,24,25
 -380 558 -380 558 -380 542 c 0,26,27
 -380 495 -380 495 -335.5 415.5 c 128,-1,29
 -291 336 -291 336 -233 304 c 0,28,29
 -156 262 -156 262 -206 227 c 0,30,31
 -255 192 -255 192 -332 208 c 0,32,33
 -381 219 -381 219 -400 253 c 0,30,31
 -483 404 -483 404 -432 569 c 1,32,33
 -398 667 -398 667 -311.5 740 c 128,-1,35
 -225 813 -225 813 -135 817 c 0,34,35
 -98 819 -98 819 -75 786.5 c 128,-1,37
 -52 754 -52 754 -31.5 714 c 128,-1,39
 -11 674 -11 674 16 665 c 0,18,19
EndSplineSet
Fore
SplineSet
148.5 1493 m 128,-1,1
 155 1494 155 1494 165 1471 c 0,2,3
 194 1400 194 1400 265 1333 c 0,4,5
 288 1311 288 1311 269 1285 c 0,6,7
 225 1223 225 1223 227 1215 c 0,8,9
 285 928 285 928 277 796 c 0,10,11
 270 664 270 664 193 556 c 0,12,13
 133 469 133 469 -16 493 c 0,14,15
 -46 498 -46 498 -53 546.5 c 128,-1,16
 -60 595 -60 595 -43 630 c 0,17,18
 -27 664 -27 664 20 664 c 0,19,20
 172 662 172 662 203 762 c 1,21,22
 194 828 194 828 188 864 c 2,23,-1
 127 1226 l 0,24,25
 118 1269 118 1269 105 1300 c 2,26,-1
 88 1341 l 0,27,28
 79 1370 79 1370 86 1386 c 0,29,30
 115 1456 115 1456 133 1480 c 0,31,32
 142 1492 142 1492 148.5 1493 c 128,-1,1
EndSplineSet
EndChar

StartChar: aBaa.medi_LamBaaMemInit
Encoding: 65616 -1 81
Width: 288
Flags: W
AnchorPoint: "DigitBelow" 267 -350 basechar 0
AnchorPoint: "DigitAbove" 17 1230 basechar 0
AnchorPoint: "HighHamza" 117 1230 basechar 0
AnchorPoint: "VAbove" 17 1230 basechar 0
AnchorPoint: "RingBelow" 104 732 basechar 0
AnchorPoint: "TaaAbove" -83 1030 basechar 0
AnchorPoint: "TashkilBelow" 290 -670 basechar 0
AnchorPoint: "TashkilAbove" 50 1640 basechar 0
AnchorPoint: "DotBelow" 267 -350 basechar 0
AnchorPoint: "HamzaBelow" 267 -200 basechar 0
AnchorPoint: "TwoDotsBelow" 157 -300 basechar 0
AnchorPoint: "TwoDotsAbove" -94 1230 basechar 0
AnchorPoint: "DotAbove" 17 1230 basechar 0
AnchorPoint: "HamzaAbove" 17 1230 basechar 0
LayerCount: 2
Back
SplineSet
-91 547 m 0,0,1
 -93 489 -93 489 -40 402 c 0,2,3
 1 336 1 336 55 304 c 0,4,5
 74 292 74 292 152 272 c 0,6,7
 212 256 212 256 247.5 236.5 c 128,-1,8
 283 217 283 217 282 181 c 0,9,10
 278 72 278 72 264 12 c 0,11,12
 257 -19 257 -19 231 -5 c 0,13,14
 42 98 42 98 -18.5 99.5 c 128,-1,15
 -79 101 -79 101 -186 50.5 c 128,-1,16
 -293 0 -293 0 -357 0 c 0,17,18
 -381 0 -381 0 -396 45.5 c 128,-1,19
 -411 91 -411 91 -402 136.5 c 128,-1,20
 -393 182 -393 182 -357 185 c 0,21,22
 -187 201 -187 201 -111 253 c 1,23,24
 -194 404 -194 404 -143 569 c 0,25,26
 -89 694 -89 694 -91 547 c 0,0,1
432 1421 m 0,36,37
 438 1432 438 1432 447 1433 c 128,-1,39
 456 1434 456 1434 461 1423 c 0,38,39
 474 1388 474 1388 507.5 1341.5 c 128,-1,41
 541 1295 541 1295 570 1268 c 0,40,41
 588 1251 588 1251 569 1225 c 0,42,43
 525 1163 525 1163 526 1155 c 0,44,45
 575 877 575 877 564 787 c 0,46,47
 555 716 555 716 536.5 661 c 128,-1,49
 518 606 518 606 485.5 561 c 128,-1,51
 453 516 453 516 399 498 c 128,-1,53
 345 480 345 480 273 493 c 0,48,49
 243 498 243 498 236 546.5 c 128,-1,51
 229 595 229 595 249 636 c 128,-1,53
 269 677 269 677 304 665 c 0,50,51
 349 650 349 650 417 681 c 128,-1,53
 485 712 485 712 492 762 c 1,52,53
 487 805 487 805 477.5 864 c 128,-1,55
 468 923 468 923 452 1013.5 c 128,-1,57
 436 1104 436 1104 426 1166 c 0,54,55
 422 1186 422 1186 414.5 1209 c 128,-1,57
 407 1232 407 1232 398.5 1254 c 128,-1,59
 390 1276 390 1276 388 1281 c 0,56,57
 379 1309 379 1309 388 1332 c 0,58,59
 392 1342 392 1342 432 1421 c 0,36,37
EndSplineSet
Fore
SplineSet
-92 548 m 0,0,1
 -102 511 -102 511 -120 512 c 24,2,3
 -161 515 -161 515 -143 569 c 0,4,5
 -111 665 -111 665 -23 740 c 0,6,7
 62 814 62 814 153 817 c 0,8,9
 194 818 194 818 213 786 c 0,10,11
 281 670 281 670 304 665 c 0,12,13
 319 662 319 662 321 616.5 c 128,-1,14
 323 571 323 571 309 530 c 0,15,16
 295 490 295 490 271 494 c 0,17,18
 224 501 224 501 186 578 c 0,19,20
 148 654 148 654 103 657 c 0,21,22
 4 663 4 663 -83 567 c 0,23,24
 -87 562 -87 562 -92 548 c 0,0,1
EndSplineSet
EndChar

StartChar: aMem.medi_LamBaaMemInit
Encoding: 65617 -1 82
Width: 356
Flags: W
AnchorPoint: "TashkilBelow" 200 -670 basechar 0
AnchorPoint: "TashkilAbove" 0 1640 basechar 0
LayerCount: 2
Back
SplineSet
661 665 m 0,18,19
 676 660 676 660 678 615.5 c 128,-1,21
 680 571 680 571 666 530 c 128,-1,23
 652 489 652 489 630 493 c 0,20,21
 604 498 604 498 581 523.5 c 128,-1,23
 558 549 558 549 544 577.5 c 128,-1,25
 530 606 530 606 509 630 c 128,-1,27
 488 654 488 654 465 657 c 0,22,23
 412 662 412 662 355 631 c 128,-1,25
 298 600 298 600 274 567 c 0,24,25
 266 558 266 558 266 542 c 0,26,27
 266 495 266 495 310 415.5 c 128,-1,29
 354 336 354 336 412 304 c 0,28,29
 489 262 489 262 439 227 c 0,30,31
 390 192 390 192 314 208 c 0,32,33
 265 219 265 219 246 253 c 0,30,31
 163 404 163 404 214 569 c 1,32,33
 248 667 248 667 334 740 c 128,-1,35
 420 813 420 813 510 817 c 0,34,35
 547 819 547 819 570 786.5 c 128,-1,37
 593 754 593 754 613.5 714 c 128,-1,39
 634 674 634 674 661 665 c 0,18,19
789 1421 m 0,36,37
 795 1432 795 1432 804 1433 c 128,-1,39
 813 1434 813 1434 818 1423 c 0,38,39
 831 1388 831 1388 864.5 1341.5 c 128,-1,41
 898 1295 898 1295 926 1268 c 0,40,41
 944 1251 944 1251 925 1225 c 0,42,43
 881 1163 881 1163 883 1155 c 0,44,45
 932 877 932 877 921 787 c 0,46,47
 912 716 912 716 893.5 661 c 128,-1,49
 875 606 875 606 842.5 561 c 128,-1,51
 810 516 810 516 756 498 c 128,-1,53
 702 480 702 480 630 493 c 0,48,49
 600 498 600 498 593 546.5 c 128,-1,51
 586 595 586 595 606 636 c 128,-1,53
 626 677 626 677 661 665 c 0,50,51
 706 650 706 650 774 681 c 128,-1,53
 842 712 842 712 849 762 c 1,52,53
 844 805 844 805 834.5 864 c 128,-1,55
 825 923 825 923 809 1013.5 c 128,-1,57
 793 1104 793 1104 783 1166 c 0,54,55
 779 1186 779 1186 771.5 1209 c 128,-1,57
 764 1232 764 1232 755.5 1254 c 128,-1,59
 747 1276 747 1276 745 1281 c 0,56,57
 736 1309 736 1309 745 1332 c 0,58,59
 749 1342 749 1342 789 1421 c 0,36,37
EndSplineSet
Fore
SplineSet
266 547 m 0,0,1
 264 489 264 489 317 402 c 0,2,3
 358 336 358 336 412 304 c 0,4,5
 431 292 431 292 509 272 c 0,6,7
 569 256 569 256 604.5 236.5 c 128,-1,8
 640 217 640 217 639 181 c 0,9,10
 635 72 635 72 621 12 c 0,11,12
 614 -19 614 -19 588 -5 c 0,13,14
 399 98 399 98 338.5 99.5 c 128,-1,15
 278 101 278 101 171 50.5 c 128,-1,16
 64 0 64 0 0 0 c 0,17,18
 -24 0 -24 0 -39 45.5 c 128,-1,19
 -54 91 -54 91 -45 136.5 c 128,-1,20
 -36 182 -36 182 0 185 c 0,21,22
 170 201 170 201 246 253 c 1,23,24
 163 404 163 404 214 569 c 0,25,26
 268 694 268 694 266 547 c 0,0,1
EndSplineSet
EndChar

StartChar: aBaa.init_BaaDal
Encoding: 65618 -1 83
Width: 349
Flags: W
AnchorPoint: "DigitBelow" 80 -350 basechar 0
AnchorPoint: "DigitAbove" 155 1026 basechar 0
AnchorPoint: "TwoDotsBelowAlt" -31 -750 basechar 0
AnchorPoint: "DotBelowAlt" 80 -750 basechar 0
AnchorPoint: "HighHamza" 310 1024 basechar 0
AnchorPoint: "VAbove" 110 1024 basechar 0
AnchorPoint: "RingBelow" 100 100 basechar 0
AnchorPoint: "TaaAbove" 155 826 basechar 0
AnchorPoint: "TashkilBelow" 80 -670 basechar 0
AnchorPoint: "TashkilAbove" 155 1640 basechar 0
AnchorPoint: "TwoDotsBelow" -81 -300 basechar 0
AnchorPoint: "TwoDotsAbove" 44 1026 basechar 0
AnchorPoint: "DotBelow" 80 -350 basechar 0
AnchorPoint: "DotAbove" 155 1026 basechar 0
AnchorPoint: "HamzaBelow" 80 -350 basechar 0
AnchorPoint: "HamzaAbove" 110 1024 basechar 0
LayerCount: 2
Back
SplineSet
-15 232 m 0,0,1
 34 204 34 204 84 125 c 0,2,3
 153 17 153 17 75 9 c 0,2,3
 39 5 39 5 7.5 12.5 c 128,-1,5
 -24 20 -24 20 -47 32.5 c 128,-1,7
 -70 45 -70 45 -92 70.5 c 128,-1,9
 -114 96 -114 96 -128 117.5 c 128,-1,11
 -142 139 -142 139 -158.5 175 c 128,-1,13
 -175 211 -175 211 -183 234 c 128,-1,15
 -191 257 -191 257 -205 296.5 c 128,-1,17
 -219 336 -219 336 -226 353 c 0,4,5
 -228 358 -228 358 -234 358 c 128,-1,7
 -240 358 -240 358 -241 352 c 0,6,7
 -251 303 -251 303 -272.5 240 c 128,-1,9
 -294 177 -294 177 -317 150 c 1,8,9
 -397 70 -397 70 -556 24 c 0,10,11
 -716 -21 -716 -21 -801 14 c 0,10,11
 -846 33 -846 33 -856 103 c 0,12,13
 -865 173 -865 173 -830 296 c 0,12,13
 -828 303 -828 303 -816 305 c 0,14,15
 -805 307 -805 307 -799 294 c 0,14,15
 -781 244 -781 244 -753 227 c 0,16,17
 -686 186 -686 186 -506 235 c 0,18,19
 -398 264 -398 264 -349 296 c 128,-1,21
 -300 328 -300 328 -274 371 c 1,20,21
 -265 398 -265 398 -264.5 422 c 128,-1,23
 -264 446 -264 446 -275.5 497.5 c 128,-1,25
 -287 549 -287 549 -299.5 591.5 c 128,-1,27
 -312 634 -312 634 -329 697.5 c 128,-1,29
 -346 761 -346 761 -356 808 c 0,22,23
 -364 848 -364 848 -356 885 c 0,24,25
 -344 941 -344 941 -314 1009 c 0,26,27
 -311 1017 -311 1017 -303.5 1019 c 128,-1,29
 -296 1021 -296 1021 -287 1012.5 c 128,-1,31
 -278 1004 -278 1004 -274 984 c 0,28,29
 -215 720 -215 720 -144 493 c 128,-1,31
 -73 266 -73 266 -15 232 c 0,0,1
EndSplineSet
Fore
SplineSet
142 310 m 0,0,1
 116 354 116 354 97 373 c 128,-1,2
 78 392 78 392 86 422 c 2,3,-1
 129 577 l 2,4,5
 139 612 139 612 164 573 c 24,6,7
 202 514 202 514 218 399 c 0,8,9
 232 290 232 290 219.5 198 c 128,-1,10
 207 106 207 106 176 61 c 128,-1,11
 145 16 145 16 67 7.5 c 128,-1,12
 -11 -1 -11 -1 -68 48 c 128,-1,13
 -125 97 -125 97 -95 177 c 0,14,15
 -68 249 -68 249 -15 232 c 0,16,17
 104 192 104 192 165 249 c 0,18,19
 173 258 173 258 142 310 c 0,0,1
EndSplineSet
EndChar

StartChar: aDal.fina_BaaDal
Encoding: 65619 -1 84
Width: 986
Flags: W
AnchorPoint: "VAbove" 624 1200 basechar 0
AnchorPoint: "TashkilBelow" 500 -670 basechar 0
AnchorPoint: "TashkilAbove" 432 1640 basechar 0
AnchorPoint: "TwoDotsBelow" 432 -270 basechar 0
AnchorPoint: "TwoDotsAbove" 522 1275 basechar 0
AnchorPoint: "DotAbove" 632 1275 basechar 0
AnchorPoint: "RingBelow" 426 120 basechar 0
AnchorPoint: "TaaAbove" 624 1200 basechar 0
AnchorPoint: "HamzaBelow" 542 -270 basechar 0
AnchorPoint: "HamzaAbove" 632 1275 basechar 0
AnchorPoint: "DotBelow" 542 -270 basechar 0
LayerCount: 2
Back
SplineSet
1070 403 m 0,30,31
 1078 452 1078 452 1114 577 c 1,32,33
 1129 606 1129 606 1149 573 c 0,34,35
 1188 508 1188 508 1202.5 399 c 128,-1,37
 1217 290 1217 290 1204 195 c 0,36,37
 1192 106 1192 106 1161.5 61 c 128,-1,39
 1131 16 1131 16 1061 9 c 0,38,39
 975 -1 975 -1 911 53 c 0,40,41
 860 97 860 97 891 178 c 0,42,43
 914 240 914 240 953 237 c 0,44,45
 962 236 962 236 970 232 c 0,42,43
 1002 216 1002 216 1051 217.5 c 128,-1,45
 1100 219 1100 219 1134 232 c 0,44,45
 1147 237 1147 237 1150 249 c 0,46,47
 1154 266 1154 266 1128 310 c 128,-1,49
 1102 354 1102 354 1077 380 c 0,48,49
 1067 391 1067 391 1070 403 c 0,30,31
EndSplineSet
Fore
SplineSet
712 971 m 0,0,1
 757 760 757 760 836.5 511 c 128,-1,2
 916 262 916 262 968 233 c 128,-1,3
 1020 204 1020 204 1070 125 c 0,4,5
 1136 22 1136 22 1060 9 c 0,6,7
 866 -24 866 -24 760 353 c 0,8,9
 758 358 758 358 752 358 c 128,-1,10
 746 358 746 358 744 352 c 0,11,12
 734 303 734 303 712 237.5 c 128,-1,13
 690 172 690 172 668 150 c 24,14,15
 592 70 592 70 430 24 c 128,-1,16
 268 -22 268 -22 184 14 c 0,17,18
 86 55 86 55 156 296 c 0,19,20
 158 303 158 303 169 304.5 c 128,-1,21
 180 306 180 306 186 294 c 1,22,23
 204 244 204 244 232 227 c 0,24,25
 298 186 298 186 478 235 c 0,26,27
 672 287 672 287 712 371 c 24,28,29
 735 420 735 420 656 698 c 24,30,31
 615 843 615 843 630 885 c 2,32,-1
 670 996 l 2,33,34
 692 1060 692 1060 712 971 c 0,0,1
EndSplineSet
EndChar

StartChar: aBaa.init_BaaMemHaaInit
Encoding: 65620 -1 85
Width: 636
Flags: W
AnchorPoint: "DigitBelow" 331 -410 basechar 0
AnchorPoint: "DigitAbove" 91 1726 basechar 0
AnchorPoint: "DotBelowAlt" 331 -750 basechar 0
AnchorPoint: "TwoDotsBelowAlt" 220 -750 basechar 0
AnchorPoint: "HighHamza" 291 1726 basechar 0
AnchorPoint: "VAbove" 91 1726 basechar 0
AnchorPoint: "RingBelow" 220 1200 basechar 0
AnchorPoint: "TaaAbove" 91 1526 basechar 0
AnchorPoint: "TashkilBelow" 400 -670 basechar 0
AnchorPoint: "TashkilAbove" 251 1640 basechar 0
AnchorPoint: "TwoDotsBelow" 220 -260 basechar 0
AnchorPoint: "TwoDotsAbove" -20 1726 basechar 0
AnchorPoint: "DotAbove" 91 1726 basechar 0
AnchorPoint: "HamzaAbove" 91 1726 basechar 0
AnchorPoint: "HamzaBelow" 331 -410 basechar 0
AnchorPoint: "DotBelow" 331 -410 basechar 0
LayerCount: 2
Fore
SplineSet
150 1350 m 0,0,1
 256 1366 256 1366 336 1277 c 0,2,3
 348 1263 348 1263 296 1115 c 0,4,5
 283 1078 283 1078 259 1098 c 0,6,7
 176 1171 176 1171 101.5 1166 c 128,-1,8
 27 1161 27 1161 -54 1081 c 0,9,10
 -66 1069 -66 1069 -60 1048 c 0,11,12
 -2 846 -2 846 132 803 c 0,13,14
 167 792 167 792 126 761 c 1,15,16
 59 708 59 708 -16.5 709 c 128,-1,17
 -92 710 -92 710 -113 769 c 0,18,19
 -144 856 -144 856 -144 946 c 0,20,21
 -144 1144 -144 1144 10 1276 c 0,22,23
 86 1340 86 1340 150 1350 c 0,0,1
EndSplineSet
EndChar

StartChar: aMem.medi_BaaMemHaaInit
Encoding: 65621 -1 86
Width: 532
Flags: W
AnchorPoint: "TashkilBelow" 550 -670 basechar 0
AnchorPoint: "TashkilAbove" 330 1640 basechar 0
LayerCount: 2
Fore
SplineSet
-44 546 m 0,0,1
 232 712 232 712 410 766 c 128,-1,2
 588 820 588 820 664 803 c 0,3,4
 785 776 785 776 839 721 c 0,5,6
 851 709 851 709 846 695 c 2,7,-1
 794 553 l 2,8,9
 789 538 789 538 771 547 c 0,10,11
 583 645 583 645 483 641 c 0,12,13
 299 635 299 635 94 510 c 0,14,15
 14 462 14 462 -40 501 c 0,16,17
 -72 524 -72 524 -49 543 c 0,18,19
 -47 545 -47 545 -44 546 c 0,0,1
EndSplineSet
EndChar

StartChar: aBaa.init_BaaBaaYaa
Encoding: 65623 -1 88
Width: 417
Flags: W
AnchorPoint: "TwoDotsBelowAlt" 12 -750 basechar 0
AnchorPoint: "DotBelowAlt" 147 -750 basechar 0
AnchorPoint: "DigitBelow" 147 -284 basechar 0
AnchorPoint: "DigitAbove" 129 1265 basechar 0
AnchorPoint: "HighHamza" 374 1265 basechar 0
AnchorPoint: "VAbove" 129 1265 basechar 0
AnchorPoint: "RingBelow" 123 390 basechar 0
AnchorPoint: "TaaAbove" 129 1020 basechar 0
AnchorPoint: "TashkilBelow" 147 -760 basechar 0
AnchorPoint: "TashkilAbove" 129 1640 basechar 0
AnchorPoint: "TwoDotsBelow" 12 -284 basechar 0
AnchorPoint: "TwoDotsAbove" -12 1265 basechar 0
AnchorPoint: "DotBelow" 147 -284 basechar 0
AnchorPoint: "HamzaBelow" 147 -284 basechar 0
AnchorPoint: "HamzaAbove" 129 1265 basechar 0
AnchorPoint: "DotAbove" 129 1265 basechar 0
LayerCount: 2
Fore
SplineSet
164 624 m 0,0,1
 169 645 169 645 183 651 c 128,-1,2
 197 657 197 657 209 646 c 128,-1,3
 221 635 221 635 217 612 c 0,4,5
 155 292 155 292 -6 278 c 1,6,7
 -60 274 -60 274 -55.5 367 c 152,-1,8
 -51 460 -51 460 11 464 c 0,9,10
 115 471 115 471 164 624 c 0,0,1
EndSplineSet
EndChar

StartChar: aBaa.medi_BaaBaaYaa
Encoding: 65624 -1 89
Width: 733
Flags: W
AnchorPoint: "DigitBelow" 437 -619 basechar 0
AnchorPoint: "DigitAbove" 134 1173 basechar 0
AnchorPoint: "HighHamza" 257 1173 basechar 0
AnchorPoint: "VAbove" 134 1173 basechar 0
AnchorPoint: "RingBelow" 368 604 basechar 0
AnchorPoint: "TaaAbove" 134 928 basechar 0
AnchorPoint: "TashkilBelow" 515 -760 basechar 0
AnchorPoint: "TashkilAbove" 196 1640 basechar 0
AnchorPoint: "DotBelow" 437 -619 basechar 0
AnchorPoint: "HamzaBelow" 437 -619 basechar 0
AnchorPoint: "TwoDotsBelow" 437 -619 basechar 0
AnchorPoint: "TwoDotsAbove" -2 1173 basechar 0
AnchorPoint: "DotAbove" 134 1173 basechar 0
AnchorPoint: "HamzaAbove" 134 1173 basechar 0
LayerCount: 2
Fore
SplineSet
745 465 m 0,0,1
 793 467 793 467 790.5 374 c 128,-1,2
 788 281 788 281 728 278 c 0,3,4
 625 276 625 276 528.5 387 c 128,-1,5
 432 498 432 498 378 499 c 0,6,7
 238 499 238 499 94 340 c 0,8,9
 43 282 43 282 54 240 c 1,10,11
 76 151 76 151 37 76 c 0,12,13
 14 31 14 31 -17 51 c 0,14,15
 -68 85 -68 85 -54.5 165 c 128,-1,16
 -41 245 -41 245 5 320 c 0,17,18
 127 518 127 518 292 634 c 0,19,20
 367 684 367 684 454 676 c 0,21,22
 485 672 485 672 570.5 566 c 128,-1,23
 656 460 656 460 745 465 c 0,0,1
EndSplineSet
EndChar

StartChar: aYaa.fina_BaaBaaYaa
Encoding: 65625 -1 90
Width: 937
Flags: W
AnchorPoint: "DotBelow" 759 -891 basechar 0
AnchorPoint: "TwoDotsBelow" 648 -891 basechar 0
AnchorPoint: "TashkilBelow" 659 -760 basechar 0
AnchorPoint: "RingBelow" 640 -482 basechar 0
AnchorPoint: "DigitBelow" 759 -891 basechar 0
AnchorPoint: "HamzaBelow" 759 -891 basechar 0
AnchorPoint: "DigitAbove" 571 795 basechar 0
AnchorPoint: "AlefAbove" 600 200 basechar 0
AnchorPoint: "HighHamza" 693 795 basechar 0
AnchorPoint: "TwoDotsAbove" 436 795 basechar 0
AnchorPoint: "DotAbove" 571 795 basechar 0
AnchorPoint: "VAbove" 448 795 basechar 0
AnchorPoint: "Tail" 276 382 basechar 0
AnchorPoint: "TashkilAbove" 461 1640 basechar 0
AnchorPoint: "HamzaAbove" 326 795 basechar 0
LayerCount: 2
Fore
SplineSet
920 51 m 0,0,1
 887 73 887 73 882 112 c 0,2,3
 873 187 873 187 929 247 c 0,4,5
 946 265 946 265 966 263.5 c 128,-1,6
 986 262 986 262 991 241 c 0,7,8
 1013 157 1013 157 1404 143 c 0,9,10
 1515 139 1515 139 1547 55 c 0,11,12
 1569 -3 1569 -3 1530 -103.5 c 128,-1,13
 1491 -204 1491 -204 1443 -249 c 0,14,15
 1120 -544 1120 -544 675 -584 c 0,16,17
 361 -612 361 -612 233 -446 c 0,18,19
 129 -311 129 -311 130 -101 c 0,20,21
 133 160 133 160 257 396 c 0,22,23
 266 413 266 413 282 414 c 0,24,25
 297 414 297 414 304 400 c 0,26,27
 313 383 313 383 305 366 c 24,28,29
 186 92 186 92 222 -73 c 0,30,31
 291 -391 291 -391 666 -386 c 0,32,33
 1038 -380 1038 -380 1427 -59 c 0,34,35
 1437 -52 1437 -52 1425 -47 c 0,36,37
 1382 -29 1382 -29 1183 -9 c 0,38,39
 979 11 979 11 920 51 c 0,0,1
EndSplineSet
EndChar

StartChar: aLam.medi_LamYaaFina
Encoding: 65626 -1 91
Width: 401
Flags: W
AnchorPoint: "Stroke" 67 1056 basechar 0
AnchorPoint: "TwoDotsBelow" 170 -750 basechar 0
AnchorPoint: "TwoDotsAbove" -74 1624 basechar 0
AnchorPoint: "DotAbove" 46 1624 basechar 0
AnchorPoint: "TashkilBelow" 270 -670 basechar 0
AnchorPoint: "TashkilAbove" 0 1640 basechar 0
AnchorPoint: "VAbove" 46 1524 basechar 0
LayerCount: 2
Back
SplineSet
-45 -138 m 0,0,1
 -36 -130 -36 -130 -19.5 -114.5 c 128,-1,3
 -3 -99 -3 -99 4 -91 c 1,2,3
 43 -96 43 -96 69 -101 c 0,4,5
 73 -102 73 -102 101.5 -107.5 c 128,-1,7
 130 -113 130 -113 145.5 -116 c 128,-1,9
 161 -119 161 -119 191 -126 c 128,-1,11
 221 -133 221 -133 242 -140.5 c 128,-1,13
 263 -148 263 -148 288.5 -158 c 128,-1,15
 314 -168 314 -168 333.5 -181 c 128,-1,17
 353 -194 353 -194 367 -209 c 0,6,7
 381 -223 381 -223 382 -239 c 0,8,9
 389 -317 389 -317 361 -393.5 c 128,-1,11
 333 -470 333 -470 277 -514 c 0,10,11
 106 -650 106 -650 -102 -713 c 0,12,13
 -310 -775 -310 -775 -510 -734 c 0,12,13
 -650 -704 -650 -704 -740 -603 c 0,14,15
 -830 -501 -830 -501 -831 -349 c 0,14,15
 -832 -129 -832 -129 -637 205 c 0,16,17
 -630 218 -630 218 -615 218 c 0,18,19
 -601 219 -601 219 -595 209 c 0,20,21
 -589 199 -589 199 -597 182 c 0,18,19
 -705 -5 -705 -5 -726 -110 c 0,20,21
 -751 -238 -751 -238 -688 -358 c 0,22,23
 -624 -477 -624 -477 -496 -517 c 1,22,23
 -356 -557 -356 -557 -197 -531.5 c 128,-1,25
 -38 -506 -38 -506 101 -442.5 c 128,-1,27
 240 -379 240 -379 300 -310 c 1,24,25
 284 -300 284 -300 267 -292 c 128,-1,27
 250 -284 250 -284 228.5 -276.5 c 128,-1,29
 207 -269 207 -269 191 -263.5 c 128,-1,31
 175 -258 175 -258 149 -252.5 c 128,-1,33
 123 -247 123 -247 108.5 -244 c 128,-1,35
 94 -241 94 -241 64.5 -236.5 c 128,-1,37
 35 -232 35 -232 24.5 -230 c 128,-1,39
 14 -228 14 -228 -18.5 -223.5 c 128,-1,41
 -51 -219 -51 -219 -58 -218 c 1,26,27
 -45 -139 -45 -139 -45 -138 c 0,0,1
EndSplineSet
Fore
SplineSet
35 1402 m 0,0,1
 40 1416 40 1416 57.5 1418 c 128,-1,2
 75 1420 75 1420 77 1404 c 24,3,4
 160 765 160 765 200 590 c 0,5,6
 280 242 280 242 401 185 c 1,7,8
 478 146 478 146 451 52 c 0,9,10
 435 -5 435 -5 401 0 c 0,11,12
 274 16 274 16 168 280 c 1,13,14
 156 52 156 52 69 -101 c 0,15,16
 47 -140 47 -140 8.5 -174.5 c 128,-1,17
 -30 -209 -30 -209 -58 -218 c 1,18,19
 -46 -139 -46 -139 -45 -138 c 0,20,21
 38 -72 38 -72 77.5 29.5 c 128,-1,22
 117 131 117 131 100 395 c 25,23,24
 100 422 100 422 53 749 c 2,25,-1
 -4 1142 l 1,26,27
 -11 1183 -11 1183 -6.5 1228.5 c 128,-1,28
 -2 1274 -2 1274 35 1402 c 0,0,1
EndSplineSet
EndChar

StartChar: aYaa.fina_LamYaaFina
Encoding: 65627 -1 92
Width: 961
Flags: W
AnchorPoint: "HamzaBelow" 669 -1049 basechar 0
AnchorPoint: "DigitBelow" 669 -1049 basechar 0
AnchorPoint: "DigitAbove" 582 535 basechar 0
AnchorPoint: "AlefAbove" 600 0 basechar 0
AnchorPoint: "RingBelow" 630 -640 basechar 0
AnchorPoint: "HighHamza" 682 535 basechar 0
AnchorPoint: "TwoDotsAbove" 472 535 basechar 0
AnchorPoint: "DotAbove" 582 535 basechar 0
AnchorPoint: "VAbove" 482 535 basechar 0
AnchorPoint: "Tail" 340 190 basechar 0
AnchorPoint: "TashkilBelow" 649 -760 basechar 0
AnchorPoint: "TashkilAbove" 390 1640 basechar 0
AnchorPoint: "TwoDotsBelow" 558 -1049 basechar 0
AnchorPoint: "HamzaAbove" 382 535 basechar 0
AnchorPoint: "DotBelow" 669 -1049 basechar 0
LayerCount: 2
Back
SplineSet
997 1402 m 0,28,-1
 997 1402 l 1,30,-1
 997 1402 l 1,32,33
 1002 1417 1002 1417 1017.5 1418.5 c 128,-1,35
 1033 1420 1033 1420 1038 1404 c 1,34,35
 1122 759 1122 759 1161 590 c 0,36,37
 1197 433 1197 433 1239 351.5 c 128,-1,39
 1281 270 1281 270 1363 204 c 0,38,39
 1434 147 1434 147 1413 53 c 0,40,41
 1401 -1 1401 -1 1374 -3 c 0,42,43
 1368 -4 1368 -4 1363 0 c 0,40,41
 1233 81 1233 81 1130 280 c 1,42,43
 1126 182 1126 182 1098 75.5 c 128,-1,45
 1070 -31 1070 -31 1030 -101 c 0,44,45
 1008 -140 1008 -140 969.5 -174.5 c 128,-1,47
 931 -209 931 -209 904 -218 c 1,46,47
 916 -139 916 -139 916 -138 c 0,48,49
 919 -135 919 -135 945 -111 c 128,-1,51
 971 -87 971 -87 988 -67.5 c 128,-1,53
 1005 -48 1005 -48 1013 -28 c 0,50,51
 1024 -7 1024 -7 1032.5 14.5 c 128,-1,53
 1041 36 1041 36 1046.5 62 c 128,-1,55
 1052 88 1052 88 1056.5 106.5 c 128,-1,57
 1061 125 1061 125 1062.5 156.5 c 128,-1,59
 1064 188 1064 188 1065.5 202 c 128,-1,61
 1067 216 1067 216 1066 252.5 c 128,-1,63
 1065 289 1065 289 1065 298.5 c 128,-1,65
 1065 308 1065 308 1063 349 c 128,-1,67
 1061 390 1061 390 1061 395 c 0,52,53
 1043 540 1043 540 1004.5 808.5 c 128,-1,55
 966 1077 966 1077 958 1142 c 0,54,55
 954 1165 954 1165 953.5 1189 c 128,-1,57
 953 1213 953 1213 955 1232 c 128,-1,59
 957 1251 957 1251 962.5 1276 c 128,-1,61
 968 1301 968 1301 972.5 1317 c 128,-1,63
 977 1333 977 1333 985 1360.5 c 128,-1,65
 993 1388 993 1388 997 1402 c 0,28,-1
EndSplineSet
Fore
SplineSet
916 -138 m 0,0,1
 956 -102 956 -102 966 -91 c 1,2,3
 1222 -124 1222 -124 1282 -172.5 c 128,-1,4
 1342 -221 1342 -221 1344 -239 c 0,5,6
 1351 -317 1351 -317 1322.5 -393.5 c 128,-1,7
 1294 -470 1294 -470 1238 -514 c 0,8,9
 1067 -650 1067 -650 859.5 -712.5 c 128,-1,10
 652 -775 652 -775 451 -734 c 1,11,12
 311 -704 311 -704 221 -602 c 0,13,14
 -2 -351 -2 -351 325 205 c 0,15,16
 332 218 332 218 346 218.5 c 128,-1,17
 360 219 360 219 366 208.5 c 128,-1,18
 372 198 372 198 364 182 c 0,19,20
 256 -5 256 -5 233 -121.5 c 128,-1,21
 210 -238 210 -238 275.5 -360.5 c 128,-1,22
 341 -483 341 -483 470 -519 c 24,23,24
 726 -588 726 -588 1062 -442 c 0,25,26
 1198 -382 1198 -382 1262 -310 c 1,27,28
 1191 -266 1191 -266 904 -218 c 1,29,30
 916 -139 916 -139 916 -138 c 0,0,1
EndSplineSet
EndChar

StartChar: aKaf.init_KafBaaInit
Encoding: 65628 -1 93
Width: 715
Flags: W
AnchorPoint: "DotAbove" 60 1770 basechar 0
AnchorPoint: "DotBelow" 210 -110 basechar 0
AnchorPoint: "TwoDotsBelow" 210 -110 basechar 0
AnchorPoint: "RingBelow" 140 1218 basechar 0
AnchorPoint: "TwoDotsAbove" 60 1770 basechar 0
AnchorPoint: "TashkilBelow" 300 -670 basechar 0
AnchorPoint: "TashkilAbove" 368 1640 basechar 0
AnchorPoint: "Dash" 1 1380 basechar 0
LayerCount: 2
Back
SplineSet
669 1463 m 2,0,-1
 626 1323 l 2,1,2
 620 1303 620 1303 587 1292 c 1,3,4
 -259 969 -259 969 -549 793 c 0,5,6
 -567 782 -567 782 -548 778 c 0,7,8
 -236 718 -236 718 90 526 c 0,9,10
 107 516 107 516 367 352 c 128,-1,11
 627 188 627 188 759 185 c 0,12,13
 820 184 820 184 803 74 c 0,14,15
 792 0 792 0 759 0 c 0,16,17
 603 0 603 0 353 184 c 0,18,19
 277 240 277 240 98 355 c 0,20,21
 84 364 84 364 93 348 c 0,22,23
 192 162 192 162 112 68 c 0,24,25
 50 -4 50 -4 -80 36 c 0,26,27
 -116 47 -116 47 -135 113 c 0,28,29
 -166 216 -166 216 -82 193 c 0,30,31
 -18 176 -18 176 78 188 c 0,32,33
 86 189 86 189 83 198 c 0,34,35
 68 258 68 258 26 306 c 0,36,37
 -115 471 -115 471 -583 621 c 0,38,39
 -608 629 -608 629 -616 647 c 0,40,41
 -633 687 -633 687 -633 767.5 c 128,-1,42
 -633 848 -633 848 -600 890 c 0,43,44
 -528 984 -528 984 -125.5 1181 c 128,-1,45
 277 1378 277 1378 611 1499 c 0,46,47
 689 1527 689 1527 669 1463 c 2,0,-1
-761 1475 m 2,0,1
 -739 1511 -739 1511 -730 1444 c 0,2,3
 -692 1127 -692 1127 -681 901 c 24,4,5
 -660 474 -660 474 -653 386 c 0,6,7
 -638 196 -638 196 -448 185 c 0,8,9
 -395 182 -395 182 -407 110 c 0,10,11
 -426 0 -426 0 -448 0 c 0,12,13
 -717 0 -717 0 -736 249 c 0,14,15
 -752 459 -752 459 -758 671.5 c 152,-1,16
 -764 884 -764 884 -782.5 1015.5 c 128,-1,17
 -801 1147 -801 1147 -832 1316 c 0,18,19
 -838 1349 -838 1349 -826 1369 c 2,20,-1
 -761 1475 l 2,0,1
4 64 m 0,0,1
 -99 90 -99 90 -212 185 c 0,2,3
 -226 196 -226 196 -234 186 c 0,4,5
 -236 183 -236 183 -252 160 c 128,-1,7
 -268 137 -268 137 -278 123.5 c 128,-1,9
 -288 110 -288 110 -309 86.5 c 128,-1,11
 -330 63 -330 63 -349 48 c 128,-1,13
 -368 33 -368 33 -395 19 c 128,-1,15
 -422 5 -422 5 -449 0 c 0,6,7
 -470 -4 -470 -4 -485 41.5 c 128,-1,9
 -500 87 -500 87 -491.5 135 c 128,-1,11
 -483 183 -483 183 -447 185 c 0,8,9
 -370 189 -370 189 -306.5 221 c 128,-1,11
 -243 253 -243 253 -209 297 c 0,10,11
 -194 316 -194 316 -175 299 c 0,12,13
 -104 235 -104 235 -1 201 c 0,14,15
 43 186 43 186 56 125 c 0,16,17
 68 66 68 66 25 62 c 0,18,19
 16 61 16 61 4 64 c 0,0,1
EndSplineSet
Fore
SplineSet
-538 801 m 0,0,1
 -566 782 -566 782 -541 775 c 0,2,3
 -105 653 -105 653 39 536 c 0,4,5
 185 417 185 417 187 248 c 0,6,7
 189 109 189 109 135.5 77 c 128,-1,8
 82 45 82 45 4 64 c 0,9,10
 -44 76 -44 76 -56 138 c 0,11,12
 -72 225 -72 225 -1 201 c 0,13,14
 107 164 107 164 139 212 c 0,15,16
 143 218 143 218 142 221 c 0,17,18
 63 467 63 467 -542 606 c 0,19,20
 -617 623 -617 623 -628 691 c 0,21,22
 -637 748 -637 748 -630 813 c 0,23,24
 -625 871 -625 871 -564 922 c 0,25,26
 -398 1062 -398 1062 -67 1211 c 0,27,28
 356 1402 356 1402 534 1469 c 0,29,30
 612 1500 612 1500 585 1411 c 2,31,-1
 549 1294 l 2,32,33
 544 1279 544 1279 525 1271 c 0,34,35
 -337 935 -337 935 -538 801 c 0,0,1
EndSplineSet
EndChar

StartChar: aBaa.medi_KafBaaInit
Encoding: 65629 -1 94
Width: 449
Flags: W
AnchorPoint: "DigitBelow" 200 -350 basechar 0
AnchorPoint: "DigitAbove" 50 1360 basechar 0
AnchorPoint: "HighHamza" 280 1360 basechar 0
AnchorPoint: "VAbove" 80 1300 basechar 0
AnchorPoint: "RingBelow" 220 180 basechar 0
AnchorPoint: "TaaAbove" 180 1210 basechar 0
AnchorPoint: "TashkilBelow" 200 -670 basechar 0
AnchorPoint: "TashkilAbove" 50 1640 basechar 0
AnchorPoint: "HamzaBelow" 300 -200 basechar 0
AnchorPoint: "DotBelow" 200 -350 basechar 0
AnchorPoint: "TwoDotsBelow" 82 -250 basechar 0
AnchorPoint: "HamzaAbove" 150 1300 basechar 0
AnchorPoint: "TwoDotsAbove" 50 1360 basechar 0
AnchorPoint: "DotAbove" 50 1360 basechar 0
LayerCount: 2
Back
SplineSet
-89 821 m 0,16,17
 -95 817 -95 817 -96.5 807 c 128,-1,19
 -98 797 -98 797 -92 795 c 0,18,19
 42 758 42 758 141.5 724 c 128,-1,21
 241 690 241 690 338.5 641 c 128,-1,23
 436 592 436 592 497 538 c 128,-1,25
 558 484 558 484 596.5 410 c 128,-1,27
 635 336 635 336 636 248 c 0,20,21
 638 109 638 109 586 78 c 0,22,23
 531 45 531 45 453 64 c 0,24,25
 405 76 405 76 393 138 c 0,26,27
 382 197 382 197 421 204 c 0,28,29
 433 206 433 206 448 201 c 0,26,27
 552 165 552 165 588 212 c 0,28,29
 592 218 592 218 591 221 c 0,30,31
 514 463 514 463 -93 606 c 0,32,33
 -140 617 -140 617 -151 662 c 0,34,35
 -165 719 -165 719 -146 811.5 c 128,-1,37
 -127 904 -127 904 -110 921 c 0,36,37
 -18 1019 -18 1019 348 1197 c 0,38,39
 714 1376 714 1376 1002 1476 c 0,38,39
 1022 1483 1022 1483 1037 1473 c 128,-1,41
 1052 1463 1052 1463 1042 1434 c 0,40,41
 1007 1339 1007 1339 998 1318 c 0,42,43
 990 1300 990 1300 974 1295 c 0,44,45
 829 1247 829 1247 452.5 1082.5 c 128,-1,47
 76 918 76 918 -89 821 c 0,16,17
EndSplineSet
Fore
SplineSet
237 185 m 0,0,1
 222 197 222 197 215 186 c 0,2,3
 112 20 112 20 0 0 c 0,4,5
 -21 -4 -21 -4 -36 41.5 c 128,-1,6
 -51 87 -51 87 -43.5 135 c 128,-1,7
 -36 183 -36 183 0 185 c 0,8,9
 148 190 148 190 240 297 c 0,10,11
 256 315 256 315 274 299 c 0,12,13
 345 235 345 235 448 201 c 0,14,15
 492 186 492 186 507 119 c 128,-1,16
 522 52 522 52 474 60 c 0,17,18
 366 78 366 78 237 185 c 0,0,1
EndSplineSet
EndChar

StartChar: aLam.init_LamMemInit
Encoding: 65630 -1 95
Width: 428
Flags: W
AnchorPoint: "Stroke" -83 1066 basechar 0
AnchorPoint: "TwoDotsBelow" 100 -150 basechar 0
AnchorPoint: "TwoDotsAbove" -229 1658 basechar 0
AnchorPoint: "DotAbove" -109 1658 basechar 0
AnchorPoint: "TashkilBelow" 0 -670 basechar 0
AnchorPoint: "TashkilAbove" 170 1640 basechar 0
AnchorPoint: "VAbove" -109 1558 basechar 0
LayerCount: 2
Back
SplineSet
-14 393 m 0,0,1
 40 406 40 406 52 352 c 0,2,3
 55 331 55 331 94 306 c 0,4,5
 127 286 127 286 187 257 c 0,6,7
 266 219 266 219 285 203 c 0,8,9
 300 190 300 190 298 175 c 24,10,11
 282 46 282 46 258 -18 c 0,12,13
 254 -28 254 -28 237 -29.5 c 128,-1,14
 220 -31 220 -31 212 -23 c 0,15,16
 101 87 101 87 32 105 c 0,17,18
 -19 118 -19 118 -75.5 100 c 128,-1,19
 -132 82 -132 82 -199 41 c 128,-1,20
 -266 0 -266 0 -303 0 c 0,21,22
 -321 0 -321 0 -331 27 c 0,23,24
 -350 85 -350 85 -330 153 c 0,25,26
 -321 183 -321 183 -303 185 c 0,27,28
 -176 195 -176 195 -19 260 c 1,29,30
 -53 385 -53 385 -14 393 c 0,0,1
-19 260 m 1,30,31
 54 283 54 283 132 267 c 128,-1,33
 210 251 210 251 273 211 c 0,32,33
 300 194 300 194 298 175 c 0,34,35
 279 38 279 38 258 -18 c 0,36,37
 254 -28 254 -28 237 -29.5 c 128,-1,39
 220 -31 220 -31 212 -23 c 0,38,39
 101 87 101 87 32 105 c 0,40,41
 -19 118 -19 118 -75.5 100 c 128,-1,43
 -132 82 -132 82 -198.5 46.5 c 128,-1,45
 -265 11 -265 11 -303 0 c 0,42,43
 -320 -5 -320 -5 -331 27 c 0,44,45
 -352 91 -352 91 -330 153 c 0,46,47
 -320 181 -320 181 -302 183 c 0,44,45
 -173 200 -173 200 -19 260 c 1,30,31
EndSplineSet
Fore
SplineSet
-29 974 m 0,0,1
 24 428 24 428 53.5 347 c 128,-1,2
 83 266 83 266 45 239 c 128,-1,3
 7 212 7 212 -18 258 c 0,4,5
 -65 345 -65 345 -119 903 c 0,6,7
 -141 1139 -141 1139 -149 1204 c 1,8,-1
 -172 1298 l 2,9,10
 -181 1336 -181 1336 -171 1355 c 0,11,12
 -134 1418 -134 1418 -122 1434 c 24,13,14
 -95 1470 -95 1470 -87 1436 c 0,15,16
 -71 1362 -71 1362 6 1280 c 0,17,18
 21 1264 21 1264 10 1248 c 0,19,20
 -21 1204 -21 1204 -35 1186.5 c 128,-1,21
 -49 1169 -49 1169 -46.5 1148.5 c 128,-1,22
 -44 1128 -44 1128 -29 974 c 0,0,1
EndSplineSet
EndChar

StartChar: aMem.medi_LamMemInit
Encoding: 65631 -1 96
Width: 303
Flags: W
AnchorPoint: "TashkilBelow" 0 -670 basechar 0
AnchorPoint: "TashkilAbove" 101 1640 basechar 0
LayerCount: 2
Back
SplineSet
183 1438 m 1,0,1
 194 1455 194 1455 203.5 1452 c 128,-1,3
 213 1449 213 1449 215 1438 c 0,2,3
 222 1406 222 1406 250 1359.5 c 128,-1,5
 278 1313 278 1313 309 1280 c 0,4,5
 324 1264 324 1264 313 1248 c 0,6,7
 282 1204 282 1204 262 1179 c 0,8,9
 255 1170 255 1170 257 1144 c 2,10,11
 274 974 l 2,12,13
 288 830 288 830 295 772 c 2,14,-1
 313 610 l 2,15,16
 325 506 325 506 335 446 c 128,-1,19
 345 386 345 386 355 352 c 0,12,13
 362 329 362 329 397.5 306.5 c 128,-1,15
 433 284 433 284 490 257 c 128,-1,17
 547 230 547 230 576 211 c 0,14,15
 577 211 577 211 581.5 208 c 128,-1,17
 586 205 586 205 588 203 c 128,-1,19
 590 201 590 201 594 197.5 c 128,-1,21
 598 194 598 194 599 190.5 c 128,-1,23
 600 187 600 187 600 182.5 c 128,-1,25
 600 178 600 178 597 172 c 0,16,17
 560 99 560 99 543 73 c 0,18,19
 531 55 531 55 497 68 c 0,20,21
 448 87 448 87 379.5 138.5 c 128,-1,23
 311 190 311 190 284 260 c 0,22,23
 253 343 253 343 229.5 505 c 128,-1,25
 206 667 206 667 184 903 c 128,-1,27
 162 1139 162 1139 154 1204 c 1,24,25
 131 1298 l 2,26,27
 122 1333 122 1333 132 1355 c 0,28,29
 137 1368 137 1368 156 1396 c 128,-1,31
 175 1424 175 1424 183 1438 c 1,0,1
EndSplineSet
Fore
SplineSet
289 393 m 1,0,1
 343 406 343 406 355 352 c 1,2,3
 358 331 358 331 394 308.5 c 128,-1,4
 430 286 430 286 499.5 252.5 c 128,-1,5
 569 219 569 219 586 204.5 c 128,-1,6
 603 190 603 190 601 175 c 24,7,8
 585 46 585 46 561 -18 c 0,9,10
 557 -28 557 -28 540 -29.5 c 128,-1,11
 523 -31 523 -31 515 -23 c 0,12,13
 404 87 404 87 325 107.5 c 128,-1,14
 246 128 246 128 104 41 c 0,15,16
 37 0 37 0 0 0 c 0,17,18
 -18 0 -18 0 -28 27 c 1,19,20
 -77 178 -77 178 0 185 c 24,21,22
 132 197 132 197 284 260 c 1,23,24
 250 385 250 385 289 393 c 1,0,1
EndSplineSet
EndChar

StartChar: aLam.init_LamAlfIsol
Encoding: 65632 -1 97
Width: 619
Flags: W
AnchorPoint: "Stroke" 407 1096 basechar 0
AnchorPoint: "TwoDotsBelow" 280 -150 basechar 0
AnchorPoint: "TwoDotsAbove" 270 1650 basechar 0
AnchorPoint: "DotAbove" 390 1715 basechar 0
AnchorPoint: "TashkilBelow" 240 -730 basechar 0
AnchorPoint: "TashkilAbove" 400 1640 basechar 0
AnchorPoint: "VAbove" 111 1388 basechar 0
LayerCount: 2
Back
SplineSet
-28 174 m 0,0,1
 2 171 2 171 117 170 c 0,2,3
 210 169 210 169 253 185 c 1,4,5
 247 242 247 242 225 301 c 0,6,7
 202 363 202 363 193 380 c 0,8,9
 106 559 106 559 -62 794.5 c 128,-1,11
 -230 1030 -230 1030 -324 1120 c 1,10,-1
 -353 1067 l 1,11,12
 -381 1049 -381 1049 -403 1075 c 2,13,-1
 -545 1227 l 2,14,15
 -575 1262 -575 1262 -568 1307 c 2,16,-1
 -542 1486 l 2,17,18
 -538 1513 -538 1513 -520 1514.5 c 128,-1,20
 -502 1516 -502 1516 -492 1502 c 1,19,20
 -424 1449 -424 1449 -275 1270.5 c 128,-1,22
 -126 1092 -126 1092 32 859.5 c 128,-1,24
 190 627 190 627 250 475 c 0,21,22
 275 412 275 412 281 390 c 0,23,24
 339 204 339 204 340 133 c 0,25,26
 341 89 341 89 320 53.5 c 128,-1,28
 299 18 299 18 279 13 c 0,27,28
 219 -3 219 -3 52.5 -4 c 128,-1,30
 -114 -5 -114 -5 -128 0 c 1,29,30
 -160 4 -160 4 -167 15 c 0,31,32
 -182 44 -182 44 -177 94.5 c 128,-1,34
 -172 145 -172 145 -156 164 c 0,33,34
 -138 185 -138 185 -128 183 c 0,35,36
 -118 182 -118 182 -28 174 c 0,0,1
EndSplineSet
Fore
SplineSet
117 110 m 0,0,1
 56 50 56 50 -29 47 c 0,2,3
 -83 46 -83 46 -82 68 c 128,-1,4
 -81 90 -81 90 -32 117 c 0,5,6
 299 301 299 301 345 791 c 0,7,8
 369 1044 369 1044 350 1292 c 0,9,10
 344 1371 344 1371 357 1393 c 0,11,12
 400 1470 400 1470 408 1483 c 128,-1,13
 416 1496 416 1496 428.5 1493.5 c 128,-1,14
 441 1491 441 1491 444 1479 c 0,15,16
 475 1360 475 1360 505 1325.5 c 128,-1,17
 535 1291 535 1291 508 1264 c 2,18,-1
 451 1205 l 1,19,20
 459 975 459 975 400 673 c 0,21,22
 331 320 331 320 117 110 c 0,0,1
EndSplineSet
EndChar

StartChar: aAlf.fina_LamAlfIsol
Encoding: 65633 -1 98
Width: 698
Flags: W
AnchorPoint: "DigitAbove" 50 1300 basechar 0
AnchorPoint: "HighHamza" 835 1609 basechar 0
AnchorPoint: "TashkilBelow" 310 -670 basechar 0
AnchorPoint: "TashkilAbove" 0 1640 basechar 0
AnchorPoint: "HamzaBelow" 553 -280 basechar 0
AnchorPoint: "HamzaAbove" 435 1609 basechar 0
LayerCount: 2
Back
SplineSet
815 110 m 0,37,38
 761 50 761 50 669 47 c 0,39,40
 615 46 615 46 616 70 c 0,41,42
 617 90 617 90 667 117 c 0,39,40
 802 192 802 192 892 320 c 0,41,42
 894 323 894 323 948 415 c 0,43,44
 1020 538 1020 538 1044 791 c 128,-1,46
 1068 1044 1068 1044 1049 1292 c 0,45,46
 1043 1371 1043 1371 1056 1393 c 0,47,48
 1099 1470 1099 1470 1108 1485 c 0,49,50
 1114 1496 1114 1496 1126.5 1493.5 c 128,-1,52
 1139 1491 1139 1491 1143 1479 c 0,51,52
 1174 1360 1174 1360 1207 1321 c 0,53,54
 1233 1291 1233 1291 1207 1264 c 2,55,56
 1149 1205 l 1,57,58
 1159 918 1159 918 1098.5 673 c 128,-1,60
 1038 428 1038 428 980 330 c 0,59,60
 949 278 949 278 924 241 c 0,61,62
 895 199 895 199 815 110 c 0,37,38
EndSplineSet
Fore
SplineSet
571 123 m 0,0,1
 866 93 866 93 951 125 c 1,2,3
 930 324 930 324 662 699 c 0,4,5
 469 970 469 970 374 1060 c 1,6,-1
 345 1007 l 0,7,8
 317 989 317 989 295 1015 c 0,9,-1
 154 1167 l 0,10,11
 124 1202 124 1202 130 1247 c 2,12,-1
 157 1426 l 2,13,14
 161 1453 161 1453 176 1454 c 0,15,16
 218 1457 218 1457 406 1231 c 0,17,18
 594 1006 594 1006 730 800 c 0,19,20
 1020 360 1020 360 1039 86 c 0,21,22
 1046 -30 1046 -30 978 -47 c 0,23,24
 788 -96 788 -96 562 -60 c 0,25,26
 538 -56 538 -56 532 -45 c 0,27,28
 496 44 496 44 543 105 c 0,29,30
 558 125 558 125 571 123 c 0,0,1
EndSplineSet
EndChar

StartChar: aLam.init_LamHaaMemInit
Encoding: 65634 -1 99
Width: 966
Flags: W
AnchorPoint: "Stroke" 177 1106 basechar 0
AnchorPoint: "TwoDotsBelow" 120 -150 basechar 0
AnchorPoint: "TwoDotsAbove" 14 1688 basechar 0
AnchorPoint: "DotAbove" 134 1688 basechar 0
AnchorPoint: "TashkilBelow" 660 -670 basechar 0
AnchorPoint: "TashkilAbove" 510 1640 basechar 0
AnchorPoint: "VAbove" 134 1588 basechar 0
LayerCount: 2
Back
SplineSet
77.5 1565 m 128,-1,1
 93 1602 93 1602 98.5 1612.5 c 128,-1,2
 104 1623 104 1623 114 1623 c 128,-1,3
 124 1623 124 1623 128 1613 c 0,4,5
 166 1508 166 1508 226 1452 c 0,6,7
 242 1436 242 1436 227 1414 c 1,8,-1
 175 1344 l 2,9,10
 171 1338 171 1338 199.5 1191 c 128,-1,11
 228 1044 228 1044 232 941 c 128,-1,12
 236 838 236 838 197.5 799 c 128,-1,13
 159 760 159 760 40 710 c 1,14,15
 -48 807 -48 807 66 820 c 0,16,17
 136 828 136 828 178 844 c 1,18,19
 168 959 168 959 131 1138 c 128,-1,20
 94 1317 94 1317 86.5 1360 c 128,-1,21
 79 1403 79 1403 63.5 1452.5 c 128,-1,22
 48 1502 48 1502 55 1515 c 128,-1,0
 62 1528 62 1528 77.5 1565 c 128,-1,1
-97 448 m 0,28,29
 -73 467 -73 467 2 403 c 0,30,31
 25 383 25 383 61 357 c 128,-1,33
 97 331 97 331 116 316.5 c 128,-1,35
 135 302 135 302 155 278 c 128,-1,37
 175 254 175 254 179.5 231 c 128,-1,39
 184 208 184 208 179 172.5 c 128,-1,41
 174 137 174 137 153 92 c 0,32,33
 145 75 145 75 127.5 72.5 c 128,-1,35
 110 70 110 70 97 81 c 0,34,35
 -8 166 -8 166 -174 238 c 1,36,37
 -185 221 -185 221 -215 170.5 c 128,-1,39
 -245 120 -245 120 -260.5 97 c 128,-1,41
 -276 74 -276 74 -304 44 c 128,-1,43
 -332 14 -332 14 -361 0 c 0,38,39
 -373 -6 -373 -6 -390 29 c 0,40,41
 -427 104 -427 104 -402 155 c 0,42,43
 -390 180 -390 180 -361 185 c 0,40,41
 -302 195 -302 195 -258 226 c 128,-1,43
 -214 257 -214 257 -196.5 284.5 c 128,-1,45
 -179 312 -179 312 -162.5 349.5 c 128,-1,47
 -146 387 -146 387 -143 391 c 0,42,43
 -116 432 -116 432 -97 448 c 0,28,29
-187 654 m 0,44,45
 -179 717 -179 717 -141 759 c 0,46,47
 -100 804 -100 804 1.5 815 c 128,-1,49
 103 826 103 826 190 791 c 0,48,49
 217 780 217 780 291.5 748.5 c 128,-1,51
 366 717 366 717 394.5 706 c 128,-1,53
 423 695 423 695 486 673 c 128,-1,55
 549 651 549 651 592 642 c 128,-1,57
 635 633 635 633 698.5 623 c 128,-1,59
 762 613 762 613 828 610 c 0,50,51
 839 609 839 609 835 592 c 0,52,53
 819 517 819 517 779 460 c 0,54,55
 774 452 774 452 762 455 c 0,56,57
 650 480 650 480 554.5 489 c 128,-1,59
 459 498 459 498 309.5 479.5 c 128,-1,61
 160 461 160 461 2 403 c 0,58,59
 -48 385 -48 385 -91 406 c 0,60,61
 -124 422 -124 422 -96 448 c 0,60,61
 -44 496 -44 496 259 565 c 0,62,63
 270 568 270 568 269.5 573 c 128,-1,65
 269 578 269 578 259 582 c 0,64,65
 178 618 178 618 116.5 635.5 c 128,-1,67
 55 653 55 653 -24.5 658 c 128,-1,69
 -104 663 -104 663 -175 638 c 0,66,67
 -184 636 -184 636 -186 640 c 128,-1,69
 -188 644 -188 644 -187 654 c 0,44,45
EndSplineSet
Fore
SplineSet
102.5 1435 m 128,-1,1
 118 1472 118 1472 123.5 1482.5 c 128,-1,2
 129 1493 129 1493 139 1493 c 128,-1,3
 149 1493 149 1493 153 1483 c 0,4,5
 189 1384 189 1384 251 1322 c 0,6,7
 267 1306 267 1306 252 1284 c 1,8,-1
 200 1214 l 2,9,10
 222 1081 l 0,11,12
 254 858 254 858 198 799 c 0,13,14
 165 763 165 763 40 710 c 1,15,16
 -48 807 -48 807 66 820 c 0,17,18
 136 828 136 828 178 844 c 1,19,20
 180 871 180 871 152 1031 c 0,21,22
 118 1222 118 1222 88 1322 c 0,23,24
 72 1372 72 1372 79.5 1385 c 128,-1,0
 87 1398 87 1398 102.5 1435 c 128,-1,1
EndSplineSet
EndChar

StartChar: aHaa.medi_LamHaaMemInit
Encoding: 65635 -1 100
Width: 63
Flags: W
AnchorPoint: "DigitBelow" 741 10 basechar 0
AnchorPoint: "TaaBelow" 741 410 basechar 0
AnchorPoint: "TaaAbove" 741 1100 basechar 0
AnchorPoint: "TashkilBelow" 261 -670 basechar 0
AnchorPoint: "TashkilAbove" 151 1640 basechar 0
AnchorPoint: "DotAbove" 741 1100 basechar 0
AnchorPoint: "DotBelow" 741 10 basechar 0
AnchorPoint: "HamzaAbove" 741 1100 basechar 0
AnchorPoint: "HamzaBelow" 741 10 basechar 0
AnchorPoint: "TwoDotsAbove" 630 1100 basechar 0
AnchorPoint: "TwoDotsBelow" 630 10 basechar 0
LayerCount: 2
Back
SplineSet
162 1613 m 0,0,1
 167 1623 167 1623 177 1623 c 128,-1,3
 187 1623 187 1623 191 1613 c 0,2,3
 229 1508 229 1508 289 1452 c 0,4,5
 305 1436 305 1436 289 1414 c 2,6,7
 238 1344 l 2,8,9
 234 1338 234 1338 239 1306 c 0,10,11
 241 1294 241 1294 251.5 1240.5 c 128,-1,13
 262 1187 262 1187 269.5 1146.5 c 128,-1,15
 277 1106 277 1106 285 1050.5 c 128,-1,17
 293 995 293 995 295 956 c 0,12,13
 301 840 301 840 252 791 c 0,14,15
 221 760 221 760 102.5 710 c 128,-1,17
 -16 660 -16 660 -113 638 c 0,16,17
 -122 636 -122 636 -124 640 c 128,-1,19
 -126 644 -126 644 -125 654 c 0,18,19
 -113 727 -113 727 -72 764 c 128,-1,21
 -31 801 -31 801 14 806.5 c 128,-1,23
 59 812 59 812 128.5 820 c 128,-1,25
 198 828 198 828 240 844 c 1,20,21
 230 959 230 959 193 1138 c 128,-1,23
 156 1317 156 1317 150 1356 c 0,22,23
 142 1403 142 1403 119 1477 c 0,24,25
 111 1502 111 1502 116 1512 c 0,26,27
 124 1528 124 1528 140 1565 c 128,-1,29
 156 1602 156 1602 162 1613 c 0,0,1
-35 448 m 0,28,29
 -11 467 -11 467 65 403 c 0,30,31
 88 383 88 383 124 357 c 128,-1,33
 160 331 160 331 178.5 316.5 c 128,-1,35
 197 302 197 302 217.5 278 c 128,-1,37
 238 254 238 254 242.5 231 c 128,-1,39
 247 208 247 208 241.5 172.5 c 128,-1,41
 236 137 236 137 215 92 c 0,32,33
 207 75 207 75 189.5 72.5 c 128,-1,35
 172 70 172 70 160 81 c 0,34,35
 55 166 55 166 -112 238 c 1,36,37
 -123 221 -123 221 -152.5 170.5 c 128,-1,39
 -182 120 -182 120 -197.5 97 c 128,-1,41
 -213 74 -213 74 -241.5 44 c 128,-1,43
 -270 14 -270 14 -299 0 c 0,38,39
 -311 -6 -311 -6 -328 29 c 0,40,41
 -365 104 -365 104 -340 155 c 0,42,43
 -328 180 -328 180 -298 185 c 0,40,41
 -239 195 -239 195 -195 226 c 128,-1,43
 -151 257 -151 257 -134 284.5 c 128,-1,45
 -117 312 -117 312 -100 349.5 c 128,-1,47
 -83 387 -83 387 -81 391 c 0,42,43
 -54 432 -54 432 -35 448 c 0,28,29
EndSplineSet
Fore
SplineSet
-125 654 m 0,0,1
 -117 717 -117 717 -77.5 760.5 c 128,-1,2
 -38 804 -38 804 63.5 815 c 128,-1,3
 165 826 165 826 252 791 c 1,4,5
 561 662 561 662 627 648 c 0,6,7
 785 615 785 615 890 610 c 0,8,9
 901 609 901 609 898 592 c 0,10,11
 882 517 882 517 841 460 c 0,12,13
 836 452 836 452 824 455 c 0,14,15
 701 483 701 483 617 489 c 0,16,17
 369 508 369 508 65 403 c 0,18,19
 14 386 14 386 -24 404 c 128,-1,20
 -62 422 -62 422 -33 448 c 0,21,22
 19 496 19 496 322 565 c 0,23,24
 333 568 333 568 333 573 c 0,25,26
 331 593 331 593 173.5 637.5 c 128,-1,27
 16 682 16 682 -113 638 c 24,28,29
 -127 633 -127 633 -125 654 c 0,0,1
EndSplineSet
EndChar

StartChar: aMem.medi_LamHaaMemInit
Encoding: 65636 -1 101
Width: 303
Flags: W
AnchorPoint: "TashkilBelow" 190 -670 basechar 0
AnchorPoint: "TashkilAbove" 100 1640 basechar 0
LayerCount: 2
Back
SplineSet
464 1613 m 0,0,1
 469 1623 469 1623 479.5 1623 c 128,-1,3
 490 1623 490 1623 493 1613 c 0,2,3
 531 1508 531 1508 591 1452 c 0,4,5
 607 1436 607 1436 592 1414 c 2,6,7
 541 1344 l 2,8,9
 537 1338 537 1338 542 1306 c 0,10,11
 544 1294 544 1294 554.5 1240.5 c 128,-1,13
 565 1187 565 1187 572.5 1146.5 c 128,-1,15
 580 1106 580 1106 588 1050.5 c 128,-1,17
 596 995 596 995 598 956 c 0,12,13
 604 840 604 840 555 791 c 0,14,15
 524 760 524 760 405.5 710 c 128,-1,17
 287 660 287 660 190 638 c 0,16,17
 181 636 181 636 179 640 c 128,-1,19
 177 644 177 644 178 654 c 0,18,19
 190 727 190 727 231 764 c 128,-1,21
 272 801 272 801 317 806.5 c 128,-1,23
 362 812 362 812 431.5 820 c 128,-1,25
 501 828 501 828 543 844 c 1,20,21
 533 959 533 959 496 1138 c 128,-1,23
 459 1317 459 1317 453 1356 c 0,22,23
 445 1403 445 1403 422 1477 c 0,24,25
 414 1502 414 1502 419 1512 c 0,26,27
 427 1528 427 1528 442.5 1565 c 128,-1,29
 458 1602 458 1602 464 1613 c 0,0,1
178 654 m 0,44,45
 186 717 186 717 224 759 c 0,46,47
 265 804 265 804 366.5 815 c 128,-1,49
 468 826 468 826 555 791 c 0,48,49
 582 780 582 780 656.5 748.5 c 128,-1,51
 731 717 731 717 759.5 706 c 128,-1,53
 788 695 788 695 851 673 c 128,-1,55
 914 651 914 651 957 642 c 128,-1,57
 1000 633 1000 633 1063.5 623 c 128,-1,59
 1127 613 1127 613 1193 610 c 0,50,51
 1204 609 1204 609 1200 592 c 0,52,53
 1184 517 1184 517 1144 460 c 0,54,55
 1139 452 1139 452 1127 455 c 0,56,57
 1015 480 1015 480 919.5 489 c 128,-1,59
 824 498 824 498 674.5 479.5 c 128,-1,61
 525 461 525 461 368 403 c 0,58,59
 318 385 318 385 274 406 c 0,60,61
 241 422 241 422 270 448 c 0,60,61
 322 496 322 496 624 565 c 0,62,63
 635 568 635 568 635 573 c 128,-1,65
 635 578 635 578 624 582 c 0,64,65
 543 618 543 618 481.5 635.5 c 128,-1,67
 420 653 420 653 340.5 658 c 128,-1,69
 261 663 261 663 190 638 c 0,66,67
 181 636 181 636 179 640 c 128,-1,69
 177 644 177 644 178 654 c 0,44,45
EndSplineSet
Fore
SplineSet
268 448 m 0,0,1
 320 468 320 468 520 278 c 0,2,3
 578 222 578 222 518 92 c 0,4,5
 499 51 499 51 463 81 c 24,6,7
 365 163 365 163 191 238 c 1,8,9
 100 0 100 0 0 0 c 0,10,11
 -14 -1 -14 -1 -25 29 c 0,12,13
 -53 105 -53 105 -37 155 c 0,14,15
 -29 180 -29 180 0 185 c 0,16,17
 118 204 118 204 168 284 c 24,18,19
 171 288 171 288 207 365 c 24,20,21
 250 441 250 441 268 448 c 0,0,1
EndSplineSet
EndChar

StartChar: aBaa.medi_BaaBaaInit
Encoding: 65637 -1 102
Width: 345
Flags: W
AnchorPoint: "DigitBelow" 100 -300 basechar 0
AnchorPoint: "DigitAbove" 250 600 basechar 0
AnchorPoint: "HighHamza" 350 600 basechar 0
AnchorPoint: "VAbove" 250 600 basechar 0
AnchorPoint: "RingBelow" 250 150 basechar 0
AnchorPoint: "TaaAbove" 250 500 basechar 0
AnchorPoint: "TashkilBelow" 100 -670 basechar 0
AnchorPoint: "TashkilAbove" 250 1640 basechar 0
AnchorPoint: "TwoDotsBelow" 100 -210 basechar 0
AnchorPoint: "TwoDotsAbove" 120 600 basechar 0
AnchorPoint: "DotBelow" 100 -300 basechar 0
AnchorPoint: "DotAbove" 250 600 basechar 0
AnchorPoint: "HamzaBelow" 200 -150 basechar 0
AnchorPoint: "HamzaAbove" 250 600 basechar 0
LayerCount: 2
Back
SplineSet
698 386 m 0,0,1
 733 286 733 286 722 202 c 0,2,3
 705 81 705 81 661 41 c 0,4,5
 631 14 631 14 606 9 c 0,6,7
 452 -16 452 -16 242 143 c 1,8,9
 114 0 114 0 0 0 c 0,10,11
 -43 -1 -43 -1 -55 90 c 0,12,13
 -67 178 -67 178 0 186 c 0,14,15
 178 205 178 205 256 307 c 0,16,17
 278 336 278 336 309 309 c 0,18,19
 472 166 472 166 652 166 c 0,20,21
 660 166 660 166 659 175 c 0,22,23
 659 185 659 185 627 221 c 0,24,25
 620 229 620 229 624 241 c 2,26,-1
 672 383 l 2,27,28
 676 396 676 396 685 396 c 128,-1,29
 694 396 694 396 698 386 c 0,0,1
291 107 m 0,30,31
 471 -13 471 -13 604 9 c 0,32,33
 628 13 628 13 659 41 c 0,34,35
 704 82 704 82 720 202 c 0,36,37
 732 295 732 295 696 386 c 0,38,39
 692 396 692 396 683 396 c 128,-1,40
 674 396 674 396 670 383 c 2,41,-1
 622 241 l 2,42,43
 618 229 618 229 625 221 c 0,44,45
 657 185 657 185 657 175 c 0,46,47
 657 166 657 166 650 166 c 0,48,49
 495 164 495 164 343 279 c 0,50,51
 312 303 312 303 267 224 c 0,52,53
 235 143 235 143 291 107 c 0,30,31
EndSplineSet
Fore
SplineSet
386 157 m 0,0,1
 342 78 342 78 304 98 c 0,2,3
 296 102 296 102 242 143 c 1,4,5
 116 2 116 2 0 0 c 0,6,7
 -43 -1 -43 -1 -55 90 c 0,8,9
 -67 178 -67 178 0 186 c 0,10,11
 180 207 180 207 256 307 c 0,12,13
 277 335 277 335 309 309 c 0,14,15
 318 303 318 303 351 272 c 0,16,17
 419 214 419 214 386 157 c 0,0,1
EndSplineSet
EndChar

StartChar: aAyn.medi_AynYaaFina
Encoding: 65638 -1 103
Width: 841
Flags: W
AnchorPoint: "DotBelow" 600 -500 basechar 0
AnchorPoint: "TashkilBelow" 400 -670 basechar 0
AnchorPoint: "TashkilAbove" 421 1640 basechar 0
AnchorPoint: "TwoDotsAbove" 310 950 basechar 0
AnchorPoint: "DotAbove" 421 950 basechar 0
AnchorPoint: "cursive" 0 0 exit 0
LayerCount: 2
Back
SplineSet
-41 63 m 0,0,1
 371 60 371 60 427 -85 c 0,2,3
 439 -114 439 -114 400 -211 c 128,-1,4
 361 -308 361 -308 321 -343 c 0,5,6
 181 -464 181 -464 -3 -546 c 128,-1,7
 -187 -628 -187 -628 -354 -641 c 0,8,9
 -628 -661 -628 -661 -745 -505 c 0,10,11
 -912 -281 -912 -281 -791 41 c 0,12,13
 -756 134 -756 134 -721 189 c 0,14,15
 -709 208 -709 208 -691 196 c 128,-1,16
 -673 184 -673 184 -695 148 c 128,-1,17
 -717 112 -717 112 -735 52 c 0,18,19
 -810 -196 -810 -196 -653 -334 c 0,20,21
 -496 -474 -496 -474 -219 -422 c 0,22,23
 3 -380 3 -380 243 -231 c 0,24,25
 321 -183 321 -183 335 -167 c 1,26,27
 251 -104 251 -104 -60 -91 c 0,28,29
 -81 -90 -81 -90 -78 -63 c 2,30,-1
 -61 42 l 2,31,32
 -59 63 -59 63 -41 63 c 0,0,1
EndSplineSet
Fore
SplineSet
192 354 m 0,0,1
 210 469 210 469 287 517 c 0,2,3
 485 640 485 640 651 530 c 0,4,5
 737 473 737 473 761 408 c 0,6,7
 769 386 769 386 751.5 342 c 152,-1,8
 734 298 734 298 658 242 c 1,9,10
 745 186 745 186 841 185 c 0,11,12
 897 185 897 185 889 118 c 0,13,14
 874 0 874 0 841 0 c 0,15,16
 724 0 724 0 508 151 c 0,17,18
 499 157 499 157 481 152 c 0,19,20
 164 50 164 50 11 -47 c 0,21,22
 -20 -66 -20 -66 -42 -40 c 0,23,24
 -69 -7 -69 -7 -62 32 c 0,25,26
 -57 58 -57 58 -38 76 c 0,27,28
 29 138 29 138 356 255 c 1,29,30
 275 311 275 311 212 324 c 0,31,32
 188 329 188 329 192 354 c 0,0,1
EndSplineSet
EndChar

StartChar: aMem.init_MemRaaIsol
Encoding: 65639 -1 104
Width: 710
Flags: W
AnchorPoint: "TashkilBelow" 230 -670 basechar 0
AnchorPoint: "TashkilAbove" 380 1640 basechar 0
LayerCount: 2
Back
SplineSet
0 457 m 0,0,1
 39 477 39 477 38 440 c 0,2,3
 36 360 36 360 24 298 c 0,4,5
 21 283 21 283 0 272 c 0,6,7
 -110 220 -110 220 -140 194 c 0,8,9
 -207 139 -207 139 -296 38 c 0,10,11
 -385 -61 -385 -61 -460 -182 c 0,12,13
 -610 -428 -610 -428 -764 -401 c 0,14,15
 -852 -385 -852 -385 -904 -306 c 0,16,17
 -952 -234 -952 -234 -939 -96.5 c 128,-1,18
 -926 41 -926 41 -811 255 c 0,19,20
 -803 270 -803 270 -791 272.5 c 128,-1,21
 -779 275 -779 275 -774.5 265.5 c 128,-1,22
 -770 256 -770 256 -773 247 c 128,-1,23
 -776 238 -776 238 -823 144 c 0,24,25
 -863 64 -863 64 -875 -18 c 0,26,27
 -898 -179 -898 -179 -766 -222 c 0,28,29
 -682 -249 -682 -249 -617 -204 c 0,30,31
 -552 -160 -552 -160 -491 -52 c 24,32,33
 -340 213 -340 213 -166 351 c 0,34,35
 -92 409 -92 409 0 457 c 0,0,1
0 272 m 1,36,37
 -38 289 -38 289 -38 335 c 0,38,39
 -38 383 -38 383 -20 418 c 2,40,-1
 0 457 l 1,41,42
 67 494 67 494 268 567 c 0,43,44
 282 572 282 572 265 579 c 2,45,-1
 229 594 l 2,46,47
 198 607 198 607 204 634 c 0,48,49
 231 755 231 755 266 804 c 24,50,51
 286 832 286 832 314 831 c 0,52,53
 437 825 437 825 523 776 c 0,54,55
 604 730 604 730 589 594 c 1,56,57
 573 513 573 513 488 468 c 0,58,59
 426 435 426 435 252 372 c 128,-1,60
 78 309 78 309 0 272 c 1,36,37
EndSplineSet
Fore
SplineSet
0 185 m 1,0,1
 117 246 117 246 268 295 c 0,2,3
 282 300 282 300 265 307 c 2,4,-1
 229 322 l 2,5,6
 198 335 198 335 204 362 c 0,7,8
 231 483 231 483 266 532 c 0,9,10
 286 560 286 560 314 559 c 0,11,12
 437 553 437 553 523 504 c 0,13,14
 604 458 604 458 589 322 c 1,15,16
 573 241 573 241 488 196 c 0,17,18
 374 136 374 136 252 100 c 0,19,20
 114 59 114 59 0 0 c 1,21,22
 -38 17 -38 17 -38 63 c 0,23,24
 -38 111 -38 111 -20 146 c 2,25,-1
 0 185 l 1,0,1
EndSplineSet
EndChar

StartChar: aFaa.init_FaaHaaInit
Encoding: 65641 -1 106
Width: 1197
Flags: W
AnchorPoint: "TwoDotsBelow" 550 760 basechar 0
AnchorPoint: "DotBelow" 600 610 basechar 0
AnchorPoint: "TashkilBelow" 680 -670 basechar 0
AnchorPoint: "TashkilAbove" 535 1640 basechar 0
AnchorPoint: "TwoDotsAbove" -15 1510 basechar 0
AnchorPoint: "DotAbove" 85 1510 basechar 0
AnchorPoint: "HamzaAbove" 135 1510 basechar 0
LayerCount: 2
Fore
SplineSet
358 726 m 1,0,1
 350 774 350 774 322.5 807.5 c 128,-1,2
 295 841 295 841 275 812 c 0,3,4
 180 674 180 674 84 687 c 0,5,6
 -72 708 -72 708 8 997 c 0,7,8
 60 1185 60 1185 172 1216 c 0,9,10
 221 1230 221 1230 289 1150 c 24,11,12
 405 1012 405 1012 414 767 c 0,13,14
 417 681 417 681 373 597 c 1,15,16
 257 386 257 386 -10 394 c 0,17,18
 -139 398 -139 398 -64 491 c 0,19,20
 -36 526 -36 526 -26 531 c 0,21,22
 -4 542 -4 542 27 548 c 0,23,24
 336 606 336 606 358 726 c 1,0,1
62 977 m 1,25,26
 74 905 74 905 124 903 c 1,27,28
 175 902 175 902 192 953 c 1,29,30
 151 996 151 996 117 1000.5 c 152,-1,31
 83 1005 83 1005 62 977 c 1,25,26
EndSplineSet
Comment: "XXX: disable for three dots below" 
EndChar

StartChar: aHaa.init_HaaHaaInit
Encoding: 65643 -1 108
Width: 1338
Flags: W
AnchorPoint: "DigitBelow" 1107 -249 basechar 0
AnchorPoint: "TaaBelow" 1107 151 basechar 0
AnchorPoint: "TaaAbove" 1107 1210 basechar 0
AnchorPoint: "TashkilBelow" 1007 -670 basechar 0
AnchorPoint: "TashkilAbove" 817 1640 basechar 0
AnchorPoint: "DotBelow" 1107 -249 basechar 0
AnchorPoint: "HamzaBelow" 1107 -249 basechar 0
AnchorPoint: "TwoDotsBelow" 1007 -249 basechar 0
AnchorPoint: "DotAbove" 1107 1210 basechar 0
AnchorPoint: "HamzaAbove" 1107 1210 basechar 0
AnchorPoint: "TwoDotsAbove" 1007 1210 basechar 0
LayerCount: 2
Fore
SplineSet
168 848 m 0,0,1
 213 1022 213 1022 363 1027 c 0,2,3
 457 1031 457 1031 615 923 c 0,4,5
 864 754 864 754 1179 732 c 0,6,7
 1227 729 1227 729 1203 681 c 2,8,-1
 1150 577 l 2,9,10
 1143 563 1143 563 1124 569 c 0,11,12
 976 610 976 610 802 622 c 0,13,14
 532 640 532 640 248 521 c 0,15,-1
 122 473 l 2,16,17
 -16 420 -16 420 -18 525 c 1,18,19
 136 623 136 623 623 720 c 0,20,21
 643 724 643 724 626 734 c 0,22,23
 477 824 477 824 375.5 846 c 128,-1,24
 274 868 274 868 194 837 c 0,25,26
 163 825 163 825 168 848 c 0,0,1
EndSplineSet
EndChar

StartChar: aLam.medi_LamQafFina
Encoding: 65644 -1 109
Width: 570
Flags: W
AnchorPoint: "Stroke" 287 1166 basechar 0
AnchorPoint: "TwoDotsBelow" 200 -150 basechar 0
AnchorPoint: "TwoDotsAbove" 154 1698 basechar 0
AnchorPoint: "DotAbove" 274 1698 basechar 0
AnchorPoint: "TashkilBelow" 0 -670 basechar 0
AnchorPoint: "TashkilAbove" 140 1640 basechar 0
AnchorPoint: "VAbove" 274 1598 basechar 0
LayerCount: 2
Back
SplineSet
22 322 m 0,24,25
 36 256 36 256 27 147 c 0,26,27
 19 45 19 45 -18 -65 c 0,28,29
 -51 -161 -51 -161 -135 -237.5 c 128,-1,31
 -219 -314 -219 -314 -317 -355 c 128,-1,33
 -415 -396 -415 -396 -500 -417 c 128,-1,35
 -585 -438 -585 -438 -643 -439 c 0,30,31
 -927 -444 -927 -444 -1036.5 -303 c 128,-1,33
 -1146 -162 -1146 -162 -1094 75 c 0,32,33
 -1057 241 -1057 241 -957 405 c 0,34,35
 -950 416 -950 416 -937 416 c 128,-1,37
 -924 416 -924 416 -918.5 406 c 128,-1,39
 -913 396 -913 396 -921 380 c 0,36,37
 -1000 250 -1000 250 -1013 128 c 0,38,39
 -1021 54 -1021 54 -1004 -9.5 c 128,-1,41
 -987 -73 -987 -73 -945 -126 c 128,-1,43
 -903 -179 -903 -179 -824 -210.5 c 128,-1,45
 -745 -242 -745 -242 -636 -244 c 0,40,41
 -493 -246 -493 -246 -373 -211.5 c 128,-1,43
 -253 -177 -253 -177 -181 -123.5 c 128,-1,45
 -109 -70 -109 -70 -69 -12 c 128,-1,47
 -29 46 -29 46 -28 97 c 0,42,43
 -28 128 -28 128 -30 132 c 1,44,45
 -115 114 -115 114 -207 118 c 0,46,47
 -323 123 -323 123 -361 191 c 128,-1,49
 -399 259 -399 259 -346 394 c 0,48,49
 -326 440 -326 440 -313.5 465.5 c 128,-1,51
 -301 491 -301 491 -270.5 529.5 c 128,-1,53
 -240 568 -240 568 -205 585 c 0,50,51
 -166 604 -166 604 -126 579.5 c 128,-1,53
 -86 555 -86 555 -56.5 505.5 c 128,-1,55
 -27 456 -27 456 -6.5 407 c 128,-1,57
 14 358 14 358 22 322 c 0,24,25
-156 351 m 0,52,53
 -229 448 -229 448 -281 363 c 0,54,55
 -290 348 -290 348 -282 338 c 0,56,57
 -267 320 -267 320 -228.5 313.5 c 128,-1,59
 -190 307 -190 307 -158 314 c 0,58,59
 -148 316 -148 316 -147.5 328 c 128,-1,61
 -147 340 -147 340 -156 351 c 0,52,53
EndSplineSet
Fore
SplineSet
272 1461 m 2,0,1
 301 1519 301 1519 309 1436 c 24,2,3
 335 1206 335 1206 361 917 c 0,4,5
 401 477 401 477 426 368 c 24,6,7
 463 203 463 203 570 185 c 0,8,9
 659 170 659 170 601 16 c 0,10,11
 595 0 595 0 570 0 c 0,12,13
 350 0 350 0 322 482 c 1,14,15
 264 268 264 268 168 205 c 0,16,17
 119 173 119 173 27 147 c 0,18,19
 -15 135 -15 135 -27 199 c 0,20,21
 -40 274 -40 274 -5 309 c 0,22,23
 7 321 7 321 22 322 c 0,24,25
 198 334 198 334 251 451 c 0,26,27
 292 542 292 542 263 818 c 0,28,29
 226 1175 226 1175 214 1304 c 0,30,31
 211 1338 211 1338 220 1356 c 2,32,-1
 272 1461 l 2,0,1
EndSplineSet
EndChar

StartChar: aQaf.fina_LamQafFina
Encoding: 65645 -1 110
Width: 1244
Flags: W
AnchorPoint: "TashkilBelow" 580 -670 basechar 0
AnchorPoint: "TashkilAbove" 704 1640 basechar 0
AnchorPoint: "TwoDotsAbove" 863 886 basechar 0
AnchorPoint: "HamzaAbove" 974 886 basechar 0
AnchorPoint: "DotAbove" 974 886 basechar 0
LayerCount: 2
Back
SplineSet
1520 1475 m 1,0,1
 1531 1489 1531 1489 1541.5 1477 c 128,-1,3
 1552 1465 1552 1465 1554 1450 c 0,2,3
 1569 1323 1569 1323 1606 917 c 128,-1,5
 1643 511 1643 511 1670 368 c 0,4,5
 1681 309 1681 309 1719.5 253.5 c 128,-1,7
 1758 198 1758 198 1815 186 c 0,6,7
 1843 180 1843 180 1858 158.5 c 128,-1,9
 1873 137 1873 137 1873.5 110.5 c 128,-1,11
 1874 84 1874 84 1867.5 58 c 128,-1,13
 1861 32 1861 32 1846.5 15.5 c 128,-1,15
 1832 -1 1832 -1 1816 0 c 0,8,9
 1767 4 1767 4 1728.5 24.5 c 128,-1,11
 1690 45 1690 45 1664.5 85.5 c 128,-1,13
 1639 126 1639 126 1622 164.5 c 128,-1,15
 1605 203 1605 203 1594 266.5 c 128,-1,17
 1583 330 1583 330 1578 371 c 128,-1,19
 1573 412 1573 412 1567 482 c 1,10,11
 1509 268 1509 268 1413 205 c 0,12,13
 1364 173 1364 173 1272 147 c 0,14,15
 1230 135 1230 135 1218 199 c 0,16,17
 1205 271 1205 271 1240 309 c 0,18,19
 1252 321 1252 321 1267 322 c 0,16,17
 1443 334 1443 334 1496 451 c 0,18,19
 1517 498 1517 498 1517.5 605 c 128,-1,21
 1518 712 1518 712 1507 818 c 128,-1,23
 1496 924 1496 924 1480 1073.5 c 128,-1,25
 1464 1223 1464 1223 1459 1304 c 0,20,21
 1457 1334 1457 1334 1465 1356 c 0,22,23
 1488 1421 1488 1421 1520 1475 c 1,0,1
EndSplineSet
Fore
SplineSet
1267 322 m 0,0,1
 1282 268 1282 268 1273 156 c 0,2,3
 1251 -110 1251 -110 1110 -238 c 0,4,5
 896 -434 896 -434 607 -439 c 128,-1,6
 318 -444 318 -444 208 -303 c 128,-1,7
 98 -162 98 -162 151 75 c 0,8,9
 190 252 190 252 288 405 c 0,10,11
 295 416 295 416 308 416 c 128,-1,12
 321 416 321 416 326.5 405.5 c 128,-1,13
 332 395 332 395 323 380 c 0,14,15
 244 247 244 247 232 128 c 1,16,17
 210 -228 210 -228 609 -244 c 0,18,19
 754 -250 754 -250 872 -212 c 0,20,21
 1189 -109 1189 -109 1216 97 c 0,22,23
 1219 117 1219 117 1215 132 c 1,24,25
 1130 114 1130 114 1025.5 118.5 c 128,-1,26
 921 123 921 123 882.5 192.5 c 128,-1,27
 844 262 844 262 903.5 404.5 c 152,-1,28
 963 547 963 547 1039 585 c 0,29,30
 1082 607 1082 607 1118 580 c 24,31,32
 1216 508 1216 508 1267 322 c 0,0,1
1089 351 m 24,33,34
 1016 448 1016 448 964 363 c 0,35,36
 955 348 955 348 963 338 c 1,37,38
 1000 300 1000 300 1086 314 c 0,39,40
 1113 319 1113 319 1089 351 c 24,33,34
EndSplineSet
EndChar

StartChar: aSen.init_AboveHaa
Encoding: 65646 -1 111
Width: 1376
Flags: W
AnchorPoint: "DigitAbove" 878 1263 basechar 0
AnchorPoint: "VAbove" 878 1263 basechar 0
AnchorPoint: "TwoDotsBelow" 850 80 basechar 0
AnchorPoint: "DotBelow" 950 80 basechar 0
AnchorPoint: "TashkilBelow" 1030 -290 basechar 0
AnchorPoint: "TashkilAbove" 768 1640 basechar 0
AnchorPoint: "TwoDotsAbove" 767 1263 basechar 0
AnchorPoint: "DotAbove" 878 1263 basechar 0
AnchorPoint: "cursive" 0 415 exit 0
LayerCount: 2
Back
SplineSet
20 418 m 25,0,0
 -36 422 l 25,0,0
 -5 442 l 25,0,0
 -5 394 l 25,0,0
184 476 m 0,0,1
 746 448 746 448 1022 487 c 0,2,3
 1043 490 1043 490 1039 470 c 0,4,5
 1022 391 1022 391 1011 362.5 c 128,-1,6
 1000 334 1000 334 979 332 c 0,7,8
 477 271 477 271 216 14 c 0,9,10
 51 -149 51 -149 44 -349 c 0,11,12
 33 -685 33 -685 318 -792 c 1,13,14
 563 -883 563 -883 1013 -860 c 0,15,16
 1170 -852 1170 -852 1300 -835 c 0,17,18
 1322 -832 1322 -832 1322.5 -852.5 c 128,-1,19
 1323 -873 1323 -873 1309 -879 c 0,20,21
 1069 -982 1069 -982 935 -1012.5 c 128,-1,22
 801 -1043 801 -1043 691 -1041 c 0,23,24
 280 -1030 280 -1030 117.5 -876 c 152,-1,25
 -45 -722 -45 -722 -36 -456 c 0,26,27
 -25 -140 -25 -140 213 142 c 1,28,29
 291 232 291 232 406 303 c 1,30,-1
 -88 307 l 1,31,32
 -121 313 -121 313 -96 352 c 0,33,34
 -25 460 -25 460 -5 481 c 1,35,36
 -1 484 -1 484 184 476 c 0,0,1
EndSplineSet
Fore
SplineSet
1180 1051 m 2,0,1
 1191 1082 1191 1082 1214 1055.5 c 152,-1,2
 1237 1029 1237 1029 1245 943 c 0,3,4
 1259 782 1259 782 1139 658 c 0,5,6
 1114 633 1114 633 1077 636 c 0,7,8
 943 646 943 646 890 752 c 0,9,10
 880 772 880 772 868 750 c 24,11,12
 779 590 779 590 667 584 c 0,13,14
 590 581 590 581 545 623 c 128,-1,15
 500 665 500 665 439 772 c 0,16,17
 425 796 425 796 403 801 c 128,-1,18
 381 806 381 806 372 786 c 0,19,20
 267 530 267 530 -29 358 c 24,21,22
 -118 306 -118 306 -38 472 c 0,23,24
 -31 488 -31 488 -16 493 c 0,25,26
 207 570 207 570 344 850 c 0,27,28
 368 896 368 896 390 928 c 0,29,30
 431 987 431 987 467 934 c 0,31,32
 533 834 533 834 587 806 c 0,33,34
 729 734 729 734 829 836 c 0,35,36
 878 887 878 887 939 1014 c 0,37,38
 952 1040 952 1040 970 1029 c 128,-1,39
 988 1018 988 1018 978 995 c 0,40,41
 953 936 953 936 956 920 c 0,42,43
 977 816 977 816 1162 817 c 0,44,45
 1175 817 1175 817 1177 834 c 128,-1,46
 1179 851 1179 851 1137 890 c 0,47,48
 1127 900 1127 900 1135 923 c 2,49,-1
 1180 1051 l 2,0,1
EndSplineSet
EndChar

StartChar: aMem.init_MemHaaInit
Encoding: 65647 -1 112
Width: 1127
Flags: W
AnchorPoint: "TashkilBelow" 820 -670 basechar 0
AnchorPoint: "TashkilAbove" 580 1640 basechar 0
AnchorPoint: "cursive" 0 521 exit 0
LayerCount: 2
Back
SplineSet
-21 564 m 0,0,1
 2 590 2 590 139 548 c 0,2,3
 634 397 634 397 973 403 c 0,4,5
 990 403 990 403 996.5 393 c 128,-1,7
 1003 383 1003 383 995 362 c 2,6,-1
 941 248 l 2,7,8
 929 224 929 224 906 227 c 0,9,10
 823 245 823 245 724.5 238 c 128,-1,12
 626 231 626 231 554 216.5 c 128,-1,14
 482 202 482 202 386 174 c 0,11,12
 298 148 298 148 127 82.5 c 128,-1,14
 -44 17 -44 17 -120 0 c 0,13,14
 -139 -4 -139 -4 -152 41 c 128,-1,16
 -165 86 -165 86 -158 134 c 128,-1,18
 -151 182 -151 182 -121 185 c 0,15,16
 -6 198 -6 198 162 245.5 c 128,-1,18
 330 293 330 293 361 300 c 0,17,18
 380 304 380 304 361 311 c 0,19,20
 175 378 175 378 -77 424 c 0,21,22
 -85 425 -85 425 -85 432 c 0,23,24
 -82 497 -82 497 -21 564 c 0,0,1
EndSplineSet
Fore
SplineSet
654 704 m 0,0,1
 303 680 303 680 26 496 c 0,2,3
 -17 469 -17 469 -38 486 c 0,4,5
 -84 524 -84 524 24 604 c 24,6,7
 221 750 221 750 513 816 c 1,8,-1
 474 873 l 2,9,10
 453 904 453 904 465 928 c 0,11,12
 528 1055 528 1055 561 1090 c 0,13,14
 586 1118 586 1118 612 1104 c 0,15,16
 766 1022 766 1022 830 957 c 0,17,18
 851 936 851 936 838 897 c 0,19,20
 823 851 823 851 735 734 c 0,21,22
 716 708 716 708 654 704 c 0,0,1
EndSplineSet
EndChar

StartChar: aNon.fina_BaaNonIsol
Encoding: 65649 -1 114
Width: 1152
Flags: W
AnchorPoint: "TaaAbove" 660 800 basechar 0
AnchorPoint: "TwoDotsBelow" 435 -630 basechar 0
AnchorPoint: "DotBelow" 545 -630 basechar 0
AnchorPoint: "RingBelow" 545 -330 basechar 0
AnchorPoint: "TashkilBelow" 670 -670 basechar 0
AnchorPoint: "TashkilAbove" 660 1640 basechar 0
AnchorPoint: "TwoDotsAbove" 549 907 basechar 0
AnchorPoint: "DotAbove" 660 907 basechar 0
AnchorPoint: "HamzaAbove" 660 907 basechar 0
LayerCount: 2
Fore
SplineSet
1179 237 m 24,0,1
 1165 4 1165 4 1070 -152 c 0,2,3
 1000 -264 1000 -264 858 -344 c 0,4,5
 714 -426 714 -426 528 -424 c 0,6,7
 133 -420 133 -420 133 -68 c 0,8,9
 133 9 133 9 186 156 c 0,10,11
 230 281 230 281 277 367 c 0,12,13
 284 378 284 378 296 378 c 128,-1,14
 308 378 308 378 314 368 c 128,-1,15
 320 358 320 358 313 344 c 0,16,17
 220 148 220 148 219 75 c 24,18,19
 216 -193 216 -193 552 -200 c 0,20,21
 925 -208 925 -208 1076 19 c 0,22,23
 1084 31 1084 31 1086 46 c 0,24,25
 1110 216 1110 216 1017 409 c 0,26,27
 1006 432 1006 432 1016 454 c 2,28,-1
 1078 586 l 2,29,30
 1088 607 1088 607 1100 593 c 0,31,32
 1191 472 1191 472 1179 237 c 24,0,1
EndSplineSet
EndChar

StartChar: aKaf.medi_KafMemFina
Encoding: 65650 -1 115
Width: 958
Flags: W
AnchorPoint: "RingBelow" 600 1500 basechar 0
AnchorPoint: "TwoDotsBelow" 530 -200 basechar 0
AnchorPoint: "DotBelow" 650 -200 basechar 0
AnchorPoint: "TwoDotsAbove" -260 1597 basechar 0
AnchorPoint: "DotAbove" -150 1597 basechar 0
AnchorPoint: "TashkilBelow" 600 -670 basechar 0
AnchorPoint: "TashkilAbove" 400 1640 basechar 0
AnchorPoint: "Dash" 638 1700 basechar 0
AnchorPoint: "cursive" 0 217 exit 0
LayerCount: 2
Fore
SplineSet
1256 1669 m 2,0,-1
 1193 1538 l 2,1,2
 1182 1515 1182 1515 1165 1512 c 0,3,4
 747 1441 747 1441 360 1351 c 128,-1,5
 -27 1261 -27 1261 -206 1188 c 1,6,7
 -226 1164 -226 1164 -182 1131 c 0,8,9
 73 941 73 941 348 688 c 1,10,11
 700 360 l 1,12,13
 900 192 900 192 958 185 c 1,14,15
 1034 174 1034 174 990 30 c 0,16,17
 981 0 981 0 958 0 c 0,18,19
 827 -2 827 -2 575 270 c 128,-1,20
 323 542 323 542 216 613 c 1,21,22
 265 462 265 462 249.5 393 c 128,-1,23
 234 324 234 324 131 224 c 0,24,25
 57 153 57 153 -35.5 170.5 c 128,-1,26
 -128 188 -128 188 -123 257 c 0,27,28
 -121 277 -121 277 -94 281 c 0,29,30
 72 304 72 304 210 403 c 1,31,32
 162 565 162 565 -16 747 c 1,33,-1
 -286 1019 l 1,34,35
 -329 1067 -329 1067 -319 1092 c 1,36,37
 -260 1224 -260 1224 -190 1300 c 1,38,39
 -155 1335 -155 1335 -93 1364 c 0,40,41
 303 1544 303 1544 1239 1700 c 24,42,43
 1274 1706 1274 1706 1256 1669 c 2,0,-1
EndSplineSet
EndChar

StartChar: aBaa.init_BaaSenInit
Encoding: 65652 -1 117
Width: 449
Flags: W
AnchorPoint: "DigitBelow" 296 -250 basechar 0
AnchorPoint: "DigitAbove" 120 1400 basechar 0
AnchorPoint: "HighHamza" 320 1400 basechar 0
AnchorPoint: "VAbove" 120 1400 basechar 0
AnchorPoint: "RingBelow" 180 229 basechar 0
AnchorPoint: "TaaAbove" 120 1200 basechar 0
AnchorPoint: "TashkilBelow" 296 -670 basechar 0
AnchorPoint: "TashkilAbove" 10 1640 basechar 0
AnchorPoint: "TwoDotsBelowAlt" 196 -750 basechar 0
AnchorPoint: "DotBelowAlt" 296 -750 basechar 0
AnchorPoint: "TwoDotsBelow" 196 -250 basechar 0
AnchorPoint: "TwoDotsAbove" 9 1400 basechar 0
AnchorPoint: "DotBelow" 296 -250 basechar 0
AnchorPoint: "HamzaBelow" 296 -250 basechar 0
AnchorPoint: "HamzaAbove" 120 1400 basechar 0
AnchorPoint: "DotAbove" 120 1400 basechar 0
LayerCount: 2
Back
SplineSet
12 488 m 0,0,1
 36 438 36 438 25 344 c 0,2,3
 20 303 20 303 9 304 c 0,4,5
 5 304 5 304 0 312 c 0,2,3
 -10 326 -10 326 -16 308 c 0,4,5
 -36 254 -36 254 -74 182.5 c 128,-1,7
 -112 111 -112 111 -136 88 c 0,6,7
 -158 68 -158 68 -219 71 c 0,8,9
 -322 78 -322 78 -415 166 c 1,10,11
 -517 38 -517 38 -623 40 c 0,12,13
 -682 41 -682 41 -725 76 c 128,-1,15
 -768 111 -768 111 -787 152 c 0,14,15
 -791 161 -791 161 -797 152 c 0,16,17
 -831 109 -831 109 -890 66 c 128,-1,19
 -949 23 -949 23 -1008 0 c 0,18,19
 -1017 -3 -1017 -3 -1028 20 c 0,20,21
 -1061 87 -1061 87 -1045 146 c 0,22,23
 -1036 179 -1036 179 -1007 186 c 0,20,21
 -824 230 -824 230 -728 408 c 0,22,23
 -721 421 -721 421 -710 422 c 128,-1,25
 -699 423 -699 423 -691.5 415 c 128,-1,27
 -684 407 -684 407 -687 398 c 0,24,25
 -690 388 -690 388 -695.5 373.5 c 128,-1,27
 -701 359 -701 359 -703 352 c 128,-1,29
 -705 345 -705 345 -708.5 333.5 c 128,-1,31
 -712 322 -712 322 -711 318.5 c 128,-1,33
 -710 315 -710 315 -709 307 c 1,26,27
 -696 280 -696 280 -658 258 c 128,-1,29
 -620 236 -620 236 -568 236 c 0,28,29
 -485 237 -485 237 -417.5 298 c 128,-1,31
 -350 359 -350 359 -317 446 c 0,30,31
 -305 478 -305 478 -282 463 c 0,32,33
 -268 454 -268 454 -273 437 c 0,32,33
 -287 396 -287 396 -296 358 c 0,34,35
 -300 342 -300 342 -290 331 c 0,36,37
 -268 306 -268 306 -211.5 288.5 c 128,-1,39
 -155 271 -155 271 -124.5 274.5 c 128,-1,39
 -94 278 -94 278 -82 308 c 0,40,41
 -79 316 -79 316 -22 487 c 0,42,43
 -9 530 -9 530 12 488 c 0,0,1
EndSplineSet
Fore
SplineSet
180 1018 m 0,0,1
 362 604 362 604 319 278 c 1,2,3
 314 231 314 231 292 181 c 128,-1,4
 270 131 270 131 236 131 c 0,5,6
 132 132 132 132 0 312 c 0,7,8
 -17 334 -17 334 -24.5 380 c 128,-1,9
 -32 426 -32 426 -27.5 466.5 c 128,-1,10
 -23 507 -23 507 -6 507 c 0,11,12
 3 507 3 507 12 488 c 0,13,14
 78 344 78 344 249 289 c 0,15,16
 263 285 263 285 263 309 c 0,17,18
 262 504 262 504 118 790 c 0,19,20
 111 802 111 802 121.5 873 c 128,-1,21
 132 944 132 944 154 1019 c 0,22,23
 157 1030 157 1030 165.5 1030 c 128,-1,24
 174 1030 174 1030 180 1018 c 0,0,1
EndSplineSet
EndChar

StartChar: aSen.medi_BaaSenInit
Encoding: 65653 -1 118
Width: 1008
Flags: W
AnchorPoint: "DigitAbove" 630 840 basechar 0
AnchorPoint: "VAbove" 630 840 basechar 0
AnchorPoint: "TwoDotsBelow" 530 -200 basechar 0
AnchorPoint: "DotBelow" 630 -300 basechar 0
AnchorPoint: "TashkilBelow" 670 -670 basechar 0
AnchorPoint: "TashkilAbove" 460 1640 basechar 0
AnchorPoint: "TwoDotsAbove" 520 840 basechar 0
AnchorPoint: "DotAbove" 630 840 basechar 0
AnchorPoint: "HamzaAbove" 630 840 basechar 0
LayerCount: 2
Back
SplineSet
1188 1018 m 0,44,45
 1252 896 1252 896 1302.5 677 c 128,-1,47
 1353 458 1353 458 1327 278 c 0,46,47
 1320 227 1320 227 1298 177 c 128,-1,49
 1276 127 1276 127 1243 131 c 0,48,49
 1176 138 1176 138 1112 195 c 128,-1,51
 1048 252 1048 252 1008 312 c 0,50,51
 990 339 990 339 983 382.5 c 128,-1,53
 976 426 976 426 980 461 c 0,52,53
 985 507 985 507 1001 507 c 0,54,55
 1010 507 1010 507 1020 488 c 0,54,55
 1062 398 1062 398 1137.5 347 c 128,-1,57
 1213 296 1213 296 1257 289 c 0,56,57
 1264 288 1264 288 1267.5 292 c 128,-1,59
 1271 296 1271 296 1271 309 c 0,58,59
 1271 414 1271 414 1224 557 c 128,-1,61
 1177 700 1177 700 1125 790 c 0,60,61
 1118 802 1118 802 1122 827 c 0,62,63
 1139 944 1139 944 1162 1019 c 0,64,65
 1165 1030 1165 1030 1173 1030.5 c 128,-1,67
 1181 1031 1181 1031 1188 1018 c 0,44,45
EndSplineSet
Fore
SplineSet
1034 424 m 0,0,1
 1040 310 1040 310 1008 312 c 1,2,3
 998 326 998 326 991 308 c 0,4,5
 926 148 926 148 871 88 c 1,6,7
 842 58 842 58 771.5 75 c 128,-1,8
 701 92 701 92 593 166 c 1,9,10
 490 36 490 36 385 40 c 128,-1,11
 280 44 280 44 221 152 c 0,12,13
 217 161 217 161 211 152 c 0,14,15
 100 0 100 0 0 -0 c 0,16,17
 -10 0 -10 0 -21 20 c 0,18,19
 -101 178 -101 178 0 185 c 0,20,21
 182 198 182 198 279 408 c 0,22,23
 286 421 286 421 297.5 422 c 128,-1,24
 309 423 309 423 316 415.5 c 128,-1,25
 323 408 323 408 320 398 c 0,26,27
 294 328 294 328 296 318 c 0,28,29
 302 284 302 284 346 259.5 c 128,-1,30
 390 235 390 235 440 236 c 0,31,32
 598 240 598 240 690 446 c 0,33,34
 703 477 703 477 721.5 465.5 c 128,-1,35
 740 454 740 454 733 433 c 0,36,37
 702 339 702 339 717 331 c 24,38,39
 819 281 819 281 883 274 c 24,40,41
 912 271 912 271 926 308 c 0,42,43
 929 316 929 316 985 487 c 1,44,45
 1031 496 1031 496 1034 424 c 0,0,1
EndSplineSet
EndChar

StartChar: aBaa.medi_BaaRaaFina
Encoding: 65654 -1 119
Width: 530
Flags: W
AnchorPoint: "DigitBelow" 270 -380 basechar 0
AnchorPoint: "DigitAbove" 280 1000 basechar 0
AnchorPoint: "HighHamza" 380 1000 basechar 0
AnchorPoint: "VAbove" 280 1000 basechar 0
AnchorPoint: "RingBelow" 260 400 basechar 0
AnchorPoint: "TaaAbove" 280 800 basechar 0
AnchorPoint: "TashkilBelow" 290 -670 basechar 0
AnchorPoint: "TashkilAbove" 230 1640 basechar 0
AnchorPoint: "TwoDotsBelow" 159 -280 basechar 0
AnchorPoint: "TwoDotsAbove" 180 1000 basechar 0
AnchorPoint: "HamzaBelow" 270 -380 basechar 0
AnchorPoint: "HamzaAbove" 280 1000 basechar 0
AnchorPoint: "DotBelow" 270 -380 basechar 0
AnchorPoint: "DotAbove" 280 1000 basechar 0
LayerCount: 2
Back
SplineSet
-752 -303 m 0,0,1
 -766 -295 -766 -295 -768 -284 c 128,-1,2
 -770 -273 -770 -273 -762 -267 c 0,3,4
 -756 -262 -756 -262 -742 -266 c 0,5,6
 -546 -323 -546 -323 -393 -265 c 24,7,8
 -114 -158 -114 -158 -9 53 c 0,9,10
 -5 61 -5 61 -5 63 c 0,11,12
 -6 139 -6 139 -110 269 c 0,13,14
 -114 274 -114 274 -112 281 c 0,15,16
 -92 342 -92 342 -53 489 c 0,17,18
 -49 504 -49 504 -31 491 c 0,19,20
 -21 485 -21 485 4 442 c 0,21,22
 59 352 59 352 74 223 c 0,23,24
 82 163 82 163 54 25 c 0,25,26
 29 -101 29 -101 -99 -247 c 0,27,28
 -231 -397 -231 -397 -346 -408 c 0,29,30
 -536 -426 -536 -426 -752 -303 c 0,0,1
EndSplineSet
Fore
SplineSet
344 633.5 m 128,-1,1
 363 631 363 631 367.5 599.5 c 128,-1,2
 372 568 372 568 387 434 c 128,-1,3
 402 300 402 300 432 249 c 128,-1,4
 462 198 462 198 529 185 c 128,-1,5
 596 172 596 172 580 107 c 0,6,7
 555 0 555 0 530 0 c 0,8,9
 400 0 400 0 357 122 c 0,10,11
 335 185 335 185 324.5 293.5 c 128,-1,12
 314 402 314 402 313 412 c 128,-1,13
 312 422 312 422 305 406 c 0,14,15
 236 238 236 238 49 232 c 0,16,17
 -34 229 -34 229 -49 311 c 0,18,19
 -62 382 -62 382 -36 412 c 128,-1,20
 -10 442 -10 442 12 426 c 128,-1,21
 34 410 34 410 47 409 c 0,22,23
 176 398 176 398 234 450 c 1,24,25
 276 485 276 485 318 614 c 0,26,0
 325 636 325 636 344 633.5 c 128,-1,1
EndSplineSet
EndChar

StartChar: aRaa.fina_BaaRaaFina
Encoding: 65655 -1 120
Width: 898
Flags: W
AnchorPoint: "HamzaAbove" 654 939 basechar 0
AnchorPoint: "Stroke" 800 -26 basechar 0
AnchorPoint: "DotAlt" 416 -22 basechar 0
AnchorPoint: "DotBelow" 550 -680 basechar 0
AnchorPoint: "RingBelow" 534 -294 basechar 0
AnchorPoint: "TaaAbove" 654 739 basechar 0
AnchorPoint: "TashkilBelow" 770 -670 basechar 0
AnchorPoint: "TashkilAbove" 654 1640 basechar 0
AnchorPoint: "TwoDotsAbove" 543 939 basechar 0
AnchorPoint: "VAbove" 654 939 basechar 0
AnchorPoint: "DotAbove" 654 939 basechar 0
LayerCount: 2
Back
SplineSet
1393 186 m 0,0,1
 1456 164 1456 164 1447 107 c 0,2,3
 1440 64 1440 64 1424.5 31 c 128,-1,5
 1409 -2 1409 -2 1393 0 c 0,4,5
 1349 5 1349 5 1318 16.5 c 128,-1,7
 1287 28 1287 28 1265 54.5 c 128,-1,9
 1243 81 1243 81 1229.5 106.5 c 128,-1,11
 1216 132 1216 132 1206.5 185 c 128,-1,13
 1197 238 1197 238 1192 280.5 c 128,-1,15
 1187 323 1187 323 1180 405 c 0,6,7
 1179 411 1179 411 1176.5 411 c 128,-1,9
 1174 411 1174 411 1172 406 c 0,8,9
 1147 351 1147 351 1119 315.5 c 128,-1,11
 1091 280 1091 280 1059.5 264 c 128,-1,13
 1028 248 1028 248 1008.5 243 c 128,-1,15
 989 238 989 238 957 234 c 0,16,17
 949 233 949 233 945 232 c 0,10,11
 872 223 872 223 857 305 c 0,12,13
 844 376 844 376 877 414 c 0,14,15
 896 436 896 436 919 419 c 0,12,13
 931 410 931 410 943 409 c 0,14,15
 1053 404 1053 404 1100.5 449.5 c 128,-1,17
 1148 495 1148 495 1184 614 c 0,16,17
 1191 636 1191 636 1210 633.5 c 128,-1,19
 1229 631 1229 631 1232 611 c 0,18,19
 1239 563 1239 563 1246 498 c 128,-1,21
 1253 433 1253 433 1256.5 400.5 c 128,-1,23
 1260 368 1260 368 1269.5 326 c 128,-1,25
 1279 284 1279 284 1293 262.5 c 128,-1,27
 1307 241 1307 241 1331.5 220 c 128,-1,29
 1356 199 1356 199 1393 186 c 0,0,1
EndSplineSet
Fore
SplineSet
146 -303 m 0,0,1
 132 -295 132 -295 130 -284 c 128,-1,2
 128 -273 128 -273 135 -267.5 c 128,-1,3
 142 -262 142 -262 156 -266 c 0,4,5
 355 -324 355 -324 505 -265 c 24,6,7
 770 -162 770 -162 889 53 c 0,8,9
 893 61 893 61 893 63 c 0,10,11
 892 139 892 139 788 269 c 0,12,13
 784 274 784 274 786 281 c 2,14,-1
 845 489 l 2,15,16
 853 523 853 523 902 442 c 24,17,18
 957 352 957 352 972 223 c 0,19,20
 980 163 980 163 953.5 31 c 128,-1,21
 927 -101 927 -101 797.5 -248.5 c 128,-1,22
 668 -396 668 -396 552 -408 c 0,23,24
 346 -430 346 -430 146 -303 c 0,0,1
EndSplineSet
EndChar

StartChar: aKaf.medi_KafRaaFina
Encoding: 65656 -1 121
Width: 792
Flags: W
AnchorPoint: "TashkilAbove" 290 1640 basechar 0
AnchorPoint: "TashkilBelow" 400 -670 basechar 0
AnchorPoint: "DotAbove" -210 1580 basechar 0
AnchorPoint: "TwoDotsAbove" -320 1580 basechar 0
AnchorPoint: "RingBelow" 405 1350 basechar 0
AnchorPoint: "DotBelow" 390 -60 basechar 0
AnchorPoint: "TwoDotsBelow" 330 -60 basechar 0
AnchorPoint: "Dash" 426 1580 basechar 0
LayerCount: 2
Back
SplineSet
-6 240 m 0,34,35
 25 228 25 228 34.5 192.5 c 128,-1,37
 44 157 44 157 38.5 123.5 c 128,-1,39
 33 90 33 90 22.5 48.5 c 128,-1,41
 12 7 12 7 11 0 c 0,36,37
 1 -103 1 -103 -47 -205.5 c 128,-1,39
 -95 -308 -95 -308 -158.5 -382 c 128,-1,41
 -222 -456 -222 -456 -291.5 -503.5 c 128,-1,43
 -361 -551 -361 -551 -417 -555 c 0,38,39
 -436 -556 -436 -556 -465.5 -548 c 128,-1,41
 -495 -540 -495 -540 -523 -529 c 128,-1,43
 -551 -518 -551 -518 -586.5 -500.5 c 128,-1,45
 -622 -483 -622 -483 -643.5 -471 c 128,-1,47
 -665 -459 -665 -459 -692.5 -443.5 c 128,-1,49
 -720 -428 -720 -428 -722 -427 c 0,40,41
 -738 -418 -738 -418 -735 -404.5 c 128,-1,43
 -732 -391 -732 -391 -717 -392 c 0,42,43
 -682 -395 -682 -395 -636.5 -403.5 c 128,-1,45
 -591 -412 -591 -412 -570 -414 c 128,-1,47
 -549 -416 -549 -416 -484 -412 c 1,44,45
 -407 -404 -407 -404 -266.5 -306 c 128,-1,47
 -126 -208 -126 -208 -72 -86 c 1,46,47
 -62 -30 -62 -30 -115 39 c 0,48,49
 -132 60 -132 60 -127 79 c 2,50,-1
 -83 265 l 2,51,52
 -82 268 -82 268 -71 269.5 c 128,-1,54
 -60 271 -60 271 -54 267 c 0,53,54
 -34 250 -34 250 -6 240 c 0,34,35
EndSplineSet
Fore
SplineSet
1006 1593 m 2,0,-1
 965 1474 l 2,1,2
 960 1459 960 1459 937 1453 c 0,3,4
 9 1226 9 1226 -161 1101 c 1,5,6
 -81 1045 -81 1045 47.5 921.5 c 128,-1,7
 176 798 176 798 411 541 c 128,-1,8
 646 284 646 284 648 282 c 0,9,10
 722 209 722 209 788 186.5 c 128,-1,11
 854 164 854 164 822 36 c 0,12,13
 813 0 813 0 792 0 c 0,14,15
 698 0 698 0 586 132 c 24,16,17
 298 473 298 473 253 510 c 1,18,19
 295 159 295 159 195 50 c 0,20,21
 149 0 149 0 11 0 c 0,22,23
 -17 0 -17 0 -42 108.5 c 128,-1,24
 -67 217 -67 217 -31 239 c 0,25,26
 -21 245 -21 245 -6 240 c 0,27,28
 118 197 118 197 216 268 c 1,29,30
 213 395 213 395 70.5 590.5 c 128,-1,31
 -72 786 -72 786 -264 953 c 1,32,33
 -272 1051 -272 1051 -263.5 1088 c 128,-1,34
 -255 1125 -255 1125 -196 1212 c 2,35,-1
 -177 1240 l 1,36,37
 -148 1309 -148 1309 299 1455 c 0,38,39
 612 1557 612 1557 983 1627 c 0,40,41
 1020 1634 1020 1634 1006 1593 c 2,0,-1
EndSplineSet
EndChar

StartChar: aRaa.fina_KafRaaFina
Encoding: 65657 -1 122
Width: 865
Flags: W
AnchorPoint: "Stroke" 800 -146 basechar 0
AnchorPoint: "DotAlt" 420 -112 basechar 0
AnchorPoint: "DotBelow" 758 -680 basechar 0
AnchorPoint: "RingBelow" 448 -440 basechar 0
AnchorPoint: "TaaAbove" 300 400 basechar 0
AnchorPoint: "VAbove" 400 400 basechar 0
AnchorPoint: "TashkilBelow" 730 -670 basechar 0
AnchorPoint: "TashkilAbove" 500 1640 basechar 0
AnchorPoint: "DotAbove" 500 500 basechar 0
AnchorPoint: "TwoDotsAbove" 400 500 basechar 0
AnchorPoint: "HamzaAbove" 500 500 basechar 0
LayerCount: 2
Back
SplineSet
1871 1643 m 2,0,-1
 1830 1534 l 2,2,3
 1823 1517 1823 1517 1802 1513 c 0,4,5
 1622 1477 1622 1477 1194.5 1326 c 128,-1,7
 767 1175 767 1175 704 1101 c 1,6,7
 784 1045 784 1045 901 933 c 128,-1,9
 1018 821 1018 821 1091.5 742.5 c 128,-1,11
 1165 664 1165 664 1298.5 516 c 128,-1,13
 1432 368 1432 368 1441 357 c 0,8,9
 1488 306 1488 306 1512 281.5 c 128,-1,11
 1536 257 1536 257 1576.5 225.5 c 128,-1,13
 1617 194 1617 194 1652 182 c 0,10,11
 1681 172 1681 172 1689 124 c 128,-1,13
 1697 76 1697 76 1685.5 34 c 128,-1,15
 1674 -8 1674 -8 1653 -4 c 0,12,13
 1615 3 1615 3 1584 17.5 c 128,-1,15
 1553 32 1553 32 1513 70 c 128,-1,17
 1473 108 1473 108 1451 132.5 c 128,-1,19
 1429 157 1429 157 1368 227 c 0,14,15
 1351 246 1351 246 1291.5 318.5 c 128,-1,17
 1232 391 1232 391 1189 439 c 128,-1,19
 1146 487 1146 487 1118 510 c 1,16,17
 1161 153 1161 153 1060 50 c 0,18,19
 1023 12 1023 12 876 0 c 0,20,21
 848 -2 848 -2 825 96 c 0,22,23
 797 216 797 216 834 239 c 0,24,25
 844 245 844 245 859 240 c 0,22,23
 983 197 983 197 1081 268 c 1,24,25
 1078 395 1078 395 935.5 590.5 c 128,-1,27
 793 786 793 786 601 953 c 1,26,27
 593 1051 593 1051 603 1094 c 0,28,29
 607 1111 607 1111 628.5 1147.5 c 128,-1,31
 650 1184 650 1184 669 1212 c 2,32,-1
 688 1240 l 1,30,31
 715 1286 715 1286 1151 1455 c 128,-1,33
 1587 1624 1587 1624 1848 1677 c 0,32,33
 1864 1680 1864 1680 1870 1668.5 c 128,-1,35
 1876 1657 1876 1657 1871 1643 c 2,0,-1
EndSplineSet
Fore
SplineSet
794 270 m 0,0,1
 805 270 805 270 818 260 c 0,2,3
 830 250 830 250 860 239 c 0,4,5
 932 212 932 212 888 48 c 1,6,7
 878 6 878 6 876 0 c 1,8,9
 866 -104 866 -104 818 -206 c 0,10,11
 728 -400 728 -400 573 -504 c 0,12,13
 491 -560 491 -560 448 -555 c 0,14,15
 340 -544 340 -544 143 -427 c 0,16,17
 127 -418 127 -418 130 -404.5 c 128,-1,18
 133 -391 133 -391 148 -392 c 1,19,-1
 295 -414 l 1,20,21
 324 -417 324 -417 390 -411.5 c 152,-1,22
 456 -406 456 -406 597 -307 c 128,-1,23
 738 -208 738 -208 793 -86 c 1,24,25
 803 -30 803 -30 750 39 c 0,26,27
 733 60 733 60 738 79 c 2,28,-1
 782 265 l 2,29,30
 783 268 783 268 794 270 c 0,0,1
EndSplineSet
EndChar

